<svg width="1920" height="1521" viewBox="0 0 1920 1521" fill="none" xmlns="http://www.w3.org/2000/svg">
<g filter="url(#filter0_b_207_8056)">
<path d="M1917.87 1023.97C1857.23 976.996 1792.7 910.921 1724.43 929.105C1715.99 931.362 1706.71 926.943 1704.78 918.419C1700.68 900.325 1696.96 881.923 1692.91 863.818C1686.83 836.586 1679.88 810.077 1670.68 785.868C1661.39 761.419 1651.75 737.517 1642.7 712.717C1625.14 664.584 1607.14 616.014 1583.06 577.827C1571.75 559.885 1559.56 547.419 1544.88 541.372C1531.18 535.742 1516.95 535.764 1503 533.836C1487.5 531.667 1472.6 525.708 1459.3 510.394C1448.81 498.344 1440.82 479.898 1432.51 463.401C1416.35 431.283 1398.9 396.646 1376.69 378.659C1362.64 367.292 1329.03 351.965 1324.3 334.516C1317.94 311.045 1308.99 289.294 1300.24 268.899C1297.48 262.458 1295.07 255.732 1292.89 248.765C1292.34 246.531 1291.72 244.296 1291.03 242.083C1290.85 241.469 1290.54 240.897 1290.37 240.281C1279.17 200.474 1274.38 155.003 1258.99 118.981C1244.4 84.8259 1224.39 52.4236 1201.12 40.6369C1191.33 35.6638 1181 36.5182 1171.91 45.0843C1161.37 55.0088 1154.9 76.0188 1150.76 95.4514C1147.54 110.549 1145.8 126.362 1144.97 142.498C1143.9 163.266 1120.05 169.237 1111.48 150.292C1104.85 135.646 1097.98 121.397 1090.23 108.64C1079.42 90.8726 1066.48 77.6838 1054.23 63.5749C1040.71 47.9762 1026.93 32.991 1012.39 20.7443C1010.92 19.5125 1009.39 18.2808 1007.81 17.0491C1007.6 16.8859 1007.45 16.6694 1007.34 16.4283C1006.71 14.8875 1004.48 14.5568 1003.12 13.5965C983.417 -0.33013 958.272 -9.32457 941.357 16.1435C934.116 27.0538 929.938 42.6306 926.012 57.8787C920.47 79.4365 914.82 99.9645 906.525 118.521C902.456 127.604 898.159 136.298 893.718 144.739C885.976 159.453 865.221 157.582 857.1 143.073C854.898 139.138 852.56 135.438 850.038 132.06C838.834 117.031 825.596 106.756 813.554 94.1588C803.535 83.6647 792.271 71.4619 780.313 72.3163C770.007 73.0572 763.39 86.3782 759.046 101.922C758.743 103.008 758.362 104.087 757.875 105.104C740.933 140.493 711.142 150.299 687.33 160.212C674.893 165.383 662.205 169.019 650.953 180.499C637.415 194.323 626.235 214.632 610.938 222.213C599.506 227.865 587.524 220.81 576.069 225.762C569.115 228.773 563.417 237.396 558.607 247.6C557.728 249.465 556.605 251.205 555.277 252.782C531.59 280.902 517.217 324.527 500.897 365.646C496.564 376.556 491.944 387.05 486.976 397.019C481.099 408.783 474.336 417.13 466.891 425.236C460.822 431.853 454.633 438.206 449.043 446.181C442.568 455.448 437.277 466.796 432.273 478.693C422.242 502.463 412.559 529.98 406.334 557.891C402.796 573.755 400.534 590.086 398.821 606.67C398.708 607.769 397.732 608.67 396.962 609.463C371.406 636.169 343.252 650.475 316.009 669.908C298.061 682.706 281.287 699.353 266.979 721.943C266.549 722.622 265.997 723.224 265.57 723.904C265.334 724.28 265.112 724.731 264.913 725.27C264.902 725.299 264.9 725.331 264.885 725.358C259.283 734.603 254.076 744.768 249.384 756.073C247.765 759.969 246.169 763.877 244.581 767.786C240.429 778.008 228.734 782.634 220.589 775.192C214.467 769.599 208.625 762.825 202.976 756.007C190.048 740.387 177.875 722.729 165.366 706.035C153.48 690.195 141.259 675.692 127.625 665.395C113.381 654.616 97.9633 649.38 82.6057 648.197C52.166 645.853 23.2585 664.08 -1.59125 695.475C-10.6744 706.947 -19.1184 720.04 -27.6395 732.887C-28.1993 733.731 -28.8716 734.311 -29.3815 735.186C-29.6929 735.72 -30.0141 736.441 -30.3583 736.954C-40.296 751.792 -50.4618 766.008 -62.0038 776.667C-79.085 792.419 -97.8659 795.508 -116.635 798.115C-140.048 801.379 -163.545 801.861 -186.923 805.958C-209.426 809.88 -231.236 819.059 -252.961 830.233C-272.472 840.252 -292.246 850.603 -312.588 850.87C-316.026 850.916 -319.142 849.023 -321.047 846.16C-328.945 834.423 -337.054 824.013 -345.521 815.313C-348.711 812.036 -354 814.395 -354 818.969V820.769C-354 820.839 -353.975 820.913 -353.916 820.951C-353.899 820.962 -353.885 820.972 -353.87 820.987C-341.993 832.092 -331.43 847.353 -321.19 862.854C-310.693 878.759 -300.35 894.993 -289.266 909.562C-279.068 922.948 -268.391 935.217 -257.821 947.705C-268.355 937.189 -278.876 926.651 -289.577 916.814C-308.587 899.366 -328.832 882.382 -349.896 874.01C-351.89 873.217 -354 874.724 -354 876.87C-354 878.199 -353.16 879.377 -351.919 879.852C-333.215 886.996 -315.083 901.481 -298.22 916.332C-275.451 936.409 -253.667 960.092 -231.105 980.902C-230.634 981.336 -230.228 981.773 -229.837 982.28C-221.662 992.898 -234.393 1002.8 -243.938 993.396C-248.29 989.108 -252.648 984.842 -257.007 980.589C-272.209 965.779 -287.207 950.947 -303.678 941.395C-317.096 933.618 -331.006 929.455 -344.879 925.49C-346.617 925.001 -348.355 924.499 -350.093 923.99C-352.044 923.418 -354 924.878 -354 926.912C-354 928.264 -353.109 929.453 -351.812 929.833C-332.646 935.441 -313.482 941.106 -295.251 953.664C-277.955 965.604 -261.807 983.262 -245.564 999.277C-228.794 1015.77 -212.132 1032.62 -195.733 1050.32C-186.052 1060.76 -176.498 1071.56 -167.082 1082.77C-166.705 1083.22 -166.386 1083.71 -166.13 1084.24C-162.793 1091.11 -170.108 1096.46 -175.265 1090.82C-191.126 1073.47 -206.318 1053.65 -222.51 1037.7C-235.808 1024.6 -249.969 1014.02 -264.943 1009.55C-282.419 1004.36 -299.764 1004.71 -317.372 1007.47C-328.722 1009.26 -340.052 1011.81 -351.39 1013.97C-352.902 1014.26 -354 1015.58 -354 1017.11C-354 1019.11 -352.181 1020.62 -350.219 1020.24C-326.455 1015.55 -302.733 1009.38 -278.816 1012.79C-262.645 1015.07 -247.18 1023.03 -232.54 1035.73C-218.547 1047.89 -205.512 1063.4 -192.477 1078.61C-178.557 1094.82 -164.481 1111.1 -149.163 1122.49C-148.153 1123.25 -147.318 1124.26 -146.783 1125.4C-143.188 1133.05 -152.489 1139.57 -158.123 1133.26C-167.941 1122.27 -177.828 1111.51 -188.215 1102.4C-201.095 1091.07 -214.729 1083.05 -228.973 1080.29C-245.767 1077.05 -263.1 1082.05 -279.666 1086.91C-303.671 1093.96 -327.44 1103.88 -351.494 1109.73C-352.959 1110.09 -354 1111.4 -354 1112.91C-354 1114.99 -352.068 1116.53 -350.049 1116.03C-326.511 1110.21 -303.228 1100.62 -279.774 1093.57C-262.836 1088.47 -245.241 1083.71 -228.076 1087.04C-213.364 1089.89 -199.3 1099.44 -186.157 1111.53C-162.254 1133.54 -140.859 1163.63 -116.428 1183.75C-115.915 1184.17 -115.481 1184.67 -115.127 1185.23C-113.5 1187.77 -116.238 1190.87 -118.836 1189.35C-141.019 1176.3 -162.395 1158.19 -184.684 1145.76C-200.688 1136.84 -217.051 1132.35 -233.737 1130.68C-249.382 1129.11 -265.003 1133.57 -280.133 1140.58C-304.335 1151.81 -327.632 1169.1 -351.904 1178.34C-353.158 1178.82 -354 1180.02 -354 1181.36C-354 1183.55 -351.834 1185.08 -349.791 1184.29C-329.844 1176.51 -310.473 1163.6 -290.81 1152.85C-275.704 1144.57 -260.263 1138.2 -244.451 1137.1C-236.143 1136.53 -227.896 1138.07 -219.625 1139.36C-211.066 1140.67 -202.627 1143.74 -194.32 1147.64C-162.397 1162.58 -132.933 1192.06 -100.781 1205.26C-100.399 1205.42 -100.049 1205.68 -99.7809 1205.99C-97.9023 1208.19 -100.664 1211.96 -103.287 1210.74C-144.87 1191.34 -186.884 1176.19 -230.063 1180.59C-260.323 1183.68 -288.967 1204.08 -317.073 1223.16C-328.661 1231.04 -340.425 1238.92 -352.374 1245.3C-353.371 1245.83 -354 1246.87 -354 1248C-354 1250.27 -351.6 1251.73 -349.608 1250.64C-337.032 1243.76 -324.656 1235.32 -312.452 1227.01C-297.154 1216.61 -281.833 1206.2 -266.056 1198.44C-249.526 1190.29 -232.947 1186.57 -215.854 1186.59C-164.898 1186.7 -116.048 1211 -67.2706 1235.14C-61.9679 1238.71 -56.5695 1241.89 -51.0872 1244.69C-34.3292 1253.28 -17.3318 1259.39 -0.717438 1269.16C-0.0183105 1269.58 -0.527252 1270.65 -1.29437 1270.39C-51.5198 1252.93 -102.608 1242.41 -153.574 1241.69C-220.622 1240.76 -285.786 1269.47 -351.68 1287.8C-353.05 1288.18 -354 1289.43 -354 1290.85C-354 1292.94 -352.017 1294.45 -350.01 1293.88C-293.183 1277.88 -236.938 1254.21 -179.346 1249.18C-143.364 1246.05 -107.143 1250.43 -71.3763 1257.88C-37.6129 1264.89 -4.05679 1275.38 29.1336 1288.68C30.4089 1289.19 31.6263 1289.84 32.7676 1290.6C38.9327 1294.73 45.0895 1298.88 51.2563 1302.97C51.6332 1303.22 51.3053 1303.84 50.8891 1303.66C32.9285 1295.96 14.9257 1288.72 -3.5184 1285.92C-22.6704 1283.01 -42.1216 1284.61 -61.2737 1286.47C-80.1024 1288.31 -98.9073 1291.14 -117.736 1292.85C-136.637 1294.58 -155.561 1293.88 -174.45 1295.65C-193.267 1297.43 -212.024 1300.95 -230.697 1305.47C-267.505 1314.36 -303.965 1327.4 -340.51 1339.34C-344.266 1340.57 -348.031 1341.78 -351.797 1342.98C-353.108 1343.39 -354 1344.61 -354 1345.99C-354 1348.12 -351.929 1349.64 -349.897 1348.99C-290.507 1330.06 -231.402 1307.16 -171.027 1301.92C-152.15 1300.27 -133.249 1300.93 -114.373 1299.11C-95.5198 1297.32 -76.703 1294.47 -57.8503 1292.72C-38.7102 1290.94 -19.2949 1289.74 -0.178772 1293.04C18.9014 1296.33 37.6344 1304.61 56.2478 1312.65C68.0913 1317.78 79.9586 1322.85 91.9326 1326.85C92.0187 1326.88 92.1025 1326.91 92.1825 1326.96C93.8344 1327.85 92.7946 1330.63 90.9559 1330.26C90.2393 1330.11 89.5228 1329.97 88.8062 1329.83C55.3261 1323.43 21.3792 1324 -12.0051 1331.89C-46.0119 1339.91 -78.6541 1358.13 -111.153 1377.59C-128.294 1387.84 -145.435 1398.18 -162.827 1406.97C-171.757 1411.46 -180.746 1415.49 -189.808 1419C-198.701 1422.43 -207.715 1424.65 -216.584 1428.35C-246.629 1440.86 -275.178 1462.66 -304.552 1479.31C-319.933 1488.05 -335.363 1494.99 -351.379 1498.39C-351.396 1498.39 -351.413 1498.4 -351.43 1498.4C-352.919 1498.74 -354 1500.04 -354 1501.56C-354 1503.6 -352.128 1505.12 -350.138 1504.7C-348.397 1504.33 -346.656 1503.95 -344.915 1503.56C-327.367 1499.68 -310.19 1489.78 -293.444 1479.7C-276.662 1469.63 -260.095 1458.39 -243.254 1448.64C-234.827 1443.77 -226.304 1439.35 -217.71 1435.56C-208.888 1431.7 -199.946 1429.45 -191.064 1426.16C-155.43 1413.01 -121.279 1389.81 -86.6501 1370.1C-54.1036 1351.54 -21.222 1338.31 12.8326 1333.95C53.2673 1328.78 94.887 1333.25 134.783 1349.61C140.553 1352.79 146.322 1356.05 152.056 1359.49C161.98 1365.44 171.802 1371.88 181.5 1378.86C186.91 1382.76 181.715 1393.51 175.086 1392.81C148.56 1390.05 121.831 1392.92 95.4495 1398.23C71.1385 1403.11 46.8753 1410.25 23.1029 1420.84C10.9653 1426.25 -0.705444 1433.87 -12.6515 1440.55C-30.8818 1450.76 -49.4473 1458.89 -68.0008 1466.89C-77.4092 1470.96 -86.8177 1474.97 -96.2021 1479.18C-105.623 1483.38 -114.959 1488.42 -124.415 1492.45C-137.818 1498.17 -150.758 1506.86 -163.654 1515.65C-166.025 1517.27 -164.876 1521 -162.006 1521C-161.426 1521 -160.858 1520.83 -160.377 1520.5C-149.622 1513.25 -138.849 1506.15 -127.767 1500.76C-109.106 1491.66 -90.3488 1483.27 -71.5439 1475.17C-52.9665 1467.17 -34.3771 1459.11 -16.051 1449.27C-3.42267 1442.5 8.8945 1434.16 21.6665 1428.26C45.3431 1417.33 69.5944 1410.17 93.8336 1405.13C120.024 1399.67 146.502 1396.87 172.848 1399.17C191.305 1400.79 211.451 1404.16 228.652 1418.25C233.356 1422.79 238.036 1427.45 242.657 1432.32C249.277 1439.26 242.667 1452.32 233.151 1453.57C232.78 1453.62 232.41 1453.67 232.039 1453.72C212.037 1456.5 192.251 1463.73 172.872 1472.98C149.072 1484.36 125.786 1499.16 102.95 1515.88C100.726 1517.51 101.886 1521 104.642 1521C105.249 1521 105.841 1520.81 106.332 1520.45C124.51 1507.26 142.979 1495.4 161.763 1485.42C182.543 1474.36 203.814 1465.57 225.348 1461.41C237.557 1459.04 249.958 1458.12 262.192 1460.42C262.51 1460.48 262.831 1460.54 263.156 1460.61C266.866 1461.32 270.07 1463.49 272.514 1466.37C277.707 1472.49 282.908 1478.58 288.179 1484.48C299.025 1496.62 310.068 1508.15 321.182 1519.44C322.168 1520.44 323.515 1521 324.92 1521C329.607 1521 331.957 1515.32 328.66 1511.99C326.186 1509.49 323.716 1506.97 321.251 1504.44C314.673 1497.69 321.254 1484.73 330.651 1484.01C351.156 1482.46 371.735 1476.24 391.743 1470.96C410.009 1466.14 428.347 1461.45 446.829 1460.42C466.699 1459.33 486.797 1463.18 506.559 1466.45C549.651 1473.55 592.516 1484.54 635.452 1494.14C678.616 1503.78 721.792 1510.31 765.231 1513.95C792.858 1516.29 820.544 1518.11 848.171 1521C853.186 1521 853.597 1515.07 848.61 1514.54C795.999 1509.01 743.205 1507.33 690.706 1498.65C647.662 1491.53 604.857 1480.25 561.968 1470.79C540.542 1466.05 519.08 1461.74 497.57 1458.43C478.262 1455.47 458.823 1452.47 439.431 1454.44C413.54 1457.07 387.96 1465.94 362.273 1471.88C339.124 1477.26 315.164 1481.02 292.059 1473.29C291.964 1473.26 291.869 1473.21 291.805 1473.13C276.496 1456.13 261.785 1437.42 246.284 1420.97C233.807 1407.73 244.809 1379.95 262.964 1378.84C294.183 1376.93 325.414 1372.63 356.539 1370.86C385.926 1369.18 415.408 1369.66 444.626 1376.01C475.509 1382.72 505.913 1397.77 536.412 1408.79C597.447 1430.83 658.961 1448.68 720.882 1460.16C783.042 1471.66 845.705 1472.12 907.77 1485.57C929.16 1490.22 950.419 1496.77 971.294 1506.54C981.792 1511.42 992.3 1516.18 1002.84 1520.75C1003.22 1520.91 1003.64 1521 1004.05 1521C1007.38 1521 1008.32 1516.38 1005.27 1515.05C994.848 1510.53 984.451 1505.85 974.071 1501.04C914.221 1473.28 852.289 1470.19 790.954 1463.64C727.621 1456.87 664.647 1443.29 602.08 1424.1C571.137 1414.61 540.303 1403.79 509.576 1392.16C480.429 1381.12 451.82 1369.33 422.039 1365.6C345.771 1356.06 269.376 1381.25 193.182 1370.51C190.035 1370.07 187.066 1368.8 184.486 1366.94C175.634 1360.58 166.694 1354.64 157.682 1349.09C153.139 1346.29 153.839 1339.57 159.04 1338.39C183.357 1332.85 208.323 1334.85 232.662 1333.42C265.172 1331.49 296.737 1318.39 328.613 1307.44C363.099 1295.59 398.183 1284.46 433.363 1283.23C467.549 1282.02 501.628 1289.1 535.132 1301.26C599.889 1324.77 662.109 1366.79 726.304 1394.52C797.849 1425.44 871.165 1440.11 943.883 1458.43C962.03 1463.01 980.164 1467.81 998.263 1473.09C1011.47 1476.92 1024.58 1481.67 1037.88 1484.28C1061.31 1488.88 1084.97 1489.21 1108.51 1490.42C1134.19 1491.73 1159.92 1493.46 1185.43 1499.35C1202.65 1503.34 1220.11 1509.39 1236.51 1520.41C1237.07 1520.79 1237.74 1521 1238.42 1521C1241.58 1521 1242.94 1517.15 1240.38 1515.3C1212.05 1494.89 1179.12 1490.2 1150.29 1486.95C1124.98 1484.08 1099.6 1483.69 1074.26 1481.98C1062.96 1481.21 1051.65 1480.14 1040.39 1478.17C1026.56 1475.76 1012.93 1470.76 999.22 1466.73C926.634 1445.46 853.414 1432.23 781.043 1408.37C746.246 1396.89 711.928 1382.12 677.886 1364.66C646.345 1348.47 615.055 1330.66 583.383 1315.28C552.309 1300.16 520.804 1287.94 488.82 1281.43C453.951 1274.33 419.298 1276.07 384.525 1284.13C351.105 1291.86 318.128 1304.68 285.018 1315.85C268.859 1321.31 252.891 1325.29 236.456 1326.59C220.416 1327.83 204.341 1327.66 188.289 1328.49C172.282 1329.32 156.151 1331.14 140.485 1337.55C139.535 1337.94 138.459 1337.89 137.559 1337.39C135.216 1336.1 135.245 1332.72 137.635 1331.52C186.413 1307.07 236.806 1295.67 286.91 1284.22C292.821 1282.88 298.712 1281.45 304.591 1280C305.364 1279.8 306.141 1279.95 306.905 1279.72C307.529 1279.53 308.15 1279.12 308.782 1278.96C346.274 1269.5 383.404 1257.87 420.585 1245.16C421.598 1244.81 423.007 1245.1 423.691 1244.28C423.852 1244.11 424.046 1243.97 424.267 1243.9C432.713 1241 441.148 1238.06 449.606 1235.05C456.133 1232.73 462.669 1230.42 469.198 1228.1C470.529 1227.62 471.911 1227.29 473.314 1227.12C574.692 1214.99 674.51 1287.82 769.265 1349.68C825.631 1386.48 882.872 1421.47 942.435 1435.84C1012.63 1452.78 1083.43 1457.09 1154.14 1460.05C1185.61 1461.37 1217.23 1461.06 1248.64 1465.18C1280.46 1469.36 1311.98 1479.26 1343.09 1492.02C1363.5 1500.38 1383.7 1510.12 1403.78 1520.66C1404.22 1520.88 1404.7 1521 1405.18 1521C1408.3 1521 1409.34 1516.86 1406.58 1515.4C1379.17 1500.97 1351.54 1487.95 1323.52 1477.71C1289.89 1465.42 1255.86 1457.9 1221.56 1456.28C1186.3 1454.6 1151.04 1453.54 1115.78 1451.7C1047.16 1448.09 977.16 1443.82 909.649 1419.28C849.907 1397.55 792.57 1358.07 735.402 1320.47C684.33 1286.88 631.576 1253.4 577.967 1234.64C562.442 1229.2 558.993 1195.19 574.289 1189.14C575.474 1188.67 576.723 1188.35 577.991 1188.23C631.374 1182.98 685.684 1218.83 735.306 1249.23C767.074 1268.66 799.142 1286.32 830.958 1305.47C865.707 1326.41 900.384 1347.79 935.456 1366.88C970.397 1385.89 1005.78 1402.37 1041.75 1413.36C1077.8 1424.38 1113.92 1427.74 1150.44 1427.76C1187.13 1427.78 1223.84 1425.74 1260.48 1430.21C1279.65 1432.56 1298.72 1437.03 1317.55 1444.1C1332.8 1449.8 1347.85 1457.07 1363.13 1462.53C1447.94 1492.87 1534.49 1500.78 1620.09 1520.91C1620.34 1520.97 1620.59 1521 1620.85 1521C1624.7 1521 1625.35 1515.78 1621.59 1514.91C1585.15 1506.45 1548.52 1500.2 1512.05 1493.15C1449.18 1481 1386.8 1466.6 1325.18 1440.42C1253.36 1409.9 1179.26 1425.57 1106.35 1419.63C1032.23 1413.58 960.306 1375.62 890.114 1334.17C830.755 1299.11 771.467 1263.67 712.18 1228.26C683.907 1211.38 654.09 1194.63 623.952 1186.47C616.851 1184.55 615.249 1172.37 621.998 1169.44C633.032 1164.65 644 1159.81 654.982 1155.27C660.8 1152.86 667.586 1153.18 673.756 1154.43C673.906 1154.46 674.053 1154.49 674.199 1154.52C683.583 1156.58 693.1 1157.04 702.544 1157.5C723.42 1158.55 744.355 1157.87 765.219 1159.84C795.503 1162.73 826.062 1177.74 855.102 1192.81C886.499 1209.09 916.891 1229.82 947.103 1252.34C1005.67 1295.98 1063.94 1343.35 1126.52 1364.25C1158.94 1375.07 1191.89 1377 1224.76 1375.97C1260.19 1374.87 1295.9 1371.48 1330.9 1383.96C1360.43 1394.48 1388.53 1417.09 1417.26 1432.89C1431.47 1440.68 1445.96 1447.02 1460.68 1450.63C1477.53 1454.77 1494.61 1455.23 1511.57 1457.22C1581.37 1465.44 1650.99 1482.11 1718.75 1514.41C1722.98 1516.43 1727.19 1518.5 1731.4 1520.66C1731.83 1520.88 1732.31 1521 1732.8 1521C1735.97 1521 1737.01 1516.82 1734.19 1515.37C1679.82 1487.49 1624.01 1469.97 1567.82 1459.24C1550.5 1455.93 1533.13 1453.33 1515.76 1451.16C1498.68 1449.03 1481.48 1448.62 1464.48 1444.96C1433.92 1438.41 1404.93 1418.89 1375.95 1401.07C1361.43 1392.16 1346.79 1383.92 1331.85 1377.61C1315.49 1370.71 1298.21 1369.15 1281.47 1368.34C1246.74 1366.68 1212.06 1370.93 1177.31 1368.23C1112.86 1363.22 1051.9 1323.58 992.721 1279.55C962.664 1257.2 932.895 1232.86 902.263 1213.28C871.285 1193.47 839.636 1176.62 807.473 1164.62C794.186 1159.67 780.6 1155.07 767.05 1153.47C757.654 1152.35 748.222 1152.22 738.801 1152C717.913 1151.45 696.846 1152.11 676.042 1148.32C675.411 1148.2 675.309 1147.32 675.912 1147.1C686.934 1143.08 698.024 1139.61 709.271 1137.06C737.999 1130.53 766.99 1128.14 795.922 1126.8C825.248 1125.45 854.575 1125.56 883.89 1124.7C892.531 1124.45 901.128 1124.18 909.714 1124.06C910.453 1124.05 911.108 1124.55 911.828 1124.72C942.997 1130.99 971.989 1155.26 999.532 1181.4C1027.52 1207.95 1054.56 1237.92 1083.38 1261.43C1097.29 1272.78 1111.53 1282.22 1126.49 1287.63C1144.09 1294.01 1162.1 1295.96 1180 1296.75C1216.03 1298.35 1252.57 1294.14 1287.96 1309.28C1318.28 1322.23 1346.37 1347.79 1375.08 1369.13C1389.91 1380.15 1404.97 1390.03 1420.66 1395.97C1437.66 1402.41 1454.81 1407.49 1472 1411.7C1543.96 1429.29 1616.66 1431.88 1688.88 1444.34C1719.68 1449.67 1750.37 1457.05 1781.15 1462.61C1813.01 1468.4 1844.92 1473.22 1876.86 1477.23C1908.23 1481.17 1939.64 1484.17 1971.06 1486.43C1986.9 1487.55 2002.74 1488.42 2018.57 1489.15C2024.36 1489.4 2030.26 1490.98 2036.17 1492.07C2038.19 1492.45 2040 1490.87 2040 1488.81C2040 1487.14 2038.78 1485.71 2037.14 1485.39C2036.12 1485.19 2035.1 1484.98 2034.09 1484.76C2025.13 1482.79 2016.25 1482.49 2007.24 1482.03C1988.42 1481.1 1969.6 1479.83 1950.8 1478.3C1913.48 1475.26 1876.19 1470.94 1838.95 1465.51C1765.67 1454.79 1692.83 1436.83 1619.47 1428C1583.2 1423.64 1546.9 1419.76 1510.71 1413.3C1492.23 1409.99 1473.78 1405.89 1455.42 1400.72C1438.24 1395.88 1420.78 1390.91 1404.15 1381.51C1374.5 1364.71 1346.81 1338.37 1317.68 1318.94C1302.8 1308.99 1287.52 1301.28 1271.86 1296.88C1254.67 1292.04 1237.14 1291.2 1219.78 1290.81C1188.15 1290.07 1156.42 1291.8 1125.23 1280.49C1099.28 1271.11 1074.98 1248.09 1051.78 1225.59C1023.49 1198.13 995.062 1166.12 964.93 1143.9C958.43 1139.11 962.206 1126.42 970.169 1127.77C1015.26 1135.41 1059.73 1151.63 1104.52 1163.35C1128.39 1171.45 1150.52 1194.02 1172.61 1211.41C1196.56 1230.26 1221.65 1240.97 1247.2 1249.75C1275.91 1259.63 1304.95 1268.31 1332.02 1289.23C1345.64 1299.75 1358.42 1313.7 1371.97 1324.64C1384.69 1334.91 1397.75 1343.72 1411 1351.36C1464.41 1382.15 1520.71 1390.08 1576.38 1392.16C1637.14 1394.44 1697.85 1393.27 1758.6 1397.88C1789.43 1400.2 1820.3 1402.85 1851.04 1407.67C1883.47 1412.73 1916.11 1411.11 1948.51 1406.55C1962.14 1404.62 1975.7 1401.32 1989.35 1400.55C2000.63 1399.89 2011.92 1400.07 2023.19 1399.85C2027.79 1399.74 2032.38 1399.59 2036.98 1399.31C2038.68 1399.2 2040 1397.78 2040 1396.07C2040 1394.18 2038.4 1392.69 2036.51 1392.79C2032.07 1393.04 2027.63 1393.17 2023.19 1393.27C2011.92 1393.54 2000.63 1393.38 1989.35 1393.98C1975.7 1394.68 1962.12 1398.01 1948.51 1399.98C1916.09 1404.65 1883.49 1405.89 1851.04 1401.1C1820.28 1396.52 1789.43 1393.67 1758.6 1391.3C1697.85 1386.64 1637.14 1387.73 1576.38 1385.59C1519.78 1383.59 1462.91 1374.85 1408.73 1343.15C1395.19 1335.22 1381.93 1325.75 1368.97 1315.02C1355.88 1304.17 1343.48 1290.77 1330.17 1280.75C1303.47 1260.64 1274.66 1252.54 1246.46 1242.83C1220.73 1233.98 1195.71 1222.61 1171.64 1203.53C1160.54 1194.73 1149.39 1184.67 1138.01 1175.93C1136.06 1174.43 1137.56 1171 1139.98 1171.45C1173 1177.67 1205.31 1175.82 1237.56 1169.3C1238.1 1169.19 1238.67 1169.45 1239.21 1169.37C1254.83 1167.58 1270.64 1177.92 1285.02 1187.89C1302.38 1199.96 1319.14 1214.81 1335.94 1229.31C1343.06 1235.47 1350.19 1241.6 1357.43 1247.28C1366.33 1254.27 1374.91 1262.24 1383.57 1270.22C1403.14 1288.22 1422.84 1305.84 1443.34 1319.99C1464.21 1334.41 1485.88 1344.35 1508.09 1348.54C1533.03 1353.23 1558.2 1354.15 1583.25 1353.16C1632.43 1351.23 1681.34 1340.8 1730.34 1333.73C1754.92 1330.18 1779.54 1327.57 1804.2 1327.16C1825.2 1326.81 1846.18 1328.67 1867.13 1330.6C1909.97 1334.56 1953.35 1340.21 1996.09 1330.73C2004.57 1328.86 2013.01 1326.21 2021.33 1322.62C2023.31 1321.77 2024.93 1319.15 2027.02 1319.65C2029.11 1320.14 2031.19 1320.33 2032.9 1319.44C2035.16 1318.26 2036.17 1313.51 2035.04 1309.78C2034.87 1309.19 2035.64 1308.36 2036.19 1308.64C2036.92 1309 2037.66 1309.36 2038.39 1309.73C2039.13 1310.09 2040 1309.55 2040 1308.73V1107.55C2040 1099.12 2034.69 1091.65 2026.88 1088.47C1989.57 1073.31 1953.04 1051.19 1917.87 1023.97ZM-211.102 991.039C-211.139 991.006 -211.177 990.975 -211.206 990.935C-213.932 987.166 -216.671 983.439 -219.433 979.756C-216.632 983.459 -213.855 987.205 -211.102 991.039C-210.552 991.477 -210.001 991.937 -209.45 992.376C-208.845 992.836 -209.546 993.197 -209.989 992.579C-210.36 992.062 -210.731 991.548 -211.102 991.039ZM1752.59 1062.26C1756.55 1068.76 1756.36 1077.29 1750.62 1082.28C1728.15 1101.8 1700.14 1096.97 1676.57 1088.4C1661.66 1082.97 1647.24 1074.95 1633.16 1064.48C1617.34 1052.71 1601.62 1039.76 1584.46 1036.3C1568.51 1033.08 1552.16 1037.92 1536.43 1042.41C1521.47 1046.69 1506.72 1050.52 1491.56 1050.87C1480.66 1051.14 1469.46 1050.26 1458.26 1050.16C1457.9 1050.15 1457.84 1049.63 1458.19 1049.56C1466.91 1047.52 1475.7 1046.4 1484.45 1044.52C1493.25 1042.63 1502.01 1040.14 1510.76 1037.53C1529.04 1032.07 1547.28 1026.09 1565.77 1023.59C1582.16 1021.4 1598.92 1022 1615.03 1028.33C1624.32 1032.01 1633.5 1036.54 1642.75 1040.42C1663.64 1049.23 1686.86 1058.52 1708.2 1049.78C1720.34 1044.79 1741.33 1043.13 1747.94 1054.47C1749.47 1057.09 1751.02 1059.69 1752.59 1062.26ZM1504.86 1056.59C1522.74 1054.57 1540.29 1046.97 1558.09 1043.62C1567.17 1041.93 1576.4 1041.25 1585.49 1043.07C1594.19 1044.85 1602.68 1049.71 1610.88 1055.16C1625.06 1064.61 1638.65 1076.83 1653.17 1084.61C1665.23 1091.05 1677.55 1096.11 1690.01 1099.16C1713.82 1104.96 1741.04 1104.66 1761.45 1078.37C1761.81 1077.9 1762.51 1077.93 1762.85 1078.41C1768.35 1086.71 1774 1094.65 1779.73 1102.36C1785.34 1109.9 1785.4 1120.74 1777.55 1125.9C1770.3 1130.65 1762.58 1133.06 1754.89 1134.14C1740.52 1136.18 1725.99 1133.66 1711.79 1129.67C1698.53 1125.95 1685.41 1120.58 1672.37 1114.89C1655.31 1107.44 1639.05 1096.75 1622.8 1084.76C1606.23 1072.56 1589.43 1058.06 1571.54 1054.09C1554.94 1050.41 1538.24 1056.46 1521.87 1060.77C1496.55 1067.43 1470.96 1061.28 1445.57 1059.02C1444.52 1058.93 1444.5 1057.56 1445.55 1057.49C1448.92 1057.27 1452.29 1057.16 1455.65 1057.11C1472.05 1056.87 1488.47 1058.45 1504.86 1056.59ZM1461.84 1067.3C1474.75 1068.79 1487.69 1070.52 1500.64 1070.46C1514.55 1070.39 1528.14 1065.33 1541.89 1062.09C1559.39 1057.97 1576.41 1058.98 1593.04 1070.68C1610.28 1082.79 1627.37 1095.94 1644.77 1107.2C1658.77 1116.24 1673.25 1122.34 1687.73 1128.08C1701.49 1133.53 1715.4 1137.96 1729.43 1140.15C1743.53 1142.36 1759.01 1142.55 1773.09 1135.53C1784.74 1129.71 1800.41 1129.13 1808.49 1139.34C1810.94 1142.43 1813.38 1145.52 1815.82 1148.63C1822.87 1157.61 1820.74 1170.91 1810.03 1174.89C1783.1 1184.88 1754.67 1179.7 1727.85 1170.84C1711.59 1165.49 1695.36 1158.81 1679.39 1151.1C1662.92 1143.15 1647.12 1131.03 1631.45 1118.94C1616.08 1107.07 1600.74 1094.99 1584.78 1085.99C1568.73 1076.92 1552.22 1072.14 1535.4 1072.89C1516.72 1073.72 1498.35 1081.24 1479.7 1082.94C1470.86 1083.73 1462.04 1082.81 1453.33 1080.1C1445.71 1077.75 1438.21 1074.44 1430.64 1071.77C1425.17 1069.86 1419.47 1068.11 1413.76 1067.39C1412.85 1067.28 1412.58 1066.04 1413.39 1065.62C1413.48 1065.57 1413.58 1065.54 1413.68 1065.53C1416.73 1065.11 1419.76 1064.96 1422.65 1064.83C1435.71 1064.17 1448.8 1065.79 1461.84 1067.3ZM1434.37 1079.81C1441.75 1082.55 1449.09 1085.7 1456.55 1087.63C1465.34 1089.93 1474.19 1090.17 1483.05 1089.17C1501.7 1087.02 1520.06 1079.64 1538.79 1079.35C1555.85 1079.11 1572.44 1085.42 1588.59 1095.08C1620.63 1114.27 1650.35 1145.19 1683.27 1159.67C1715.82 1174 1748.9 1187.84 1782.59 1186.72C1798.62 1186.2 1814.74 1181.75 1829.81 1171.45C1830.72 1170.82 1832.34 1170.25 1832.99 1171.15C1834.73 1173.5 1836.45 1175.87 1838.16 1178.27C1838.9 1179.3 1839.65 1180.3 1840.4 1181.28C1846.33 1188.95 1841.1 1204.48 1831.59 1206.38C1814.08 1209.88 1796.61 1214.77 1778.96 1214.9C1760.51 1215.03 1741.97 1208 1723.86 1202.26C1705.01 1196.28 1686.24 1189.44 1667.55 1182.01C1656.97 1177.81 1646.34 1173.62 1635.79 1168.91C1627.57 1164.75 1619.36 1160.59 1611.13 1156.51C1595.92 1147.79 1581.05 1137.28 1566.05 1127.48C1550.7 1117.47 1535.13 1108.45 1519.05 1103.25C1510.99 1100.65 1502.82 1099.16 1494.63 1098.74C1486.11 1098.3 1477.63 1100.21 1469.1 1099.11C1457.07 1097.56 1445.13 1091.58 1433.2 1085.84C1426.75 1082.74 1427.66 1077.32 1434.37 1079.81ZM1869.39 1210.5C1872.05 1210.95 1874.53 1212.15 1876.69 1213.78C1876.72 1213.81 1876.76 1213.84 1876.8 1213.87C1888.26 1222.44 1883.48 1237.83 1869.31 1235.81C1858.29 1234.24 1847.27 1232.67 1836.22 1232.67C1821.89 1232.64 1807.55 1235.14 1793.25 1236.24C1788.12 1236.64 1782.98 1236.88 1777.84 1236.93C1775.17 1236.95 1772.52 1236.36 1770.08 1235.28C1744.74 1224.03 1719.57 1211.65 1694.43 1198.9C1707.62 1203.66 1720.84 1208.06 1734.11 1212.05C1751.83 1217.37 1769.37 1222.5 1787.39 1221.1C1803.23 1219.85 1818.94 1215.38 1834.69 1212.36C1846.16 1210.14 1857.87 1208.55 1869.39 1210.5ZM1527.72 1113.13C1532.1 1114.93 1529.44 1120.28 1524.96 1118.75C1509.08 1113.29 1493.09 1108.92 1477.04 1106.17C1477.02 1106.17 1477.02 1106.15 1477.04 1106.15C1485.67 1105.99 1494.13 1104.9 1502.77 1106.06C1511.18 1107.2 1519.5 1109.76 1527.72 1113.13ZM1428.26 1090.44C1434.25 1093.21 1440.26 1096.14 1446.3 1098.71C1447.74 1099.33 1446.98 1102.99 1445.41 1102.95C1443.46 1102.9 1441.51 1102.88 1439.56 1102.9C1435.03 1102.95 1430.57 1101.64 1426.88 1099C1419.74 1093.88 1412.56 1089.02 1405.14 1085.31C1403.18 1084.33 1403.82 1081.52 1405.94 1082.02C1413.47 1083.8 1420.95 1087.04 1428.26 1090.44ZM1405.75 1092.43C1406.46 1092.79 1407.17 1093.17 1407.88 1093.56C1413.55 1096.64 1411.45 1105.06 1405.09 1106.17C1402.83 1106.56 1400.51 1105.85 1398.86 1104.27C1398.28 1103.71 1397.69 1103.15 1397.11 1102.61C1389.82 1095.8 1391.11 1085.67 1400.2 1089.75C1402.12 1090.6 1403.98 1091.53 1405.75 1092.43ZM1384.67 1099.73C1389.4 1102.77 1387.54 1109.75 1382.08 1111.14C1379.7 1111.75 1377.18 1111.06 1375.3 1109.47C1371.33 1106.12 1367.2 1103.73 1362.97 1102.36C1360.28 1101.49 1359.07 1097.63 1361.29 1095.88C1361.87 1095.42 1362.46 1094.96 1363.05 1094.5C1364.16 1093.63 1365.89 1095.07 1367.29 1094.88C1373.32 1094.07 1379.1 1096.15 1384.67 1099.73ZM1353.75 1107.58C1361.78 1107.41 1360.8 1117.14 1353.17 1119.64C1352.51 1119.86 1351.85 1120.08 1351.19 1120.29C1349.64 1120.81 1347.95 1120.58 1346.57 1119.73C1345.89 1119.32 1345.21 1118.92 1344.53 1118.53C1341.91 1117.06 1341.17 1113.25 1343.35 1111.18C1344.36 1110.22 1345.37 1109.25 1346.38 1108.28C1347.07 1107.61 1348.38 1108.21 1349.33 1108.03C1350.81 1107.76 1352.29 1107.6 1353.75 1107.58ZM1335.46 1121.53C1337.71 1121.99 1337.6 1124.89 1335.43 1125.65C1335.03 1125.79 1334.63 1125.93 1334.23 1126.07C1331.71 1126.95 1329.74 1123.49 1331.76 1121.74C1331.95 1121.57 1332.13 1121.41 1332.32 1121.25C1332.39 1121.19 1332.48 1121.17 1332.57 1121.17C1333.55 1121.21 1334.51 1121.33 1335.46 1121.53ZM1438.21 1116.36C1440.57 1116.29 1442.95 1116.66 1445.11 1117.63C1455.53 1122.34 1465.3 1131.37 1474.44 1141.59C1487.38 1156.05 1499.29 1173.43 1511.29 1190.36C1522.85 1206.68 1534.52 1223.05 1547.36 1235.91C1562.31 1250.85 1579.07 1259.77 1595.78 1265.13C1630.71 1276.33 1666.43 1271.14 1701.66 1276.04C1739.36 1281.32 1776.61 1294.05 1814.33 1298.85C1830.56 1300.91 1846.68 1304.61 1862.96 1305.34C1871.32 1305.71 1879.73 1305.38 1888 1303.06C1891.78 1302.02 1895.72 1300.43 1899.27 1297.48C1902.23 1295.02 1906.03 1293.42 1909.77 1294.3C1920.45 1296.8 1931.14 1299.23 1941.83 1301.59C1942.05 1301.64 1942.07 1301.95 1941.85 1302.01C1935.45 1303.93 1929.05 1305.86 1922.6 1306.93C1914.15 1308.36 1905.49 1307.35 1897.02 1307.2C1886.77 1307 1876.54 1306.65 1866.29 1306.21C1825.14 1304.5 1784.02 1301.15 1742.88 1298.46C1722.12 1297.08 1701.37 1295.89 1680.6 1295.13C1659.87 1294.36 1639.12 1294.73 1618.39 1293.9C1577.81 1292.28 1537.19 1284.02 1497.93 1264.76C1484.07 1257.97 1471.08 1247.12 1457.98 1236.54C1443.94 1225.22 1429.97 1213.65 1415.92 1202.41C1388.88 1180.79 1361.34 1158.7 1332.57 1146.02C1330.02 1144.91 1330.03 1141.11 1332.66 1140.2C1367.6 1128.09 1402.67 1117.43 1438.21 1116.36ZM1874.8 1298.68C1862.33 1299.55 1849.82 1297.91 1837.4 1296C1826.01 1294.23 1814.62 1292.54 1803.23 1290.72C1783.9 1287.66 1764.7 1282.33 1745.48 1277.71C1726.59 1273.17 1707.6 1269.67 1688.57 1268C1670.73 1266.47 1652.85 1266.75 1635.01 1265.48C1600.74 1263.05 1566.81 1252.47 1537.68 1217.53C1520.23 1196.6 1504.49 1171.32 1487.43 1149.39C1479.1 1138.69 1470.25 1128.49 1460.87 1120.83C1459.35 1119.6 1460.31 1116.99 1462.26 1117.19C1487.09 1119.73 1511.75 1126.65 1536.19 1135.96C1537.26 1136.37 1537.87 1137.49 1538.74 1138.24C1552.34 1150.25 1563.01 1169.77 1574.46 1187.27C1580.22 1196.08 1586.28 1204.23 1592.84 1210.91C1600.11 1218.32 1608.15 1222.94 1616.12 1227.08C1632.07 1235.38 1648.6 1238.91 1665.12 1240.75C1674.22 1241.78 1683.21 1242.35 1692.2 1245.39C1700.33 1248.13 1708.3 1252.23 1716.25 1256.33C1728.46 1262.64 1740.58 1268.03 1753.15 1271.22C1767.37 1274.82 1781.69 1276.99 1795.98 1279.11C1808.88 1281.04 1821.71 1283.12 1834.53 1286.36C1840.41 1287.86 1847.12 1289.74 1853.41 1288.59C1860.52 1287.3 1867.83 1284.21 1874.84 1285.95C1880.44 1287.33 1886.04 1288.7 1891.64 1290.04C1894.36 1290.68 1895.11 1294 1892.59 1295.2C1886.72 1298 1880.14 1298.3 1874.8 1298.68ZM1842.06 1281.43C1835.03 1280.29 1828.06 1277.8 1821.02 1276.53C1801.98 1273.06 1782.86 1271.03 1763.84 1267.11C1754.64 1265.2 1745.43 1262.94 1736.38 1259.26C1728.32 1255.95 1720.43 1251.62 1712.48 1247.56C1704.45 1243.49 1696.35 1239.81 1688.11 1237.49C1679.45 1235.05 1670.68 1234.88 1661.95 1233.8C1650.12 1232.38 1638.35 1229.84 1626.76 1225.19C1614.85 1220.44 1602.76 1213.98 1592.19 1202.65C1591.45 1201.85 1590.71 1201.03 1589.98 1200.2C1577.96 1186.38 1597.75 1163.41 1614.08 1171.69C1658.77 1194.37 1703.13 1218.07 1748.02 1239.09C1749.34 1239.7 1750.09 1241.44 1751.52 1241.67C1753.52 1241.97 1755.49 1242.52 1757.32 1243.37C1760.02 1244.62 1762.71 1245.87 1765.41 1247.08C1790.72 1258.45 1816.23 1270.44 1842.04 1277.47C1842.15 1277.5 1842.26 1277.53 1842.37 1277.56C1846.58 1278.7 1846.37 1282.15 1842.06 1281.43ZM1808.29 1251.21C1803.06 1249.19 1804.26 1241.37 1809.85 1240.86C1818.24 1240.09 1826.65 1239.4 1835.07 1239.24C1861.21 1238.74 1887.18 1247.73 1913.29 1245.09C1918.35 1244.58 1923.52 1245.43 1927.86 1248.1C1931.4 1250.29 1934.95 1252.45 1938.51 1254.6C1948.81 1260.81 1946.9 1274.82 1934.88 1274.35C1918.44 1273.7 1901.93 1268.78 1885.87 1263.91C1861.27 1256.45 1836.15 1247.54 1811.14 1251.5C1810.18 1251.65 1809.2 1251.57 1808.29 1251.21ZM1725.68 1010.84C1727.2 1014.29 1727.6 1018.2 1726.3 1021.74C1716.09 1049.42 1692.85 1047.98 1676.54 1044.85C1655.66 1040.84 1635.59 1029.64 1615.12 1021.67C1580.99 1008.37 1545.82 1020.33 1511.96 1030.54C1502.81 1033.3 1493.65 1035.93 1484.45 1037.94C1475.7 1039.87 1466.92 1040.99 1458.19 1042.98C1441.77 1046.71 1425.46 1052.23 1409.4 1059.56C1408.32 1060.06 1407.2 1060.45 1406.06 1060.8C1402.35 1061.95 1398.69 1063.67 1395.31 1066.54C1395.23 1066.61 1395.14 1066.67 1395.04 1066.72C1393.43 1067.59 1392.34 1066.04 1393.87 1065.03C1399.41 1061.41 1405.12 1058.57 1410.69 1055.93C1424.65 1049.34 1438.89 1044.63 1452.64 1036.61C1459.8 1032.42 1466.53 1026.44 1473.45 1021.12C1481.26 1015.09 1489.22 1009.64 1497.29 1004.82C1512.42 995.815 1528.02 989.571 1543.86 986.57C1560.13 983.503 1576.56 984.05 1592.85 986.679C1604.66 988.585 1616.37 992.069 1628.15 994.566C1649.17 999.014 1673.54 1002.87 1693.11 984.971C1699.47 979.159 1713.48 979.695 1716.44 987.788C1719.35 995.727 1722.43 1003.4 1725.68 1010.84ZM1669.9 935.327C1679.1 929.703 1700.31 932.633 1702.87 943.11C1702.94 943.378 1703 943.647 1703.07 943.915C1703.43 945.391 1703.8 946.853 1704.18 948.306C1705.05 951.665 1705.13 955.225 1704.03 958.514C1694 988.387 1670.13 991.713 1652.55 991.215C1627.72 990.513 1603.31 980.37 1578.51 978.354C1546.45 975.747 1515.08 985.365 1485.03 1005.7C1477.05 1011.11 1469.22 1017.22 1461.47 1023.59C1455.27 1028.68 1448.67 1032.16 1442.13 1035.34C1435.88 1038.39 1429.57 1041.03 1423.27 1043.69C1421.95 1044.25 1420.75 1042.29 1421.82 1041.34C1435.04 1029.71 1447.6 1015.84 1460.19 1002.1C1485.05 974.958 1510.6 948.778 1539.88 942.71C1550.8 940.453 1561.67 941.68 1572.58 943.082C1582.93 944.397 1593.27 945.711 1603.63 946.412C1625.53 947.88 1648.89 948.209 1669.9 935.327ZM1691.83 893.792C1692.06 894.866 1691.58 896.072 1691.33 897.14C1683.23 929.324 1658.92 935.677 1641.93 938.591C1619.79 942.381 1597.43 939.708 1575.31 936.86C1565.02 935.524 1554.78 934.078 1544.47 935.392C1529.98 937.211 1515.86 943.958 1502.44 953.905C1475.87 973.6 1452.51 1004.84 1427.21 1029.05C1419.02 1036.87 1410.64 1043.99 1401.95 1049.71C1401.37 1050.09 1400.79 1050.47 1400.21 1050.85C1399.73 1051.17 1399.22 1050.53 1399.63 1050.13C1405.59 1044.3 1411.75 1039.19 1417.54 1032.8C1431.39 1017.46 1443.73 997.415 1456.67 979.691C1470.46 960.828 1484.95 944.857 1501.54 935.787C1519.25 926.125 1537.74 922.247 1556.05 918.808C1575.32 915.215 1594.67 914.842 1613.95 911.731C1632.92 908.686 1654.6 904.261 1670.67 883.754C1675.17 878 1688.56 878.617 1690.1 885.761C1690.68 888.438 1691.25 891.115 1691.83 893.792ZM1680.06 842.233C1680.42 843.626 1680.56 845.147 1680.41 846.576C1677.38 875.358 1660.64 888.857 1646.03 895.848C1625.91 905.487 1604.77 906.714 1584.09 908.423C1575.06 909.168 1566.12 910.373 1557.14 912.038C1539.19 915.346 1521.18 919.18 1503.73 927.834C1487.24 935.984 1472.66 950.509 1458.84 968.671C1452.24 977.347 1445.87 986.614 1439.44 995.728C1432.61 1005.43 1425.51 1014.35 1418.54 1023.73C1416.74 1026.15 1413.85 1023.77 1415.46 1021.21C1420.46 1013.31 1425.36 1005.17 1430.16 996.823C1441.25 977.609 1452.23 957.958 1465.22 943.06C1472.01 935.283 1479.48 928.513 1487.29 925.095C1496.74 920.933 1506.37 918.172 1516 915.872C1532.14 911.994 1548.42 909.803 1564.42 904.283C1574.89 900.668 1585.26 896.023 1595.45 890.239C1612.09 880.786 1632.6 865.643 1646.76 841.969C1653.91 830.004 1676.62 828.724 1680.06 842.233ZM1623.06 683.026C1623.23 683.491 1623.36 683.99 1623.42 684.484C1635.02 778.933 1576.47 842.693 1534.49 865.549C1516.11 875.583 1497.16 881.695 1478.5 889.735C1474.33 891.51 1470.18 893.394 1466.06 895.432C1483.45 883.689 1500.97 872.625 1518.12 859.743C1537.26 845.371 1556.11 828.633 1572.4 804.972C1587.96 782.363 1599.96 752.874 1606.23 718.216C1608.17 707.467 1609.51 696.39 1610.38 685.178C1610.9 678.326 1620.62 676.601 1623.06 683.026ZM1536.9 803.439C1553.26 780.063 1567.84 752.699 1578.4 719.793C1586.36 694.988 1591.25 667.617 1593.49 639.397C1593.96 633.522 1601.93 631.892 1604.35 637.265C1605.55 639.915 1606.72 642.588 1607.87 645.277C1608.63 647.023 1608.06 649.34 1608.06 651.242C1608 691.466 1602.6 730.703 1589.53 763.478C1577.68 793.273 1560.65 814.7 1543.02 831.635C1506.16 867.038 1465.31 885.376 1427.49 916.836C1465.07 882.418 1503.79 850.783 1536.9 803.439ZM1395.08 948.099C1398.29 944.791 1401.52 941.527 1404.76 938.328C1400.83 942.578 1396.95 947.004 1393.14 951.692C1380.09 967.751 1368.85 988.213 1357.67 1008.28C1346.36 1028.61 1334.97 1049.16 1321.61 1065.02C1315.78 1071.93 1307.52 1063.06 1312.5 1055.52C1314.11 1053.09 1315.69 1050.61 1317.26 1048.09C1341.23 1009.57 1367.35 976.799 1395.08 948.099ZM1283.9 650.3C1284.67 635.315 1285.79 620.395 1287.13 605.607C1289.68 577.389 1293.08 549.325 1297.76 522.027C1299.83 509.89 1302.28 498.279 1305.54 487.062C1308.84 475.779 1312.62 465 1316.2 454.024C1318.95 445.611 1321.6 436.979 1323.82 428.041C1320.65 452.381 1314.7 475.56 1309.06 498.169C1302.7 523.736 1296.14 549.215 1291.66 576.162C1287.69 600.086 1286.05 625.412 1283.9 650.3ZM1325.81 394.105C1322.78 434.35 1304.53 468.111 1296.89 506.034C1291.67 531.974 1288.24 559.271 1285.39 586.372C1284.74 592.44 1284.14 598.531 1283.59 604.643C1284.68 570.05 1287.25 535.457 1292.63 502.507C1297.18 474.574 1305.59 449.445 1311.92 422.827C1314.16 413.463 1316.16 403.898 1317.76 394.163C1318.6 389.039 1325.71 388.914 1325.81 394.105ZM1317.08 336.53C1317.16 336.798 1317.24 337.069 1317.31 337.34C1317.73 338.839 1317.97 340.383 1318.01 341.938C1318.83 370.837 1313.99 398.43 1307.56 424.776C1301.25 450.606 1293.36 475.034 1288.92 502.266C1283.29 536.837 1280.79 573.446 1279.83 609.836C1279.82 609.266 1279.81 608.674 1279.8 608.083C1279.37 583.107 1279.49 558.088 1280.13 533.113C1280.69 511.402 1281.53 489.384 1284.03 468.089C1287.33 439.937 1295.48 413.91 1301.5 387.576C1305.17 371.516 1308.48 354.694 1309.95 337.536C1310.29 333.609 1315.99 332.742 1317.08 336.53ZM1306.46 306.458C1306.66 306.957 1306.79 307.49 1306.82 308.027C1308.51 332.949 1304.27 357.769 1299.15 380.894C1293.2 407.819 1285.51 433.562 1281.23 461.626C1278.09 482.22 1277.44 504.479 1276.76 525.708C1276.01 548.646 1275.85 571.627 1276.05 594.609C1274.72 580.895 1272.78 567.509 1271.23 553.838C1269.29 536.815 1268.45 519.42 1268.09 502.069C1267.71 484.542 1267.95 466.994 1268.37 449.467C1268.68 436.519 1269.66 424.382 1271.78 411.982C1276.01 387.269 1282.99 364.441 1288.57 340.736C1291.05 330.235 1293.24 319.356 1294.72 308.345C1295.46 302.751 1304.34 301.229 1306.46 306.458ZM1278.58 253.322C1278.56 250.174 1284.65 249.307 1285.56 252.322C1286.84 256.595 1288.22 260.81 1289.7 264.956C1290.39 266.894 1291.1 268.804 1291.81 270.697C1292.55 272.63 1293 274.659 1293.08 276.724C1294.49 314.457 1281.01 353.551 1273.17 386.919C1270.53 398.114 1268.17 409.55 1266.61 421.424C1264.83 434.788 1264.75 448.525 1264.51 462.174C1263.91 496.022 1264.46 530.265 1268.71 563.368C1270.22 575.089 1271.83 586.613 1272.84 598.553C1273.88 610.799 1274.51 623.156 1275.13 635.468C1275.7 646.817 1276.25 658.143 1277.08 669.426C1277.53 675.538 1278.05 681.651 1278.68 687.719C1278.81 688.938 1278.96 690.174 1279.12 691.421C1279.32 693.008 1279.34 694.612 1279.15 696.202C1272.22 757.085 1263.18 819.058 1247.81 874.115C1245.04 884.039 1242.09 893.832 1238.99 903.45C1247.19 870.128 1254.61 836.148 1260.84 801.533C1270.59 747.266 1275.78 688.946 1273.27 631.809C1271.9 600.283 1268.1 569.327 1264.52 538.458C1260.54 504.216 1256.32 470.061 1253.42 435.446C1252.21 420.942 1251.69 406.79 1253.43 392.33C1254.8 380.894 1257.53 370.225 1260.56 359.972C1266.44 340.035 1273.53 320.734 1276.45 298.41C1278.37 283.775 1278.66 268.308 1278.58 253.322ZM1250.41 120.539C1250.52 120.79 1250.56 121.073 1250.56 121.347C1250.55 122.346 1250.81 123.314 1251.46 123.91C1251.92 124.277 1252.21 124.801 1252.44 125.339C1259.57 142.675 1265.36 161.893 1269.59 182.449C1270.1 184.969 1270.62 187.466 1271.12 189.986C1272.52 201.641 1273.48 213.493 1274.12 225.28C1275.2 244.997 1275.45 265.131 1274.14 284.826C1272.71 306.077 1267.29 325.006 1261.55 343.365C1255.2 363.718 1249.43 383.874 1248.69 407.754C1248.21 423.221 1250.03 438.863 1251.45 454.024C1253.08 471.309 1255.02 488.486 1257.01 505.64C1260.81 538.502 1265.15 571.277 1267.92 604.49C1270.36 633.584 1270.94 662.963 1269.56 692.298C1267.38 738.809 1260.9 783.634 1252.11 827.297C1244.09 867.17 1234.73 906.21 1224.5 944.353C1223.74 946.303 1222.99 948.274 1222.22 950.202C1215.79 966.43 1208.52 983.833 1199.69 996.531C1197.89 999.112 1194.08 998.262 1193.34 995.209C1193.05 994.032 1193.33 992.792 1194.07 991.83C1204.97 977.589 1212.97 956.588 1219.56 935.546C1228.81 906.079 1235.08 873.699 1242.55 842.677C1249.92 812.158 1258.47 781.793 1262.79 749.238C1266.94 718.04 1267.47 685.55 1266.06 653.674C1264.62 621.425 1261.04 589.57 1256.72 558.242C1254.49 542.073 1251.81 526.146 1249.62 509.978C1247.29 492.736 1245.59 475.209 1244.49 457.573C1242.39 423.966 1242.38 390.118 1247.1 357.277C1251.38 327.416 1257.76 298.651 1258.9 267.563C1260.23 231.502 1257.83 193.622 1253.36 158.525C1251.86 146.772 1249.92 133.986 1247.24 121.703C1246.81 119.737 1249.61 118.693 1250.41 120.539ZM1197.14 963.457C1202.24 950.421 1206.77 936.597 1211.19 922.773C1222.19 888.399 1232.38 853.061 1241.65 817.022C1245.06 803.724 1248.42 790.294 1251.08 776.426C1255.32 754.299 1256.87 729.958 1257.21 706.626C1258.05 648.635 1248.68 592.375 1240.56 536.969C1236.47 508.97 1232.66 480.752 1230.47 452.008C1228.33 423.944 1228.29 395.814 1230.24 367.727C1233.62 319.069 1240.89 271.572 1243.53 222.717C1245.24 190.993 1244.68 158.328 1238.7 128.117C1234.45 106.596 1227.46 87.9674 1218.8 72.1018C1218.26 71.1181 1219.5 70.2 1220.23 71.0456C1221.28 72.2766 1221.51 74.0443 1222.44 75.3642C1222.53 75.4889 1222.63 75.6054 1222.74 75.7121C1232.12 84.4973 1238.05 101.257 1242.34 118.28C1247.5 138.72 1250.36 161.132 1252.4 183.26C1254.34 204.401 1255.31 225.871 1255.49 247.298C1255.58 258.186 1255.45 269.096 1254.62 279.897C1253.44 295.299 1251.02 310.328 1248.54 325.16C1246.07 340.013 1243.5 354.823 1241.74 370.05C1239.93 385.867 1239.53 401.882 1239.59 418.007C1239.71 452.359 1242.52 486.623 1247.29 519.792C1251.85 551.647 1256.76 583.085 1259.8 615.597C1262.82 648.021 1264.12 681.125 1262.39 713.943C1260.97 741.219 1256.79 766.721 1250.88 791.784C1244.86 817.372 1238.56 842.72 1232.54 868.309C1226.78 892.824 1221.49 917.296 1213.89 940.19C1208.79 955.586 1202.7 970.669 1195.05 982.19C1193.65 984.296 1190.54 983.635 1189.97 981.171C1189.75 980.202 1190.03 979.197 1190.6 978.38C1193.29 974.502 1195.53 967.588 1197.14 963.457ZM1001.83 120.64C1003.78 106.898 1009.07 106.311 1007.67 120.12C1005.77 139.049 1002.92 157.671 999.52 175.877C995.246 198.749 989.046 219.803 982.091 240.309C977.363 254.264 972.288 267.804 967.189 281.299C962.161 294.619 956.763 307.721 952.274 321.698C943.931 347.659 940.974 377.214 937.264 406.154C935.265 421.687 932.847 437.045 929.352 451.702C926.179 465 922.541 477.948 918.662 490.611C910.858 516.046 901.821 540.167 892.52 563.85C873.954 611.128 854 657.157 838.727 708.204C845.705 675.779 854.647 644.713 864.51 614.809C872.506 590.578 881.017 566.961 889.228 542.993C897.715 518.215 906.812 492.867 912.941 465.811C919.548 436.629 921.846 404.906 925.88 374.409C927.975 358.526 930.536 343.453 934.834 329.103C938.844 315.739 943.632 303.229 948.623 291.07C956.942 270.783 965.992 251.526 973.832 230.582C981.672 209.593 988.316 186.875 993.75 163.498C996.937 149.789 999.735 135.386 1001.83 120.64ZM994.54 23.4609C994.798 23.6279 995.052 23.8027 995.301 23.985C998.164 26.0745 999.493 29.5756 999.963 33.0885C1007.37 88.5598 995.471 148.277 980.93 196.624C972.874 223.439 962.82 247.298 952.49 271.265C942.59 294.225 931.626 318.85 926.419 346.893C920.829 376.951 918.698 408.674 914.066 439.192C909.517 469.206 900.839 495.584 892.089 522.005C876.001 570.576 857.998 617.043 844.341 668.177C837.171 695.037 831.329 723.035 827.056 751.889C826.422 756.139 825.847 760.433 825.296 764.727C825.931 732.303 826.122 699.791 831.329 668.528C833.604 654.901 836.883 641.646 839.972 628.567C843.263 614.589 846.759 600.787 850.445 587.138C857.879 559.6 866.15 532.74 875.702 507.458C880.334 495.211 885.685 483.951 890.198 471.55C894.998 458.384 898.876 444.187 902.455 429.837C906.034 415.443 909.278 400.787 912.773 386.327C916.388 371.408 920.494 356.927 924.552 342.401C932.751 313.088 942.722 285.593 953.136 258.821C961.79 236.606 970.816 215.268 977.95 191.234C986.161 163.608 992.649 133.813 996.06 102.944C998.964 76.6981 999.363 48.9019 994.469 23.5009C994.46 23.4519 994.498 23.4349 994.54 23.4609ZM867.922 187.926C868.241 188.694 868.277 189.584 867.854 190.301C855.792 210.769 843.766 231.304 833.113 254.264C822.545 277.034 815.996 304.15 810.717 332.395C809.168 340.677 802.296 340.085 803.69 331.776C807.629 308.159 814.643 286.601 822.112 266.204C829.725 245.392 837.961 225.324 845.813 204.817C849.045 196.383 852.145 187.554 853.474 177.41C854.112 172.487 861.039 170.759 862.903 175.36C864.607 179.566 866.265 183.799 867.922 187.926ZM623.602 832.139C631.55 822.718 639.51 813.341 647.326 803.548C652.21 797.436 656.328 789.527 660.625 782.122C666.323 772.329 671.949 762.405 677.431 752.195C688.12 732.259 697.971 710.876 706.434 687.61C714.574 665.198 720.966 640.989 727.346 616.824C739.005 572.701 750.448 527.395 767.433 489.121C770.796 481.545 775.11 484.859 772.066 492.569C770.703 496.02 769.386 499.559 768.116 503.186C754.518 542.051 746.761 586.744 738.49 629.991C729.046 679.372 718.668 728.71 701.826 771.453C683.99 816.715 659.572 851.002 632.903 877.27C626.618 883.47 619.891 888.114 613.284 892.978C603.564 900.164 593.809 907.152 584.041 914.097C578.945 917.716 572.387 911.95 575.244 906.391C582.025 893.198 588.681 879.799 595.249 866.245C595.875 864.954 596.664 863.749 597.598 862.66C606.284 852.533 614.959 842.365 623.602 832.139ZM612.099 837.879C610.974 839.204 608.831 837.815 609.573 836.242C615.668 823.312 621.719 810.304 627.755 797.283C648.057 753.444 668.226 709.387 689.449 667.016C696.293 653.349 703.533 640.284 710.666 627.051C712.802 623.089 720.9 626.148 719.733 630.495C712.934 655.777 705.465 680.117 696.212 702.727C686.935 725.402 676.126 745.82 664.994 765.45C662.241 770.314 659.464 775.111 656.675 779.909C653.826 784.817 651.025 790.798 647.841 794.916C644.908 798.729 641.904 802.365 638.899 806.002C630.018 816.781 621.064 827.341 612.099 837.879ZM762.044 465.081C760.884 466.923 757.897 466.174 757.645 464.012C757.589 463.531 757.691 463.063 757.942 462.649C763.049 454.221 769.616 447.721 775.453 441.931C777.817 439.584 779.334 441.573 777.182 444.115C771.871 450.389 766.828 457.484 762.044 465.081ZM770.068 461.466C773.215 456.954 777.2 460.59 774.547 465.409C771.517 470.912 768.632 476.713 765.871 482.76C764.54 485.676 758.196 484.108 758.283 480.904C758.295 480.464 758.415 480.025 758.634 479.643C762.278 473.288 766.087 467.171 770.068 461.466ZM774.328 435.577C769.509 440.219 764.232 445.495 759.573 451.794C758.38 453.408 755.682 452.881 755.142 450.948C754.934 450.199 755.122 449.421 755.647 448.848C765.177 438.465 775.419 430.277 786.023 424.382C786.095 424.338 786.164 424.298 786.248 424.304C786.26 424.305 786.272 424.306 786.284 424.307C786.771 424.341 786.938 424.964 786.536 425.242C782.277 428.189 778.168 431.883 774.328 435.577ZM757.105 439.756C755.158 441.741 751.715 441.04 750.482 438.548C749.799 437.169 749.982 435.556 751.047 434.446C757.715 427.497 765.238 424.592 772.935 423.392C773.01 423.38 773.085 423.377 773.161 423.381C774.162 423.445 774.527 424.768 773.716 425.359C768.021 429.502 762.458 434.298 757.105 439.756ZM749.555 428.598C748.14 430.036 745.509 430.152 744.276 428.555C744.197 428.454 744.119 428.353 744.04 428.252C742.351 426.098 743.569 422.724 746.304 422.592C746.562 422.579 746.821 422.568 747.079 422.557C750.059 422.432 751.647 426.471 749.555 428.598ZM805.386 425.956C805.324 426.004 805.239 425.957 805.243 425.878C805.246 425.826 805.29 425.784 805.343 425.784H805.428C805.435 425.784 805.443 425.786 805.45 425.788C805.5 425.802 805.523 425.847 805.482 425.88C805.45 425.907 805.418 425.932 805.386 425.956ZM807.191 424.541C807.079 424.626 806.91 424.504 806.946 424.369C806.961 424.312 807.009 424.268 807.067 424.264C807.078 424.263 807.09 424.262 807.101 424.261C807.244 424.251 807.318 424.444 807.204 424.531C807.199 424.534 807.195 424.538 807.191 424.541ZM586.782 919.158C596.478 912.257 606.162 905.312 615.797 898.17C622.776 893 629.742 887.895 636.374 881.301C662.528 855.361 686.037 821.272 703.873 777.412C720.93 735.457 731.452 686.186 740.896 637.243C749.179 594.281 756.696 550.245 769.672 511.051C782.021 473.744 799.625 445.288 820.708 426.205C823.502 423.676 827.052 422.18 830.788 421.685C831.922 421.535 833.056 421.383 834.19 421.227C834.675 421.165 834.938 421.834 834.54 422.119C817.662 434.201 802.756 453.848 790.464 478.934C773.981 512.541 762.514 553.444 753.129 594.894C743.601 636.936 736.371 680.533 728.83 723.846C720.559 771.387 712.24 819.563 697.397 861.868C689.82 883.448 680.292 903.056 668.382 916.858C654.939 932.391 638.217 939.467 622.955 946.237C606.545 953.51 589.966 959.557 573.878 969.087C557.073 979.077 541.308 994.238 526.082 1010.47C516.59 1020.59 507.289 1031.33 497.953 1041.95C494.134 1046.31 490.412 1050.65 486.33 1054.09C485.384 1054.89 484.436 1055.68 483.486 1056.46C482.499 1057.27 481.223 1055.99 482.009 1054.99C508.24 1021.44 532.655 984.49 555.461 943.507C556.81 941.082 558.696 939.007 560.963 937.408C569.581 931.361 578.188 925.271 586.782 919.158ZM846.411 143.409C846.93 144.089 847.443 144.793 847.945 145.511C848.323 146.051 848.485 146.701 848.59 147.352C850.278 157.89 851.247 168.494 849.488 179.207C847.704 190.073 843.491 199.603 839.936 208.673C832.047 228.851 823.956 248.897 816.558 269.688C809.364 289.887 803.08 311.401 799.477 334.668C796.047 356.727 795.752 379.778 798.435 402.04C798.536 402.88 798.514 403.73 798.362 404.562C798.183 405.545 798.003 406.527 797.822 407.508C797.426 409.645 795.581 411.2 793.408 411.184C791.35 411.169 789.541 409.781 789.062 407.78C781.91 377.866 787.423 345.33 795.371 317.229C805.007 283.183 818.15 253.038 828.911 220.241C836.194 198.082 843.403 170.942 841.158 145.773C840.898 142.861 844.629 141.091 846.411 143.409ZM833.596 129.132C833.977 129.513 834.269 129.98 834.435 130.493C842.011 153.913 836.294 182.046 829.546 204.971C819.706 238.425 806.575 268.22 796.149 301.039C786.254 332.197 778.007 369.425 784.505 404.316C785.139 407.718 782.533 410.964 779.08 410.733C775.791 410.504 772.493 410.258 769.193 410.039C768.398 409.986 767.816 409.283 767.673 408.499C761.903 374.804 772.688 340.32 782.312 312.803C794.186 278.845 808.455 247.648 818.809 211.916C823.621 195.265 827.475 177.344 828.409 158.438C828.839 149.632 828.422 140.907 827.251 132.535C826.766 129.063 831.117 126.654 833.596 129.132ZM815.972 111.839C816.039 111.91 816.106 111.98 816.174 112.051C818.408 114.388 820.154 117.168 820.974 120.296C823.993 131.812 825.337 144.313 824.854 157.474C824.207 175.11 820.389 192.067 815.996 207.6C805.845 243.442 791.505 274.705 779.559 308.509C770.39 334.446 760.562 366.355 762.786 398.249C763.198 404.16 758.498 409.364 752.573 409.349C748.38 409.338 744.512 406.731 743.777 402.603C741.572 390.223 743.189 376.573 745.744 364.331C749.885 344.526 756.864 326.605 763.878 309.911C771.264 292.275 779.391 275.691 787.543 259.238C795.228 243.727 803.008 228.763 808.909 210.667C814.739 192.812 818.126 172.547 816.51 151.69C815.527 138.942 813.157 126.761 810.292 114.947C809.48 111.6 813.592 109.35 815.972 111.839ZM800.762 95.9025C801.208 96.3203 801.573 96.9008 801.735 97.4897C807.36 117.993 813.28 139.652 813.362 162.929C813.458 188.474 805.199 212.88 796.353 231.524C781.414 262.962 765.303 292.516 752.626 327.307C745.155 347.789 735.892 377.604 740.045 403.168C740.611 406.656 738.256 410.05 734.764 410.592C730.935 411.187 727.318 408.165 727.733 404.311C729.966 383.576 734.627 363.7 739.902 345.052C747.156 319.42 756.134 295.43 765.698 272.536C773.311 254.286 782.132 237.702 789.386 218.97C795.814 202.32 801.081 183.632 803.714 163.739C805.809 147.944 805.905 130.746 802.314 115.651C800.899 109.721 799.003 104.45 796.753 99.7764C795.196 96.5437 798.146 93.448 800.762 95.9025ZM760.347 240.966C778.238 197.189 802.772 135.415 780.052 85.9467C780.019 85.8756 780.058 85.7971 780.135 85.784C780.179 85.7764 780.226 85.7859 780.259 85.8156C790.17 94.6025 798.321 108.239 800.854 128.708C803.248 148.119 799.956 168.91 795.551 186.524C790.811 205.431 784.072 221.533 776.734 237.242C767.206 257.616 758.216 278.889 750.053 301.17C738.1 333.781 726.538 371.168 723.5 410.815C723.387 412.29 722.455 413.53 721.086 414.091C717.872 415.408 713.781 412.456 714.672 409.098C720.744 386.224 725.601 362.257 730.757 338.655C738.502 303.229 747.862 271.506 760.347 240.966ZM585.406 236.935C595.329 236.672 604.905 238.819 614.66 233.977C626.726 227.996 636.853 213.23 647.003 200.589C656.543 188.693 665.928 182.646 677.06 177.936C688.084 173.27 699.156 168.932 710.097 163.608C720.468 158.535 731.536 152.436 741.581 143.32C744.496 140.674 749.963 143.435 749.047 147.264C748.296 150.404 747.527 153.523 746.74 156.627C746.582 157.252 745.485 157.299 744.846 157.211C731.068 155.305 717.279 162.951 704.543 171.846C690.095 181.945 676.306 194.959 662.648 208.191C656.208 214.435 649.78 220.745 643.281 226.813C636.362 233.298 629.503 240.112 622.106 244.603C614.241 249.379 606.197 250.014 598.01 248.787C590.756 247.692 583.538 245.413 576.237 245.676C574.106 245.762 572.524 243.292 574.095 241.851C577.393 238.827 581.096 237.055 585.406 236.935ZM560.077 265.701C560.594 264.412 561.116 263.156 561.643 261.931C563.383 257.893 566.56 254.513 570.796 253.336C573.889 252.476 577.036 252.107 580.27 252.315C587.991 252.797 595.616 255.426 603.337 255.973C619.077 257.112 632.4 244.362 646.01 231.633C672.667 206.723 699.276 175.57 729.129 165.492C734.312 163.739 739.591 163.06 744.846 163.783C744.864 163.783 744.877 163.8 744.873 163.818C744.026 167.028 743.16 170.212 742.276 173.376C741.331 176.756 738.171 178.962 734.682 179.348C704.825 182.648 678.132 217.544 653.24 244.69C640.12 258.975 625.828 272.558 610.734 278.057C594.383 283.994 577.637 275.253 561.25 280.445C558.555 281.309 555.182 278.712 556.14 276.05C557.404 272.54 558.714 269.084 560.077 265.701ZM542.098 324.524C544.048 316.134 546.176 307.868 548.495 299.803C549.364 296.779 550.909 293.93 553.368 291.967C567.529 280.656 583.94 286.975 599.099 286.732C614.564 286.47 628.354 275.318 642.107 263.553C649.146 257.529 655.777 249.62 662.409 242.259C669.483 234.394 676.557 226.507 683.775 219.102C698.079 204.379 713.281 191.256 729.656 186.831C731.693 186.264 733.751 185.931 735.814 185.769C737.254 185.656 738.298 187.048 737.879 188.431C737.592 189.378 737.303 190.324 737.012 191.268C736.789 191.994 735.5 192.101 734.791 192.374C703.011 205.19 676.401 239.608 649.337 270.871C635.021 287.39 619.927 305.442 603.468 313.723C586.926 322.07 569.474 320.778 552.751 327.46C551.423 327.988 550.106 328.586 548.801 329.25C545.527 330.915 541.262 328.101 542.098 324.524ZM537.837 344.055C537.929 343.605 538.336 343.281 538.675 342.971C554.511 329.475 572.155 329.607 589.14 325.422C597.83 323.275 606.353 319.945 614.469 313.789C622.177 307.962 629.527 300.228 636.733 292.604C664.731 262.896 690.55 225.061 721.54 205.869C722.501 205.276 723.465 204.707 724.433 204.16C728.286 201.981 732.43 205.719 731.024 209.917C730.153 212.516 729.272 215.104 728.379 217.676C728.15 218.337 727.08 218.455 726.412 218.663C693.148 229.683 664.204 265.438 636.793 299.68C623.039 316.856 609.453 335.15 594.802 349.719C587.74 356.751 580.354 362.491 572.681 366.895C564.626 371.495 556.45 373.73 548.119 375.811C541.392 377.479 532.539 371.741 533.789 364.924C535.073 357.927 536.417 350.966 537.837 344.055ZM526.824 406.352C527.166 404.167 527.511 401.987 527.859 399.811C528.534 395.591 530.465 391.575 533.937 389.084C539.556 385.055 545.488 382.929 551.602 381.551C559.73 379.689 567.654 376.775 575.458 372.175C590.876 363.083 604.33 347.462 617.748 331.25C646.07 296.964 673.445 257.682 705.608 235.927C713.03 230.889 720.942 238.389 717.716 246.759C717.578 247.117 717.44 247.475 717.302 247.833C715.856 251.571 712.459 254.125 708.64 255.337C699.679 258.183 691.001 264.054 682.71 270.717C669.555 281.277 657.118 294.838 645.244 309.561C634.195 323.275 623.578 338.326 613.679 354.736C609.082 362.382 604.845 370.685 600.236 378.309C594.515 387.73 588.398 396.296 581.886 403.788C572.855 414.165 563.149 421.457 553.121 427.107C539.572 434.74 524.428 421.717 526.824 406.352ZM508.845 497.337C511.698 484.752 514.478 472.128 517.103 459.413C518.514 452.576 523.349 446.971 529.875 444.489C540.175 440.572 550.427 436.187 560.352 429.815C573.136 421.622 584.831 409.484 595.472 394.214C605.814 379.361 614.612 361.308 624.727 345.907C635.692 329.213 647.386 314.096 659.572 300.513C669.076 289.909 678.987 280.291 689.329 272.689C689.821 272.327 690.314 271.97 690.81 271.617C698.981 265.793 706.833 273.915 702.904 283.148C701.341 286.822 698.068 289.387 694.293 290.685C675.671 297.088 659.026 313.633 644.262 335.654C627.42 360.739 613.344 391.301 598.405 419.935C586.543 442.675 573.986 464.759 559.048 480.621C544.6 496.015 528.466 503.106 511.894 501.686C509.754 501.503 508.379 499.433 508.845 497.337ZM506.345 508.29C506.468 507.754 507.298 507.646 507.84 507.743C529.338 511.38 549.759 500.535 567.582 478.605C585.19 456.938 599.518 427.581 613.87 399.319C632.003 363.59 651.51 326.798 675.861 307.713C683.475 301.745 691.297 309.762 687.313 318.578C685.648 322.264 683.975 325.944 682.299 329.618C682.079 330.098 681.431 330.242 680.926 330.396C652.629 340.473 631.478 375.549 613.559 414.852C604.605 434.504 596.286 455.097 587.297 474.705C579.409 491.903 569.605 506.691 559.67 519.771C549.926 532.587 539.393 543.848 528.093 551.45C518.038 558.198 506.811 561.966 496.349 556.051C495.998 555.867 495.568 555.462 495.654 555.076C499.153 539.435 502.779 523.871 506.345 508.29ZM487.922 591.213C489.857 581.659 491.887 572.162 493.963 562.724C494.071 562.232 494.956 562.151 495.391 562.404C507.014 568.955 519.439 564.42 530.547 556.752C543.403 547.901 555.241 534.318 566.122 519.157C575.794 505.706 584.747 490.698 592.48 473.544C601.385 453.739 609.729 433.123 618.814 413.603C628.134 393.577 638.425 375.057 650.19 360.923C658.372 351.093 668.441 359.758 663.102 371.38C661.459 374.957 659.819 378.538 658.183 382.123C657.98 382.569 657.422 382.752 656.986 382.975C644.549 389.46 633.657 401.751 624.356 418.072C615.247 434.065 607.921 453.17 600.631 471.901C593.031 491.421 585.358 510.942 575.901 527.636C565.38 546.236 552.56 561.593 540.075 575.374C528.722 587.898 516.213 599.539 503.123 605.835C493.897 610.272 485.891 601.247 487.922 591.213ZM471.26 669.448C474.172 657.702 476.808 645.769 479.318 633.75C481.302 624.248 490.011 617.714 499.065 614.214C507.947 610.781 516.569 604.803 524.778 597.83C539.046 585.693 552.332 569.743 564.913 552.567C575.602 537.998 584.711 521.611 592.875 502.31C600.775 483.666 607.778 463.795 615.809 445.326C623.538 427.546 634.744 434.893 627.541 452.893C616.295 480.997 605.979 510.199 597.376 541.416C596.915 543.102 595.946 544.689 594.402 545.508C582.641 551.755 572.032 563.401 561.382 574.476C549.089 587.248 536.089 596.669 523.509 608.324C505.525 624.949 487.904 645.577 472.362 669.918C471.991 670.5 471.096 670.119 471.26 669.448ZM270.307 734.192C270.442 733.809 270.614 733.441 270.821 733.091C273.638 728.332 276.612 723.797 279.776 719.486C290.944 704.37 303.56 693.131 316.392 683.688C342.857 664.212 370.388 650.607 395.657 625.872C395.803 625.731 395.949 625.579 396.094 625.431C396.133 625.392 396.181 625.427 396.16 625.478C388.99 644.691 375.751 654.616 364.332 662.591C352.05 671.157 339.314 677.401 327.189 686.711C312.095 698.301 297.707 713.089 285.15 732.39C274.401 748.909 265.854 770.073 256.985 789.834C256.159 791.671 253.277 790.662 253.792 788.715C258.738 770.004 264.102 751.701 270.307 734.192ZM240.084 844.475C240.339 843.396 240.984 842.39 241.268 841.318C243.483 832.423 246.762 824.405 249.946 816.606C254.208 806.155 258.768 796.099 263.329 786.066C272.737 765.34 281.703 744.725 293.601 728.447C306.313 711.052 320.857 697.512 335.747 687.588C348.268 679.241 361.112 672.603 373.369 662.919C380.505 657.276 387.81 650.364 393.615 640.601C394.226 639.573 395.938 640.07 395.848 641.262C395.84 641.358 395.82 641.452 395.788 641.542C388.371 662.495 375.51 675.825 363.637 686.865C356.958 693.065 350.111 698.476 343.647 705.465C337.1 712.519 330.947 720.779 325.118 729.717C312.968 748.383 302.746 770.204 292.536 792.266C281.415 816.321 269.745 839.522 257.475 861.627C250.655 873.898 234.779 866.879 238.015 853.218C238.705 850.305 239.394 847.39 240.084 844.475ZM219.308 799.034C219.686 794.952 224.638 793.205 228.123 795.363C230.501 796.835 231.471 799.715 230.355 802.279C227.583 808.648 224.724 814.907 221.709 821.009C221.018 822.392 219.014 822.006 218.919 820.463C218.479 813.333 218.653 806.125 219.308 799.034ZM287.125 813.758C292.619 802.365 297.982 790.754 303.213 778.967C308.168 767.838 313.938 757.629 319.588 747.682C330.935 727.746 343.647 711.468 357.904 699.243C370.636 688.318 384.88 675.44 394.467 655.56C394.525 655.439 394.723 655.49 394.723 655.624C394.723 655.909 394.7 656.171 394.7 656.456C394.436 659.83 394.149 663.16 393.838 666.446C392.234 677.116 388.643 686.668 384.812 695.212C379.569 706.867 373.489 717.142 367.54 727.549C355.019 749.457 342.846 772.022 331.63 796.187C320.713 819.717 311.747 845.941 300.855 869.47C291.339 889.998 280.314 907.854 268.021 922.664C254.351 939.117 239.209 950.334 224.642 963.742C224.343 964.016 224.045 964.292 223.746 964.569C218.409 969.521 207.505 963.087 209.883 956.205C212.317 949.177 214.621 942.006 216.825 934.76C217.591 932.243 218.836 929.901 220.468 927.837C245.469 896.22 267.127 855.174 287.125 813.758ZM372.485 727.993C375.174 723.321 384.395 726.472 383.125 731.711C368.042 774.914 349.154 813.626 330.469 851.593C319.241 874.422 307.893 897.053 297.096 920.582C287.903 940.606 276.999 956.49 264.562 969.328C244.864 989.675 222.714 1002.06 201.899 1018.65C197.256 1022.35 188.449 1016.44 190.524 1010.87C190.675 1010.47 190.88 1010.07 191.127 1009.71C202.315 993.572 214.573 980.349 227.335 968.605C241.902 955.197 256.913 943.893 270.583 927.44C282.624 912.936 293.385 895.278 302.806 875.342C313.806 852.097 322.688 825.873 333.497 802.3C345.311 776.535 358.323 752.721 371.609 729.52C371.899 729.014 372.191 728.505 372.485 727.993ZM215.657 785.531C216.593 786.418 217.024 787.686 216.837 788.962C214.899 802.21 214.435 816.228 216.147 829.629C216.292 830.763 216.086 831.937 215.548 832.946C213.05 837.635 206.417 836.065 206.334 830.753C206.259 825.898 206.298 821.043 206.423 816.233C206.67 807.119 207.225 795.61 209.762 786.816C210.508 784.232 213.704 783.682 215.657 785.531ZM208.13 777.772C208.373 778.047 208.436 778.436 208.295 778.775C204.492 787.943 203.516 801.25 202.988 812.136C202.367 825.163 202.608 838.736 203.805 851.729C203.901 852.765 203.656 853.825 203.114 854.713C200.515 858.975 193.672 856.54 193.795 851.549C194.058 841.143 194.226 830.715 194.789 820.33C195.645 804.64 197.592 782.263 207.092 777.55C207.446 777.375 207.868 777.477 208.13 777.772ZM201.408 770.642C201.718 770.713 202.072 770.769 202.275 771.014C202.41 771.178 202.546 771.341 202.682 771.503C203.247 772.175 203.154 773.174 202.541 773.802C195.307 781.211 192.755 798.972 191.641 813.648C190.791 824.756 190.563 835.973 190.312 847.168C190.108 855.997 190.132 865.22 188.899 873.83C188.878 873.99 188.862 874.146 188.851 874.298C188.766 875.547 188.629 876.891 187.907 877.914C185.474 881.356 179.678 878.865 180.079 874.669C180.174 873.673 180.265 872.684 180.353 871.705C181.693 856.829 182.22 841.734 183.142 826.771C184.339 807.163 185.991 767.334 201.408 770.642ZM-24.5888 746.287C-24.3487 745.338 -23.9458 744.441 -23.3975 743.631C-4.08084 715.079 14.7944 686.723 38.9751 672.208C51.0906 664.93 63.5022 661.363 75.8537 661.175C77.6494 661.147 77.658 663.39 75.8906 663.708C63.5974 665.921 51.1606 670.039 39.5497 677.926C26.8495 686.536 15.7054 700.908 5.77029 717.558C-0.496918 728.067 -6.28976 739.46 -11.9655 751.065C-16.273 759.872 -26.9944 755.791 -24.5888 746.287ZM-52.4039 822.652C-51.159 818.183 -49.9261 813.67 -48.7171 809.179C-50.2134 814.787 -51.7336 820.374 -53.3016 825.917C-53.0024 824.843 -52.7031 823.748 -52.4039 822.652ZM-53.8379 827.045C-53.7693 826.814 -53.5771 826.892 -53.6406 827.125C-53.7065 827.365 -53.919 827.327 -53.8501 827.087C-53.8461 827.073 -53.842 827.059 -53.8379 827.045ZM-44.5905 823.798C-44.0316 821.748 -43.1478 819.802 -42.0058 818.011C-24.2412 790.141 -10.4132 754.827 6.53638 725.248C16.651 707.59 28.1422 692.649 41.3092 683.71C53.0877 675.714 65.8597 671.902 78.3205 669.864C82.0125 669.261 83.5021 677.943 80.4183 680.061C67.4444 688.97 55.1396 702.78 44.0982 717.777C32.4155 733.661 21.4869 751.056 11.6715 770.752C2.46658 789.242 -6.17575 808.675 -15.8954 826.311C-20.3684 834.431 -25.1615 842.168 -30.2997 848.877C-39.8574 861.357 -52.2482 851.195 -47.9881 836.064C-46.841 831.99 -45.7092 827.9 -44.5905 823.798ZM-68.336 875.802C-70.0237 880.928 -71.7594 886.011 -73.5309 891.072C-71.7594 886.033 -70.0357 880.928 -68.336 875.802ZM-69.2576 903.078C-67.5868 898.496 -65.9596 893.869 -64.3682 889.201C-61.9727 882.177 -55.7517 877.275 -49.2548 873.686C-28.429 862.183 -12.4229 830.651 1.7843 801.138C10.678 782.67 19.3443 763.763 29.5547 747.638C42.1711 727.724 55.5416 709.08 70.3964 695.037C89.8596 676.612 111.944 669.316 132.7 685.09C132.784 685.149 132.866 685.196 132.945 685.231C133.292 685.384 133.7 685.431 133.984 685.684C134.996 686.589 133.594 688.532 132.33 688.037C127.836 686.276 123.236 685.354 118.552 685.485C106.079 685.857 94.3004 694.73 84.09 707.393C59.8508 737.407 44.5411 784.685 24.7308 822.937C11.3842 848.701 -3.90146 870.916 -21.246 887.041C-33.7858 898.699 -47.2128 906.643 -60.9588 911.867C-66.3663 913.922 -71.2375 908.513 -69.2576 903.078ZM-81.1062 932.861C-78.5393 926.927 -73.3393 922.589 -67.1864 920.606C-44.0179 913.135 -21.8661 898.548 -2.20169 874.049C9.27753 859.765 19.6316 842.589 29.0879 824.033C39.4539 803.724 48.3835 781.202 58.3425 760.236C70.3125 735.085 84.0661 709.825 101.506 698.06C118.397 686.658 135.626 693.303 151.045 707.645C151.376 707.953 151.035 708.505 150.607 708.357C144.407 706.21 138.075 705.399 131.767 706.232C121.149 707.656 111.07 714.469 102.213 725.139C83.5514 747.595 70.9589 783.721 57.9715 816.058C50.993 833.453 43.7751 850.563 35.432 865.855C25.2575 884.543 12.8925 898.937 0.599274 912.498C-28.0689 944.09 -59.9929 965.757 -93.5807 969.46C-96.0316 969.747 -97.6564 967.126 -96.4951 964.949C-91.0743 954.785 -85.95 944.057 -81.1062 932.861ZM-66.988 1008.49C-68.6924 1009.14 -70.4932 1009.51 -72.3167 1009.62C-79.3443 1010.06 -86.3735 1010.39 -93.4037 1010.64C-106.665 1011.1 -114.656 995.774 -107.69 984.48C-104.77 979.744 -99.5233 976.585 -93.9913 975.994C-64.4051 972.83 -35.9559 956.232 -9.73083 930.77C4.02271 917.427 17.7523 902.092 29.842 884.039C38.8315 870.61 46.4563 854.354 53.5545 837.638C67.4996 804.863 79.4337 768.035 96.8381 740.759C104.954 728.009 114.458 718.61 124.956 714.557C130.725 712.344 136.674 712.081 142.528 712.914C150.141 714.009 158.448 716.923 165.067 724.131C165.617 724.744 165.054 725.639 164.242 725.504C154.146 723.826 143.965 724.163 134.208 729.367C123.914 734.822 115.87 747.047 109.574 762.58C105.887 771.672 102.871 781.684 100.01 791.718C96.3832 804.49 92.3015 816.671 87.7528 828.414C78.6198 852.053 67.6073 873.063 55.5296 891.663C45.8578 906.561 35.408 919.465 24.7787 931.909C13.2516 945.404 1.47308 958.133 -10.6765 969.657C-28.4186 986.491 -47.3365 1000.89 -66.988 1008.49ZM-3.18274 998.247C-5.91434 1000.51 -9.14801 1002.11 -12.6413 1002.73C-20.0094 1004.03 -27.3746 1005.14 -34.7242 1006.09C-38.4774 1006.58 -40.3152 1001.16 -37.2194 998.985C-21.2002 987.72 -5.7984 973.078 8.85855 957.454C36.7965 927.681 63.8368 893.986 84.3175 847.54C91.7029 830.78 98.071 812.772 103.493 793.69C107.635 779.143 112.255 764.705 118.719 753.159C133.184 727.358 155.131 729.094 173.924 734.248C174.243 734.336 174.523 734.531 174.719 734.798C175.493 735.855 174.598 737.372 173.288 737.342C165.886 737.174 158.604 740.06 151.804 746.718C142.025 756.292 134.603 772.439 128.499 789.001C114.314 827.494 107.491 874.662 90.0511 909.08C76.3813 936.093 58.1031 952.809 39.7412 966.568C25.4538 977.259 10.8688 986.606 -3.18274 998.247ZM55.2507 983.85C54.727 984.16 54.1648 984.431 53.5974 984.651C42.0321 989.14 36.1024 976.609 45.8734 968.965C50.613 965.257 55.3033 961.343 59.9106 957.081C71.5096 946.346 82.3783 932.939 91.4875 915.872C100.896 898.236 107.12 877.072 113.01 855.142C120.587 826.99 127.876 797.524 139.344 773.819C144.61 762.909 150.966 753.576 158.436 748.318C164.539 744.009 168.251 755.983 164.421 762.397C156.517 775.632 150.341 794.297 145.855 809.902C140.96 826.903 136.973 844.714 133.167 862.591C130.546 874.947 127.864 886.822 124.034 898.126C120.275 909.212 115.679 919.224 110.568 928.316C95.2899 955.478 75.3235 971.966 55.2507 983.85ZM122.054 946.151C121.693 946.701 121.21 947.207 120.683 947.601C115.26 951.651 107.475 942.383 110.97 936.586C115.063 929.799 118.857 922.361 122.274 914.185C126.679 903.647 130.342 892.255 133.275 880.118C135.465 871.026 137.201 861.54 139.236 852.294C143.485 832.993 148.237 813.977 154.234 796.253C161.296 775.35 172.325 750.879 186.643 752.037C187.16 752.079 187.627 752.358 187.942 752.771C188.851 753.959 188.179 755.731 186.803 756.318C167.674 764.476 163.1 812.495 159.597 844.035C158.232 856.303 156.724 868.55 154.198 880.227C151.517 892.649 147.304 903.779 142.683 914.01C141.678 916.222 140.026 918.041 138.817 919.903C136.866 922.948 134.927 926.016 132.987 929.083C129.36 934.803 125.733 940.543 122.054 946.151ZM140.959 925.183C142.288 923.102 143.617 921.02 144.981 919.005C147.615 915.105 149.745 908.204 151.625 903.078C159.13 882.528 161.715 858.538 164.253 834.68C166.396 814.502 168.969 792.09 176.307 775.834C180.887 765.689 187.198 761.199 194.204 761.745C194.64 761.779 195.034 762.009 195.303 762.354C196.007 763.256 195.58 764.596 194.605 765.195C184.314 771.506 181.566 798.896 180.197 817.197C179.036 832.686 178.485 848.285 177.384 863.774C176.582 875.079 175.744 889.757 171.411 898.674C171.057 899.364 170.78 900.102 170.279 900.695C161.875 910.638 153.156 919.711 144.224 927.979C142.227 929.828 139.494 927.477 140.959 925.183ZM242.154 1029.88C241.635 1030.4 241.193 1031 240.665 1031.5C223.681 1047.86 206.281 1062.7 188.455 1075.52C178.097 1082.96 165.349 1070.15 170.76 1058.6C171.097 1057.88 171.528 1057.14 172.001 1056.5C190.574 1031.41 213.016 1017.35 234.361 1001.86C247.062 992.638 259.666 982.692 271.361 969.657C277.154 963.194 282.648 955.833 287.771 947.705C293.338 938.876 297.994 928.688 302.758 918.457C324.974 870.741 349.752 825.676 370.676 775.637C366.163 790.272 361.411 804.666 356.479 818.818C327.703 901.391 290.393 983.985 242.154 1029.88ZM345.437 1255.11C344.186 1256.6 342.503 1257.67 340.624 1258.17C332.358 1260.37 325.955 1251.31 330.797 1244.26C371.143 1185.49 415.51 1136.6 458.456 1084.3C459.17 1083.43 459.955 1082.62 460.809 1081.88C464.201 1078.98 467.635 1076.2 471.068 1073.46C476.969 1068.75 482.906 1064.21 488.748 1059.26C496.241 1052.93 503.1 1043.82 510.102 1035.86C525.651 1018.21 541.392 1001.12 558.066 987.271C573.723 974.301 590.469 966.809 607.155 959.732C623.219 952.919 639.426 946.565 654.867 935.743C661.702 930.967 668.274 925.314 674.247 917.537C679.717 910.417 684.637 901.982 689.114 892.825C707.679 854.836 718.069 805.235 726.688 757.497C742.165 671.792 754.123 580.106 783.329 505.662C800.291 462.437 823.824 430.056 852.6 419.102C853.019 418.946 853.327 418.587 853.538 418.122C853.761 417.629 854.114 417.19 854.63 417.03C856.104 416.571 857.452 418.482 856.457 419.663C838.788 440.646 822.523 465.429 808.61 494.554C791.78 529.761 778.996 570.532 769.528 613.845C759.354 660.334 753.105 709.409 748.485 758.658C743.493 811.961 733.115 864.388 712.934 904.896C702.544 925.774 689.832 941.833 675.599 952.634C659.919 964.53 643.245 971.497 626.87 979.362C610.207 987.381 593.641 996.538 578.307 1011.17C569.821 1019.26 561.573 1028.37 553.194 1036.87C544.935 1045.26 536.664 1053.59 528.38 1061.89C466.615 1123.83 404.51 1184.79 345.437 1255.11ZM715.771 1116.84C713.962 1120.74 710.482 1123.71 706.285 1124.67C701.259 1125.82 696.243 1127.06 691.232 1128.43C662.552 1136.23 634.65 1150.64 606.437 1162.62C553.471 1185.1 500.063 1203.8 446.703 1222.75C446.688 1222.75 446.682 1222.74 446.685 1222.73C446.685 1222.72 446.687 1222.72 446.691 1222.71C456.564 1213.86 466.33 1204.84 476.419 1196.8C495.798 1181.31 515.692 1168.04 535.156 1152.94C553.422 1138.77 571.185 1123.1 587.668 1102.75C603.049 1083.76 617.425 1062.2 632.663 1042.83C640.36 1033.04 648.296 1023.95 656.579 1015.91C664.42 1008.28 672.751 1002.41 680.83 995.728C696.715 982.583 712.288 968.014 726.604 949.742C740.621 931.865 753.057 910.088 762.705 884.215C767.781 870.609 770.893 853.587 773.789 838.098C776.914 821.294 779.355 804.096 781.642 786.876C786.202 752.414 789.614 716.945 796.473 683.688C803.248 650.804 810.92 618.533 819.694 587.27C828.54 555.788 838.583 524.853 850.792 497.337C861.685 472.777 873.895 450.321 885.326 426.639C896.566 403.372 906.668 378.484 914.209 350.595C917.693 337.713 920.182 324.086 923.69 311.248C926.646 300.425 930.07 290.019 933.613 279.788C949.736 233.189 969.008 190.007 981.936 139.881C991.763 101.729 996.648 59.1089 988.079 19.7581C987.924 19.046 988.643 18.461 989.3 18.7749C989.58 18.9086 989.761 19.1824 989.82 19.4869C989.838 19.576 989.859 19.6658 989.884 19.7584C995.582 43.8356 995.498 70.9799 993.092 96.4373C990.542 123.428 985.251 149.499 978.74 174.08C972.551 197.412 964.783 218.401 956.452 239.279C945.822 265.898 935.516 292.976 926.599 321.654C917.836 349.872 910.475 379.404 903.496 409.221C900.121 423.703 896.602 438.075 892.484 451.877C888.378 465.591 883.339 477.751 878.168 490.107C858.31 537.648 843.742 593.076 831.604 648.372C828.421 662.897 826.015 677.379 824.602 692.824C823.154 708.729 822.555 724.876 822.112 740.978C821.239 772.439 821.609 804.775 817.324 835.491C817.176 836.618 817.268 837.774 817.133 838.903C811.89 882.549 804.489 924.626 791.325 962.668C784.862 981.334 777.297 998.641 769.217 1015.05C761.891 1029.9 754.362 1044.58 746.701 1058.87C739.244 1072.74 731.583 1086.23 724.162 1100.16C721.277 1105.58 718.428 1111.05 715.771 1116.84ZM827.367 1111.18C826.848 1111.99 826.11 1112.75 825.153 1112.78C808.423 1113.15 791.693 1113.7 774.963 1114.84C758.392 1115.98 741.848 1117.91 725.363 1120.85C722.198 1121.41 719.814 1118.25 721.241 1115.37C725.215 1107.37 729.405 1099.73 733.582 1092.1C742.296 1076.17 751.334 1060.69 759.401 1043.66C764.584 1032.73 770.366 1022.76 775.561 1011.83C780.301 1001.86 784.778 991.499 788.979 980.764C796.389 961.836 802.649 941.483 807.569 920.034C817.851 875.232 822.292 826.881 827.259 779.427C828.08 771.557 829.06 763.77 830.157 756.067C830.204 755.736 830.283 755.41 830.372 755.087C854.778 645.217 905.699 564.485 932.069 456.609C938.856 428.851 941.393 399.122 945.595 369.918C947.761 354.889 950.718 340.342 954.848 326.715C959.133 312.584 964.663 299.505 969.678 286.229C979.865 259.325 989.908 232.115 997.628 202.517C1001.57 187.378 1004.36 171.079 1006.86 154.976C1011.02 128.182 1014.23 99.7454 1013.38 71.7467C1012.96 57.8888 1011.09 43.7717 1006.87 32.9589C1006.49 31.9992 1007.68 31.0753 1008.47 31.7363C1008.61 31.8534 1008.72 32.0092 1008.77 32.1832C1019.24 65.0966 1020.05 103.571 1015.8 141.086C1010.45 188.277 998.837 232.619 987.609 275.888C976.968 316.922 965.285 358.066 958.786 402.101C957.23 412.727 956.32 423.506 955.243 434.306C953.734 449.401 952.011 464.43 950.06 479.372C946.481 506.691 941.944 533.595 936.378 559.775C930.716 586.459 923.881 612.245 916.436 637.396C908.248 665.022 898.84 691.378 891.646 719.99C879.592 767.882 874.816 818.687 871.8 870.741C871.058 883.645 870.363 896.571 869.609 909.475C868.879 922.225 868.4 935.261 866.94 947.814C864.606 968.036 861.051 987.819 857.208 1007.23C852.947 1028.81 848.099 1050.06 842.401 1070.52C838.475 1084.65 834.082 1100.71 827.367 1111.18ZM862.727 1112.06C848.995 1112.32 838.878 1096.94 842.71 1083.75C843.799 1080 844.832 1076.26 845.837 1072.65C851.798 1051.2 856.777 1028.81 861.218 1006.2C865.168 986.088 868.783 965.494 870.962 944.462C872.458 930.178 872.889 915.237 873.703 900.755C874.481 887.019 875.223 873.282 876.061 859.568C877.605 834.023 879.628 808.543 883.088 783.612C886.858 756.402 892.52 730.287 899.534 705.355C907.339 677.576 916.675 651.308 924.504 623.506C931.422 598.947 937.539 573.621 942.686 547.638C948.013 520.822 952.142 493.262 955.494 465.394C958.379 441.361 959.959 416.846 963.921 393.294C971.462 348.558 983.695 306.691 994.516 264.43C1010.67 201.408 1031.28 119.287 1017.46 50.1759C1016.68 46.2694 1021.41 43.4877 1024.24 46.2893C1025.23 47.2418 1025.91 48.4808 1026.25 49.815C1032.97 76.317 1035.6 104.767 1034.47 133.988C1033.35 163.214 1028.62 191.673 1023.68 219.386C1018.5 248.305 1012.84 276.939 1008.93 306.537C1004.82 337.581 1002.72 369.414 1001.29 401.203C998.371 466.073 996.958 533.244 979.781 591.936C965.992 639.083 947.019 680.314 933.074 727.264C926.191 750.421 920.805 775.046 917.86 800.897C914.533 830.123 914.88 860.4 915.466 890.064C916.723 953.05 920.649 1017.57 909.374 1078.48C908.225 1084.66 906.902 1090.72 905.43 1096.66C903.362 1105 895.874 1110.77 887.284 1111.16C879.098 1111.53 870.91 1111.89 862.727 1112.06ZM949.713 1111.69C944.14 1111.04 938.566 1110.63 932.991 1110.4C919.503 1109.85 909.422 1097.17 911.984 1083.92C921.341 1035.51 921.403 983.258 920.111 931.712C919.321 900.317 918.231 868.901 919.01 837.462C919.704 809.288 923.343 781.903 929.399 756.007C940.831 707.13 959.588 665.614 974.802 620.746C978.74 609.112 982.439 597.216 985.79 584.992C989.92 569.984 992.733 553.312 995.151 537.166C999.759 506.45 1001.71 474.683 1003.12 443.004C1004.57 410.58 1005.53 378.068 1008.35 345.907C1011.07 315.016 1015.52 285.133 1020.87 255.447C1030.68 201.137 1042.6 145.096 1036.7 86.9729C1035.63 76.5412 1033.93 66.357 1031.77 56.5316C1031.56 55.6012 1032.71 54.9786 1033.36 55.6729C1033.4 55.7117 1033.43 55.7538 1033.46 55.7983C1075.28 119.234 1058.67 230.128 1046.06 311.839C1039.04 357.277 1030.8 402.605 1027.04 449.445C1024.94 475.516 1025.03 502.113 1024.57 528.402C1024.07 557.453 1023.51 586.503 1021.81 615.422C1020.1 644.363 1016.94 672.931 1012.14 700.689C1009.47 716.112 1006.13 730.988 1002.72 745.886C999.292 760.849 997.03 776.623 995.665 792.638C990.434 854.2 1000.01 916.025 998.023 977.828C997.198 1003.4 994.492 1027.91 989.19 1051.64C985.625 1067.6 981.195 1082.85 976.612 1097.94C973.662 1107.65 963.888 1113.49 953.827 1112.19C952.456 1112.01 951.084 1111.85 949.713 1111.69ZM997.04 1120.42C985.475 1117.65 978.356 1105.79 981.737 1094.39C987.188 1076 992.27 1057.28 995.917 1037.4C1001.42 1007.36 1002.38 974.542 1001.79 943.104C1001.22 912.104 998.801 881.345 997.975 850.366C997.114 818.709 998.466 787.183 1004.2 757.103C1007.14 741.592 1011.07 726.76 1014 711.227C1016.67 697.118 1018.88 682.724 1020.68 668.177C1024.08 640.857 1025.81 612.946 1026.82 585.013C1028.74 531.82 1027.03 477.882 1033.04 425.456C1038.48 377.849 1047.11 331.644 1053.85 284.629C1060.24 239.98 1065.83 192.856 1063.08 146.476C1061.59 121.343 1057.02 97.7874 1049.36 77.7179C1048.82 76.2929 1050.76 75.0845 1051.75 76.2398C1051.89 76.3967 1051.98 76.5849 1052.05 76.7808C1052.2 77.2202 1052.43 77.5982 1052.76 77.9029C1053.56 78.5821 1054.34 79.3269 1055.1 80.1156C1056.05 81.211 1057 82.3284 1057.96 83.4457C1066.17 94.0055 1071.36 110.437 1074.87 127.788C1079.31 149.806 1081.31 173.291 1083.3 196.383C1084.34 208.586 1085.64 220.745 1086.46 233.013C1087.44 247.845 1087.56 262.852 1087.03 277.772C1086.05 305.442 1082.33 332.455 1078.31 359.095C1074.37 385.232 1070.2 411.259 1067.96 438.119C1065.5 467.695 1066 497.621 1067.74 527.285C1069.28 553.948 1072.15 580.259 1073.98 606.856C1075.86 634.066 1076.09 661.429 1073.69 688.574C1072.21 705.158 1069.44 721.042 1067.21 737.298C1065.1 752.721 1063.82 768.517 1063.31 784.379C1062.35 813.692 1064.71 842.917 1068.3 871.42C1072.21 902.508 1077.44 932.982 1081.69 963.917C1085.79 993.734 1087.01 1024.71 1084.08 1055.12C1081.86 1078.04 1077.31 1099.81 1071.72 1120.66C1068.88 1131.27 1057.77 1137.24 1047.23 1134.14C1030.52 1129.24 1013.81 1124.44 997.04 1120.42ZM1141.02 1158.36C1141.02 1158.37 1141.02 1158.38 1141.01 1158.38C1141 1158.45 1140.95 1158.5 1140.89 1158.48C1133.72 1157.15 1126.57 1155.65 1119.44 1154.01C1109.39 1151.72 1099.37 1149.12 1089.37 1146.36C1078.69 1143.41 1072.66 1132.22 1075.48 1121.5C1080.09 1103.94 1083.95 1085.75 1086.42 1066.73C1090.04 1038.84 1089.96 1010.14 1087.48 981.969C1084.65 949.896 1078.59 918.589 1074.12 887.172C1070.01 858.253 1066.81 828.896 1066.7 798.926C1066.62 782.845 1067.55 766.808 1069.22 751.034C1070.99 734.253 1074.09 718.062 1076.02 701.346C1079.16 674.224 1079.72 646.598 1078.32 619.037C1076.99 592.857 1074.12 567.005 1072.23 540.956C1070.06 511.117 1068.93 480.642 1070.67 450.628C1073.81 396.274 1086.3 345.512 1089.93 291.289C1091.82 262.984 1090.38 235.686 1087.88 207.709C1085.85 184.793 1084.14 161.724 1080.68 139.334C1079.7 133.007 1078.54 126.645 1077.15 120.448C1076.24 116.374 1081.96 113.463 1084.25 116.95C1084.42 117.198 1084.56 117.478 1084.65 117.759C1090.19 133.619 1093.86 152.342 1097.55 169.063C1100.45 182.186 1103.75 195.09 1106.39 208.389C1109.21 222.717 1111.13 237.592 1112.47 252.599C1115.23 283.6 1115.09 315.345 1114.06 346.608C1113.02 377.717 1111.32 409.068 1108.89 439.915C1103.89 503.339 1097.9 566.632 1097 630.845C1096.55 664.036 1098.03 697.14 1097.4 730.331C1096.84 759.447 1095.24 788.475 1094.92 817.613C1094.59 846.949 1095.97 876.196 1099.92 904.677C1104.15 935.151 1111.44 964.136 1118.6 992.595C1125.1 1018.47 1131.82 1044.28 1136.38 1071.57C1141.11 1099.77 1142.78 1129.01 1141.02 1158.36ZM1200.88 1144.65C1201.24 1154.89 1193.17 1163.37 1182.92 1163.14C1176.01 1162.99 1169.1 1162.48 1162.2 1161.69C1152.09 1160.54 1145.04 1151.44 1145.2 1141.27C1145.51 1121.03 1144.29 1100.9 1141.56 1081.02C1137.86 1054.11 1131.6 1028.63 1125.29 1003.53C1118.11 974.915 1110.6 946.281 1105.44 916.179C1100.44 886.975 1098.48 856.654 1098.46 826.136C1098.44 797.195 1100.02 768.364 1100.79 739.489C1101.65 706.495 1100.34 673.676 1100.51 640.704C1100.83 575.878 1106.73 511.971 1111.85 447.999C1114.29 417.503 1116.04 386.7 1117.3 355.984C1118.57 324.919 1118.87 293.634 1116.84 262.655C1115.86 247.823 1114.28 233.123 1112 218.751C1109.76 204.664 1106.4 191.519 1103.37 177.98C1103.28 177.576 1103.19 177.172 1103.1 176.767C1101.69 170.383 1110.11 167.406 1112.74 173.39C1112.89 173.726 1113.01 174.086 1113.09 174.445C1113.45 176.123 1113.77 177.777 1114.02 179.36C1114.78 184.048 1116.54 188.08 1117.89 192.33C1119.71 198.048 1121.36 203.941 1122.89 209.922C1128.92 233.298 1132.57 258.558 1134.76 284.016C1139.45 338.524 1137.14 394.587 1133.78 449.116C1130.34 504.829 1125.2 560.191 1122.5 616.057C1121.25 641.581 1120.6 667.257 1121.18 692.868C1121.9 723.956 1122.31 755.087 1123.28 786.131C1125.16 846.773 1131.14 906.451 1147.55 959.951C1161.17 1004.34 1181.19 1041.36 1192.94 1087.76C1197.52 1105.86 1200.2 1125.04 1200.88 1144.65ZM1222.3 1160.02C1212.89 1161.61 1204.81 1153.97 1204.48 1144.43C1203.88 1126.97 1201.74 1109.84 1198.14 1093.37C1193.12 1070.41 1185.64 1049.64 1177.84 1029.58C1169.67 1008.57 1161.07 988.125 1153.71 966.129C1144.92 939.883 1138.49 911.293 1134.22 881.586C1125.6 821.579 1126.47 758.746 1124.89 697.249C1123.53 644.188 1127.17 591.323 1131 538.831C1135.1 482.768 1139.72 426.66 1140.73 370.05C1141.65 317.93 1139.28 264.298 1128.21 215.728C1127.82 214.013 1130.79 212.931 1131.58 214.503C1135.95 223.193 1140.55 231.501 1145.54 239.148C1146.03 239.946 1146.54 240.784 1146.58 241.721C1146.66 243.725 1146.73 245.727 1146.79 247.714C1148.43 297.248 1145.65 347.44 1144.66 396.975C1142.48 504.939 1141.81 613.341 1147.98 720.932C1156.6 870.993 1180.37 1020.86 1233.39 1138.01C1237.6 1147.31 1232.36 1158.32 1222.3 1160.02ZM1242.48 1136.28C1242.3 1136.45 1242.01 1136.4 1241.9 1136.17C1241.84 1136.04 1241.86 1135.89 1241.94 1135.78C1254.48 1119.34 1269.31 1110.78 1283.85 1102.16C1298.83 1093.29 1313.4 1083.32 1326.48 1066.97C1352.42 1034.57 1371.15 986.68 1397.26 954.518C1408.51 940.628 1420.62 929.324 1433.07 919.355C1432.94 919.487 1432.81 919.618 1432.69 919.75C1420.53 932.895 1410.09 950.64 1400.24 968.978C1389.11 989.725 1378.19 1010.82 1366.59 1030.72C1349.92 1059.35 1331.22 1085.31 1308.81 1096.33C1296.96 1102.18 1284.99 1106.78 1273.26 1113.51C1262.68 1119.59 1252.4 1127.21 1242.48 1136.28ZM1246.29 1145.31C1245.26 1143.21 1245.74 1140.66 1247.51 1139.13C1260.67 1127.74 1274.39 1119.19 1288.5 1112.32C1296.77 1108.31 1305.22 1105.29 1313.41 1100.78C1320.71 1096.72 1327.71 1090.9 1334.36 1084.08C1361.79 1056 1382.82 1010.43 1404.68 970.095C1414.77 951.495 1425.57 934.253 1438.18 921.59C1453.36 906.342 1470.67 899.594 1487.42 892.715C1505.08 885.485 1523.08 879.636 1540.26 869.076C1551.58 862.131 1562.55 853.258 1573 842.764C1589.58 826.092 1605.29 804.425 1616.31 775.966C1623.83 756.566 1628 734.336 1628.38 711.422C1628.42 708.826 1632.37 708.065 1633.26 710.504C1635.05 715.386 1636.83 720.328 1638.59 725.294C1639.3 727.295 1639.69 729.398 1639.72 731.521C1639.96 752.75 1637.8 773.663 1632 792.331C1626.41 810.318 1617.78 824.339 1608.31 835.293C1598.25 846.927 1587.11 855.186 1575.89 862.197C1563.69 869.777 1551.2 876.021 1538.67 881.454C1520.06 889.494 1501.45 897.491 1482.96 906.495C1474.44 910.636 1466 914.842 1457.89 921.218C1450.79 926.782 1444.1 933.946 1437.77 942.009C1425.38 957.783 1414.48 977.128 1402.92 994.786C1389.1 1015.91 1375.09 1036.78 1360.81 1056.87C1343.66 1081.02 1325.41 1105.49 1304.97 1119.33C1288.34 1130.56 1270.82 1136.49 1254.15 1147.33C1251.43 1149.1 1247.72 1148.22 1246.29 1145.31ZM1296.18 1131.58C1304.14 1127.18 1311.97 1121.9 1319.41 1115.02C1327.37 1107.63 1334.94 1098.61 1342.33 1089.49C1357.21 1071.11 1371.22 1050.5 1385.13 1029.77C1397.97 1010.65 1410.61 991.28 1423.14 971.519C1434.95 952.897 1447.45 935.962 1461.99 925.139C1470.49 918.808 1479.5 914.93 1488.35 910.68C1497.64 906.232 1506.95 902.048 1516.28 897.929C1543.16 886.099 1570.68 875.846 1595.98 854.792C1609.13 843.838 1621.83 828.918 1630.69 807.689C1633.98 799.809 1636.56 791.328 1638.52 782.433C1640.43 773.713 1655.69 771.652 1659.25 779.84C1659.73 780.945 1659.95 782.098 1659.89 783.301C1658.19 818.765 1642.37 843.925 1625.72 860.488C1606.2 879.921 1584.1 890.897 1562.36 898.323C1545.77 903.998 1528.84 906.079 1512.13 910.242C1502.71 912.586 1493.34 915.565 1484.11 919.728C1476.87 923.014 1469.71 930.288 1463.42 937.364C1450.63 951.736 1439.76 971.059 1428.96 989.878C1417.25 1010.25 1405.12 1029.82 1392.2 1047.58C1365.8 1083.86 1336.37 1113.85 1305.35 1135.66C1303.92 1136.67 1302.35 1137.46 1300.7 1138.05C1296.29 1139.61 1291.87 1141.15 1287.47 1142.67C1282.49 1144.37 1280.51 1139.65 1285.22 1137.3C1288.89 1135.47 1292.55 1133.59 1296.18 1131.58ZM1894.76 1326.54C1873.31 1324.72 1851.87 1322.34 1830.41 1321.13C1807.34 1319.86 1784.27 1320.91 1761.23 1323.28C1712.2 1328.32 1663.41 1339.25 1614.38 1344.31C1589.54 1346.87 1564.65 1347.77 1539.8 1345.95C1515.58 1344.2 1491.63 1339.91 1468.22 1328.05C1446.64 1317.12 1426.02 1300.8 1405.89 1283.1C1395.74 1274.16 1385.7 1264.83 1375.64 1255.56C1368.14 1248.64 1360.5 1242.74 1352.84 1236.46C1336.77 1223.24 1321.01 1208.81 1304.89 1195.84C1296.32 1188.95 1287.61 1182.22 1278.71 1176.56C1272.47 1172.59 1272.61 1162.2 1279.13 1158.7C1279.61 1158.44 1280.12 1158.23 1280.63 1158.07C1287.81 1155.81 1295 1153.42 1302.21 1150.9C1306.67 1149.34 1311.13 1147.76 1315.59 1146.18C1317.3 1145.58 1318.78 1147.77 1320.52 1148.27C1333.36 1152.06 1345.87 1159.14 1358.14 1166.92C1372.91 1176.3 1387.4 1187.12 1401.78 1198.34C1428.62 1219.26 1454.97 1242.39 1482.02 1262.39C1490.22 1268.46 1498.92 1272.21 1507.5 1276.02C1517.28 1280.36 1527.16 1283.95 1537.08 1287.04C1556.75 1293.15 1576.63 1296.86 1596.54 1298.92C1617.03 1301.04 1637.53 1300.65 1658.05 1301.06C1678.88 1301.46 1699.7 1302.42 1720.52 1303.63C1761.73 1306.01 1802.93 1309.45 1844.15 1311.71C1864.64 1312.83 1885.13 1313.64 1905.62 1313.9C1913 1313.99 1920.26 1314.16 1927.6 1312.52C1933.85 1311.1 1940.06 1309.19 1946.26 1307.29C1948.74 1306.54 1951.3 1305.34 1953.82 1305.2C1954.66 1305.16 1955.48 1304.56 1956.31 1304.73C1967.85 1307.22 1979.4 1309.68 1990.95 1312.04C1998.83 1313.66 1999.53 1323.68 1991.66 1325.35C1959.61 1332.18 1926.7 1329.26 1894.76 1326.54ZM2014.53 1302.2C1989.08 1296.46 1963.6 1291.18 1938.12 1285.88C1936.45 1285.52 1934.64 1286.84 1932.97 1286.46C1914.59 1282.34 1896.21 1278.05 1877.87 1273.55C1866.64 1270.77 1867.97 1264.69 1878.98 1268.22C1909.27 1277.93 1939.51 1288.34 1969.86 1274.42C1970.5 1274.1 1971.29 1273.75 1971.92 1274.11C1986.49 1282.39 2001.1 1290.41 2015.76 1298.11C2017.38 1298.96 2016.31 1302.6 2014.53 1302.2Z" fill="white" fill-opacity="0.02"/>
</g>
<defs>
<filter id="filter0_b_207_8056" x="-376" y="-22" width="2438" height="1565" filterUnits="userSpaceOnUse" color-interpolation-filters="sRGB">
<feFlood flood-opacity="0" result="BackgroundImageFix"/>
<feGaussianBlur in="BackgroundImage" stdDeviation="11"/>
<feComposite in2="SourceAlpha" operator="in" result="effect1_backgroundBlur_207_8056"/>
<feBlend mode="normal" in="SourceGraphic" in2="effect1_backgroundBlur_207_8056" result="shape"/>
</filter>
</defs>
</svg>
