<svg width="375" height="993" viewBox="0 0 375 993" fill="none" xmlns="http://www.w3.org/2000/svg">
<g filter="url(#filter0_b_269_35019)">
<path d="M792.417 668.507C752.902 637.842 710.852 594.704 666.369 606.575C660.869 608.048 654.822 605.169 653.566 599.616C650.893 587.797 648.464 575.778 645.823 563.952C641.861 546.173 637.337 528.867 631.339 513.062C625.286 497.1 619.007 481.495 613.11 465.304C601.668 433.88 589.936 402.171 574.243 377.24C566.872 365.526 558.931 357.388 549.369 353.44C540.438 349.764 531.163 349.779 522.076 348.52C511.975 347.104 502.264 343.214 493.599 333.216C486.766 325.349 481.555 313.306 476.142 302.536C465.612 281.568 454.24 258.954 439.771 247.212C430.587 239.771 408.7 229.721 405.609 218.312C401.467 203.02 395.641 188.846 389.952 175.553C388.15 171.348 386.583 166.957 385.163 162.409C384.804 160.95 384.399 159.491 383.946 158.047C383.83 157.645 383.631 157.272 383.518 156.87C376.223 130.882 373.097 101.195 363.073 77.6779C353.565 55.3794 340.524 34.2253 325.36 26.5302C318.98 23.2834 312.249 23.8413 306.328 29.4338C299.457 35.913 295.245 49.6296 292.546 62.3164C292.323 63.3638 292.111 64.4165 291.909 65.4741C288.013 85.909 264.966 91.282 254.509 73.2981C254.044 72.4995 253.575 71.7089 253.101 70.9268C246.058 59.3271 237.626 50.7167 229.647 41.5055C220.833 31.3218 211.855 21.5385 202.378 13.5431C201.42 12.739 200.422 11.9349 199.395 11.1308C199.259 11.0242 199.158 10.8828 199.086 10.7254C198.678 9.72058 197.227 9.50336 196.341 8.87653C183.5 -0.215571 167.115 -6.08758 156.093 10.5394C151.374 17.6624 148.651 27.8318 146.093 37.7867C142.482 51.8609 138.8 65.2628 133.395 77.3775C131.947 80.6155 130.455 83.7775 128.928 86.8782C122.601 99.7224 105.142 97.6972 96.5864 86.2168C89.2855 76.4049 80.6588 69.6968 72.812 61.4725C66.2834 54.6214 58.9435 46.6546 51.1514 47.2124C44.5608 47.6871 40.285 56.0723 37.4526 65.9764C37.1429 67.0593 36.7699 68.1331 36.2754 69.145C25.194 91.8199 5.95911 98.1738 -9.43903 104.596C-17.5432 107.972 -25.8112 110.346 -33.1432 117.841C-41.965 126.866 -49.2502 140.125 -59.2186 145.074C-66.6677 148.764 -74.4754 144.158 -81.94 147.391C-86.2494 149.26 -89.8184 154.443 -92.8535 160.676C-93.7554 162.528 -94.8725 164.266 -96.1767 165.861C-111.204 184.241 -120.448 212.272 -130.924 238.716C-133.748 245.839 -136.758 252.69 -139.995 259.198C-143.825 266.878 -148.232 272.328 -153.084 277.62C-157.038 281.939 -161.071 286.087 -164.714 291.294C-168.933 297.344 -172.381 304.753 -175.641 312.519C-182.178 328.038 -188.488 346.003 -192.544 364.225C-194.85 374.582 -196.324 385.245 -197.44 396.072C-197.514 396.789 -198.15 397.377 -198.651 397.894C-215.304 415.329 -233.65 424.669 -251.403 437.356C-263.098 445.712 -274.028 456.58 -283.352 471.327C-283.632 471.771 -283.992 472.164 -284.271 472.608C-284.424 472.854 -284.569 473.148 -284.698 473.5C-284.705 473.519 -284.707 473.539 -284.717 473.557C-288.367 479.593 -291.76 486.23 -294.818 493.61C-294.984 494.011 -295.15 494.412 -295.315 494.813C-299.527 505.021 -311.012 509.266 -318.502 501.152C-320.738 498.73 -322.919 496.154 -325.058 493.567C-333.482 483.369 -341.415 471.841 -349.566 460.942C-357.311 450.601 -365.275 441.132 -374.159 434.41C-383.441 427.373 -393.488 423.954 -403.495 423.182C-423.33 421.651 -442.167 433.551 -458.36 454.048C-464.279 461.537 -469.781 470.085 -475.334 478.472C-475.699 479.024 -476.137 479.402 -476.469 479.974C-476.672 480.323 -476.881 480.792 -477.105 481.128C-483.581 490.815 -490.206 500.096 -497.727 507.055C-508.857 517.339 -521.096 519.355 -533.326 521.057C-548.583 523.189 -563.894 523.503 -579.128 526.178C-593.792 528.738 -608.003 534.731 -622.16 542.026C-634.873 548.566 -647.756 555.323 -661.01 555.499C-663.253 555.529 -665.286 554.293 -666.527 552.424C-671.671 544.765 -676.953 537.971 -682.468 532.293C-684.547 530.152 -688 531.69 -688 534.675V535.847C-688 535.893 -687.984 535.941 -687.945 535.966C-687.934 535.973 -687.925 535.98 -687.915 535.989C-680.176 543.24 -673.293 553.203 -666.62 563.323C-659.78 573.707 -653.04 584.305 -645.818 593.817C-639.172 602.556 -632.214 610.566 -625.327 618.718C-632.191 611.853 -639.047 604.973 -646.02 598.551C-658.406 587.162 -671.596 576.075 -685.32 570.608C-686.622 570.09 -688 571.073 -688 572.474C-688 573.341 -687.452 574.11 -686.643 574.42C-674.455 579.085 -662.64 588.541 -651.652 598.237C-636.815 611.344 -622.62 626.806 -607.918 640.392C-607.611 640.675 -607.346 640.96 -607.092 641.291C-601.767 648.22 -610.077 654.672 -616.296 648.533C-619.127 645.739 -621.961 642.959 -624.797 640.187C-634.703 630.518 -644.476 620.835 -655.209 614.599C-663.953 609.522 -673.016 606.804 -682.056 604.215C-683.187 603.897 -684.318 603.569 -685.449 603.237C-686.723 602.864 -688 603.817 -688 605.145C-688 606.027 -687.419 606.803 -686.573 607.051C-674.084 610.712 -661.597 614.411 -649.718 622.609C-638.447 630.404 -627.924 641.932 -617.34 652.388C-606.412 663.158 -595.554 674.157 -584.868 685.714C-578.56 692.528 -572.335 699.576 -566.199 706.898C-565.953 707.191 -565.746 707.51 -565.579 707.855C-563.405 712.343 -568.18 715.825 -571.54 712.142C-581.872 700.817 -591.769 687.88 -602.317 677.475C-610.983 668.922 -620.21 662.014 -629.968 659.096C-641.356 655.706 -652.658 655.935 -664.132 657.737C-671.528 658.906 -678.91 660.568 -686.297 661.979C-687.283 662.168 -688 663.028 -688 664.033C-688 665.339 -686.812 666.323 -685.531 666.07C-670.048 663.013 -654.591 658.985 -639.008 661.213C-628.47 662.7 -618.393 667.892 -608.853 676.188C-599.735 684.126 -591.241 694.253 -582.747 704.179C-573.676 714.765 -564.504 725.391 -554.523 732.832C-553.864 733.322 -553.32 733.984 -552.971 734.727C-550.63 739.723 -556.7 743.965 -560.372 739.848C-566.766 732.679 -573.205 725.658 -579.97 719.712C-588.363 712.317 -597.247 707.083 -606.529 705.28C-617.472 703.164 -628.767 706.425 -639.562 709.6C-655.203 714.203 -670.692 720.676 -686.365 724.501C-687.321 724.734 -688 725.587 -688 726.571C-688 727.929 -686.738 728.936 -685.42 728.609C-670.084 724.812 -654.914 718.553 -639.632 713.948C-628.595 710.615 -617.129 707.512 -605.944 709.686C-596.358 711.545 -587.193 717.781 -578.628 725.676C-563.053 740.042 -549.111 759.688 -533.192 772.82C-532.857 773.096 -532.574 773.425 -532.343 773.792C-531.283 775.449 -533.071 777.471 -534.766 776.473C-549.219 767.958 -563.146 756.136 -577.669 748.018C-588.098 742.196 -598.76 739.264 -609.633 738.177C-619.828 737.147 -630.007 740.065 -639.866 744.642C-655.636 751.969 -670.817 763.256 -686.633 769.293C-687.451 769.606 -688 770.385 -688 771.26C-688 772.692 -686.586 773.693 -685.251 773.172C-672.255 768.094 -659.635 759.667 -646.824 752.652C-636.98 747.245 -626.918 743.083 -616.614 742.368C-611.201 741.996 -605.827 742.997 -600.437 743.841C-594.86 744.699 -589.361 746.702 -583.948 749.248C-563.146 759.001 -543.947 778.251 -522.996 786.867C-522.746 786.97 -522.518 787.139 -522.343 787.344C-521.118 788.782 -522.923 791.24 -524.634 790.44C-551.729 777.777 -579.104 767.887 -607.239 770.76C-626.957 772.776 -645.623 786.092 -663.937 798.55C-671.488 803.695 -679.154 808.84 -686.94 813.008C-687.59 813.356 -688 814.031 -688 814.768C-688 816.25 -686.432 817.203 -685.132 816.49C-676.94 811.998 -668.877 806.487 -660.926 801.068C-650.958 794.274 -640.974 787.48 -630.693 782.417C-619.922 777.096 -609.119 774.664 -597.98 774.679C-564.776 774.75 -532.944 790.612 -501.159 806.374C-497.703 808.706 -494.186 810.779 -490.613 812.61C-479.693 818.217 -468.617 822.208 -457.791 828.587C-457.335 828.857 -457.667 829.558 -458.168 829.384C-490.896 817.985 -524.186 811.117 -557.397 810.651C-601.086 810.043 -643.549 828.787 -686.487 840.755C-687.381 841.004 -688 841.817 -688 842.745C-688 844.106 -686.705 845.093 -685.394 844.724C-648.366 834.277 -611.717 818.827 -574.19 815.542C-550.743 813.497 -527.141 816.358 -503.834 821.221C-482.06 825.748 -460.418 832.501 -439.009 841.059C-437.732 841.57 -436.514 842.217 -435.372 842.984C-431.555 845.549 -427.742 848.119 -423.923 850.656C-423.677 850.82 -423.892 851.222 -424.163 851.105C-435.867 846.078 -447.598 841.356 -459.616 839.529C-472.096 837.626 -484.771 838.67 -497.251 839.886C-509.52 841.088 -521.774 842.933 -534.044 844.048C-546.36 845.178 -558.692 844.72 -571 845.879C-583.262 847.038 -595.484 849.34 -607.652 852.287C-631.637 858.094 -655.396 866.604 -679.209 874.399C-681.657 875.201 -684.109 875.993 -686.563 876.775C-687.418 877.047 -688 877.841 -688 878.739C-688 880.132 -686.647 881.123 -685.321 880.7C-646.623 868.34 -608.109 853.395 -568.769 849.97C-556.469 848.897 -544.152 849.326 -531.852 848.139C-519.567 846.966 -507.305 845.107 -495.02 843.962C-482.548 842.804 -469.896 842.017 -457.44 844.177C-445.007 846.323 -432.8 851.729 -420.671 856.978C-412.953 860.327 -405.22 863.634 -397.418 866.247C-397.361 866.266 -397.307 866.289 -397.254 866.318C-396.177 866.899 -396.856 868.714 -398.056 868.47C-398.522 868.375 -398.988 868.282 -399.455 868.192C-421.271 864.015 -443.392 864.387 -465.146 869.536C-487.306 874.771 -508.577 886.671 -529.754 899.372C-540.923 906.066 -552.093 912.817 -563.426 918.553C-569.245 921.485 -575.103 924.117 -581.007 926.405C-586.803 928.651 -592.676 930.095 -598.456 932.512C-618.034 940.679 -636.637 954.911 -655.778 965.781C-665.801 971.488 -675.855 976.022 -686.292 978.239C-686.302 978.242 -686.312 978.244 -686.323 978.246C-687.295 978.465 -688 979.314 -688 980.31C-688 981.639 -686.778 982.632 -685.478 982.355C-684.345 982.114 -683.213 981.869 -682.08 981.615C-670.645 979.083 -659.452 972.618 -648.54 966.039C-637.604 959.459 -626.809 952.122 -615.834 945.757C-610.343 942.582 -604.79 939.693 -599.189 937.218C-593.441 934.701 -587.614 933.228 -581.826 931.082C-558.606 922.5 -536.352 907.354 -513.787 894.481C-492.579 882.366 -471.152 873.727 -448.961 870.881C-422.613 867.505 -395.492 870.423 -369.495 881.107C-365.735 883.181 -361.976 885.313 -358.239 887.558C-351.768 891.444 -345.364 895.652 -339.041 900.212C-335.516 902.754 -338.909 909.767 -343.232 909.313C-360.517 907.511 -377.934 909.384 -395.126 912.846C-410.967 916.035 -426.778 920.698 -442.269 927.607C-450.178 931.139 -457.783 936.117 -465.567 940.479C-477.447 947.145 -489.545 952.451 -501.635 957.671C-507.765 960.332 -513.896 962.949 -520.011 965.695C-526.15 968.442 -532.234 971.731 -538.396 974.363C-547.131 978.097 -555.564 983.769 -563.969 989.512C-565.515 990.569 -564.765 993 -562.893 993C-562.514 993 -562.143 992.886 -561.829 992.674C-554.821 987.938 -547.801 983.308 -540.58 979.784C-528.42 973.848 -516.197 968.37 -503.943 963.078C-491.838 957.857 -479.724 952.594 -467.783 946.172C-459.554 941.752 -451.527 936.303 -443.205 932.455C-427.776 925.318 -411.974 920.641 -396.179 917.351C-379.112 913.79 -361.859 911.959 -344.691 913.461C-332.663 914.519 -319.536 916.722 -308.327 925.919C-305.262 928.88 -302.212 931.926 -299.201 935.101C-294.884 939.641 -299.204 948.16 -305.415 948.98C-305.65 949.011 -305.885 949.043 -306.12 949.075C-319.154 950.892 -332.047 955.612 -344.675 961.648C-360.185 969.08 -375.361 978.742 -390.242 989.66C-391.692 990.723 -390.934 993 -389.137 993C-388.74 993 -388.354 992.874 -388.033 992.641C-376.188 984.031 -364.153 976.289 -351.914 969.772C-338.373 962.549 -324.512 956.813 -310.48 954.096C-302.524 952.551 -294.443 951.95 -286.472 953.452C-283.641 953.983 -281.196 955.622 -279.335 957.819C-276.087 961.652 -272.833 965.46 -269.538 969.157C-262.471 977.086 -255.275 984.609 -248.033 991.978C-247.39 992.632 -246.51 993 -245.593 993C-242.537 993 -241.004 989.298 -243.151 987.124C-244.765 985.489 -246.376 983.846 -247.985 982.193C-252.275 977.783 -247.973 969.319 -241.839 968.851C-228.485 967.833 -215.083 963.774 -202.052 960.332C-190.149 957.185 -178.2 954.124 -166.157 953.452C-153.209 952.737 -140.112 955.254 -127.235 957.385C-99.1546 962.02 -71.2228 969.2 -43.2442 975.464C-15.1174 981.758 13.0172 986.02 41.3234 988.394C59.3258 989.925 77.3672 991.112 95.3696 993C98.6428 993 98.9117 989.128 95.6564 988.785C61.3736 985.174 26.971 984.075 -7.23938 978.411C-35.2882 973.762 -63.181 966.396 -91.1284 960.217C-105.09 957.128 -119.076 954.31 -133.092 952.151C-145.674 950.22 -158.341 948.26 -170.977 949.547C-187.848 951.264 -204.517 957.056 -221.256 960.933C-236.34 964.444 -251.953 966.901 -267.009 961.852C-267.071 961.831 -267.133 961.799 -267.174 961.748C-277.151 950.649 -286.737 938.434 -296.838 927.692C-304.975 919.044 -297.785 900.917 -285.933 900.189C-265.602 898.94 -245.262 896.136 -224.992 894.981C-205.843 893.88 -186.632 894.195 -167.592 898.343C-147.468 902.719 -127.656 912.546 -107.781 919.74C-68.0092 934.129 -27.925 945.786 12.4244 953.28C52.9297 960.79 93.7628 961.09 134.206 969.872C148.144 972.904 161.997 977.181 175.6 983.56C182.44 986.748 189.288 989.854 196.157 992.836C196.407 992.944 196.676 993 196.948 993C199.119 993 199.734 989.985 197.743 989.119C190.951 986.164 184.175 983.108 177.41 979.97C138.41 961.848 98.0528 959.831 58.0856 955.555C16.8158 951.135 -24.22 942.267 -64.9907 929.738C-85.1536 923.544 -105.246 916.479 -125.269 908.884C-144.262 901.675 -162.904 893.98 -182.31 891.549C-231.451 885.384 -280.671 901.396 -329.767 894.98C-332.922 894.567 -335.888 893.285 -338.48 891.44C-343.799 887.655 -349.166 884.104 -354.573 880.764C-357.536 878.936 -357.08 874.555 -353.686 873.78C-337.84 870.164 -321.573 871.471 -305.714 870.537C-284.529 869.279 -263.961 860.726 -243.189 853.574C-220.718 845.836 -197.856 838.57 -174.932 837.769C-152.655 836.983 -130.448 841.603 -108.616 849.541C-66.418 864.888 -25.8736 892.321 15.9578 910.429C62.5784 930.61 110.353 940.193 157.738 952.151C169.563 955.14 181.38 958.272 193.174 961.719C201.777 964.222 210.326 967.326 218.992 969.028C234.256 972.032 249.677 972.246 265.012 973.033C281.751 973.891 298.513 975.021 315.135 978.869C326.355 981.469 337.733 985.422 348.419 992.615C348.789 992.864 349.225 993 349.672 993C351.73 993 352.62 990.49 350.952 989.285C332.49 975.955 311.029 972.892 292.242 970.773C275.745 968.899 259.209 968.642 242.696 967.526C235.333 967.026 227.962 966.325 220.622 965.038C211.613 963.464 202.729 960.203 193.798 957.571C146.499 943.683 98.7859 935.044 51.6271 919.468C28.9526 911.973 6.58997 902.333 -15.5933 890.934C-36.1462 880.364 -56.5354 868.735 -77.1742 858.695C-97.423 848.826 -117.953 840.844 -138.794 836.596C-161.516 831.962 -184.097 833.092 -206.756 838.356C-228.533 843.405 -250.022 851.772 -271.597 859.066C-282.127 862.628 -292.532 865.231 -303.242 866.075C-313.694 866.89 -324.169 866.776 -334.629 867.319C-345.058 867.86 -355.568 869.045 -365.776 873.229C-366.397 873.484 -367.101 873.452 -367.689 873.128C-369.216 872.287 -369.197 870.08 -367.639 869.297C-335.853 853.334 -303.015 845.893 -270.365 838.413C-266.513 837.542 -262.674 836.608 -258.843 835.658C-258.339 835.533 -257.833 835.625 -257.335 835.476C-256.928 835.355 -256.524 835.084 -256.112 834.98C-231.681 828.804 -207.487 821.213 -183.258 812.916C-182.598 812.689 -181.679 812.876 -181.234 812.339C-181.129 812.228 -181.003 812.141 -180.859 812.091C-175.355 810.199 -169.859 808.279 -164.347 806.317C-160.327 804.882 -156.302 803.458 -152.281 802.026C-150.948 801.551 -149.564 801.211 -148.158 801.051C-82.3517 793.574 -17.5621 840.918 43.952 881.15C80.6822 905.179 117.982 928.021 156.795 937.404C202.534 948.46 248.671 951.278 294.745 953.209C315.252 954.067 335.859 953.867 356.326 956.556C377.059 959.288 397.604 965.753 417.876 974.077C431.17 979.538 444.335 985.895 457.422 992.774C457.704 992.922 458.018 993 458.336 993C460.372 993 461.051 990.297 459.25 989.348C441.385 979.927 423.383 971.421 405.123 964.737C383.205 956.713 361.03 951.807 338.683 950.749C315.704 949.647 292.725 948.961 269.754 947.76C225.037 945.4 179.422 942.61 135.43 926.591C96.5006 912.402 59.1386 886.628 21.8858 862.084C-11.3925 840.151 -45.7671 818.297 -80.6989 806.046C-90.8297 802.493 -93.0848 780.299 -83.1036 776.345C-82.3292 776.038 -81.5121 775.827 -80.6832 775.746C-45.8987 772.322 -10.5105 795.727 21.8234 815.571C42.5246 828.258 63.4208 839.786 84.1532 852.287C106.797 865.961 129.393 879.92 152.247 892.378C175.015 904.793 198.072 915.549 221.511 922.729C245.005 929.924 268.537 932.112 292.335 932.126C316.242 932.141 340.165 930.81 364.041 933.728C376.536 935.259 388.962 938.176 401.231 942.796C411.168 946.515 420.973 951.264 430.933 954.825C486.194 974.635 542.598 979.798 598.374 992.942C598.536 992.981 598.702 993 598.868 993C601.386 993 601.806 989.595 599.354 989.025C575.606 983.504 551.74 979.419 527.973 974.821C487.008 966.883 446.354 957.486 406.2 940.393C359.4 920.469 311.118 930.696 263.608 926.82C215.31 922.872 168.44 898.085 122.701 871.024C84.0206 848.139 45.3871 824.997 6.75372 801.883C-11.6682 790.861 -31.0965 779.928 -50.7335 774.6C-55.368 773.343 -56.4152 765.394 -52.0114 763.479C-44.9124 760.393 -37.8551 757.273 -30.7896 754.341C-26.8293 752.698 -22.1887 752.843 -17.9957 753.739C-11.8804 755.083 -5.67944 755.384 0.474792 755.684C14.0779 756.371 27.7202 755.927 41.3156 757.215C61.0496 759.103 80.963 768.9 99.8858 778.741C120.345 789.368 140.149 802.898 159.837 817.602C198.002 846.094 235.972 877.017 276.751 890.662C297.873 897.728 319.347 898.986 340.765 898.314C363.853 897.599 387.121 895.382 409.928 903.535C429.171 910.4 447.485 925.161 466.205 935.473C475.464 940.565 484.909 944.699 494.496 947.059C505.478 949.762 516.609 950.062 527.661 951.364C573.143 956.727 618.508 967.612 662.664 988.695C665.421 990.013 668.164 991.37 670.907 992.779C671.19 992.924 671.503 993 671.821 993C673.891 993 674.571 990.272 672.73 989.326C637.296 971.125 600.932 959.686 564.313 952.68C553.027 950.52 541.709 948.818 530.391 947.402C519.261 946.015 508.052 945.743 496.976 943.354C477.063 939.078 458.171 926.334 439.287 914.705C429.826 908.884 420.286 903.506 410.552 899.387C399.889 894.881 388.626 893.866 377.722 893.336C355.086 892.249 332.49 895.024 309.846 893.265C267.851 889.99 228.126 864.115 189.562 835.366C169.977 820.777 150.578 804.887 130.618 792.1C110.431 779.17 89.8082 768.171 68.8495 760.333C60.1916 757.1 51.3386 754.097 42.509 753.052C36.3859 752.323 30.2396 752.237 24.101 752.094C10.49 751.737 -3.23804 752.166 -16.7944 749.691C-17.2067 749.617 -17.2732 749.037 -16.8796 748.893C-9.69751 746.274 -2.47046 744.008 4.8584 742.339C23.5784 738.077 42.47 736.518 61.3226 735.646C80.4326 734.759 99.5425 734.83 118.645 734.273C124.276 734.108 129.878 733.931 135.472 733.854C135.954 733.847 136.381 734.176 136.85 734.287C157.161 738.378 176.053 754.225 194.001 771.289C212.237 788.624 229.857 808.191 248.64 823.538C257.703 830.947 266.985 837.111 276.727 840.644C288.201 844.806 299.932 846.079 311.601 846.594C335.079 847.638 358.885 844.892 381.949 854.776C401.707 863.229 420.013 879.92 438.718 893.851C448.382 901.046 458.194 907.497 468.42 911.373C479.496 915.578 490.674 918.896 501.874 921.642C548.768 933.128 596.137 934.815 643.203 942.954C663.272 946.429 683.271 951.249 703.325 954.882C724.089 958.658 744.883 961.805 765.694 964.423C786.138 966.997 806.605 968.957 827.08 970.43C837.399 971.159 847.719 971.731 858.038 972.203C861.806 972.368 865.653 973.401 869.497 974.114C870.817 974.358 872 973.326 872 971.984C872 970.892 871.204 969.963 870.132 969.752C869.471 969.622 868.809 969.483 868.147 969.343C862.312 968.055 856.525 967.855 850.651 967.555C838.39 966.954 826.128 966.125 813.874 965.123C789.554 963.135 765.257 960.318 740.991 956.77C693.24 949.776 645.777 938.048 597.97 932.284C574.336 929.437 550.679 926.906 527.099 922.686C515.056 920.527 503.037 917.852 491.071 914.476C479.878 911.315 468.498 908.069 457.664 901.933C438.343 890.962 420.294 873.77 401.317 861.083C391.621 854.59 381.661 849.555 371.458 846.68C360.258 843.519 348.831 842.976 337.521 842.718C316.913 842.232 296.235 843.362 275.908 835.981C258.998 829.86 243.164 814.827 228.048 800.138C209.609 782.21 191.082 761.308 171.444 746.799C167.205 743.667 169.671 735.391 174.867 736.275C204.25 741.267 233.227 751.851 262.414 759.503C277.968 764.795 292.39 779.527 306.781 790.884C322.389 803.185 338.737 810.179 355.39 815.914C374.095 822.365 393.018 828.029 410.661 841.688C419.538 848.554 427.86 857.665 436.69 864.802C444.981 871.51 453.491 877.26 462.126 882.252C496.929 902.347 533.613 907.525 569.89 908.884C609.483 910.371 649.045 909.613 688.63 912.617C708.723 914.133 728.839 915.864 748.869 919.01C769.999 922.314 791.27 921.256 812.385 918.281C821.261 917.022 830.098 914.863 838.998 914.362C846.346 913.933 853.701 914.047 861.049 913.904C864.042 913.834 867.034 913.735 870.027 913.552C871.14 913.483 872 912.556 872 911.441C872 910.206 870.953 909.23 869.719 909.299C866.829 909.46 863.939 909.545 861.049 909.613C853.701 909.785 846.346 909.685 838.998 910.071C830.098 910.529 821.253 912.703 812.385 913.99C791.254 917.037 770.015 917.852 748.869 914.72C728.823 911.73 708.723 909.871 688.63 908.326C649.045 905.279 609.483 905.995 569.89 904.593C533.012 903.291 495.954 897.584 460.644 876.888C451.822 871.71 443.179 865.531 434.74 858.523C426.207 851.443 418.126 842.69 409.452 836.153C392.058 823.023 373.284 817.731 354.907 811.395C338.137 805.616 321.835 798.193 306.149 785.735C298.914 779.991 291.65 773.423 284.232 767.713C282.962 766.735 283.943 764.501 285.518 764.795C307.037 768.851 328.089 767.649 349.107 763.391C349.456 763.32 349.827 763.486 350.18 763.436C360.359 762.264 370.663 769.015 380.031 775.523C391.348 783.404 402.268 793.101 413.212 802.57C417.853 806.589 422.502 810.593 427.221 814.298C433.016 818.861 438.609 824.067 444.248 829.273C457.001 841.03 469.84 852.53 483.201 861.77C496.797 871.181 510.922 877.675 525.391 880.407C541.647 883.467 558.042 884.068 574.368 883.424C606.418 882.166 638.289 875.358 670.214 870.738C686.235 868.421 702.28 866.719 718.348 866.447C732.029 866.218 745.702 867.434 759.352 868.692C787.269 871.281 815.536 874.971 843.39 868.778C848.912 867.562 854.411 865.832 859.832 863.486C861.124 862.929 862.18 861.219 863.548 861.545C864.907 861.868 866.264 861.991 867.375 861.412C868.849 860.64 869.504 857.536 868.771 855.105C868.657 854.714 869.157 854.176 869.521 854.357C869.997 854.595 870.473 854.831 870.949 855.067C871.432 855.307 872 854.956 872 854.417V727.946C872 719.52 866.686 712.069 858.949 708.733C836.199 698.922 813.92 685.183 792.417 668.507ZM-594.884 647.01C-594.907 646.988 -594.932 646.968 -594.951 646.942C-596.728 644.481 -598.512 642.048 -600.312 639.644C-598.487 642.061 -596.678 644.507 -594.884 647.01C-594.525 647.296 -594.166 647.596 -593.807 647.882C-593.413 648.183 -593.87 648.418 -594.159 648.015C-594.4 647.677 -594.642 647.342 -594.884 647.01ZM684.726 693.529C687.302 697.763 687.181 703.31 683.445 706.565C668.802 719.326 650.542 716.173 635.176 710.572C625.465 707.025 616.066 701.79 606.894 694.954C596.582 687.273 586.341 678.82 575.155 676.56C564.766 674.457 554.111 677.618 543.862 680.55C534.112 683.339 524.502 685.843 514.62 686.071C507.516 686.244 500.218 685.676 492.918 685.606C492.687 685.604 492.647 685.261 492.873 685.213C498.559 683.883 504.285 683.154 509.986 681.924C515.719 680.693 521.429 679.063 527.131 677.361C539.041 673.799 550.929 669.895 562.979 668.264C573.658 666.834 584.578 667.22 595.077 671.354C601.129 673.756 607.112 676.717 613.141 679.249C626.752 684.999 641.884 691.063 655.792 685.356C663.697 682.102 677.38 681.023 681.68 688.412C682.683 690.135 683.698 691.841 684.726 693.529ZM523.285 689.805C534.939 688.489 546.373 683.525 557.972 681.337C563.892 680.236 569.906 679.792 575.826 680.979C581.497 682.138 587.027 685.313 592.37 688.875C601.613 695.039 610.466 703.02 619.927 708.098C627.79 712.303 635.816 715.607 643.936 717.595C659.449 721.383 677.187 721.191 690.489 704.023C690.723 703.721 691.182 703.736 691.399 704.05C693.928 707.874 696.505 711.579 699.115 715.196C704.605 722.805 704.685 733.941 696.09 737.704C692.852 739.122 689.526 739.969 686.212 740.437C676.852 741.767 667.383 740.122 658.132 737.519C649.489 735.088 640.941 731.584 632.438 727.865C621.323 723.002 610.731 716.022 600.139 708.198C589.344 700.231 578.392 690.763 566.739 688.174C555.921 685.771 545.04 689.719 534.369 692.536C517.872 696.884 501.196 692.865 484.652 691.392C483.968 691.33 483.953 690.438 484.638 690.392C486.836 690.247 489.032 690.179 491.22 690.148C501.906 689.99 512.607 691.02 523.285 689.805ZM495.252 696.799C503.668 697.771 512.1 698.901 520.54 698.858C529.603 698.815 538.456 695.511 547.419 693.394C558.822 690.706 569.914 691.363 580.748 699.001C591.98 706.911 603.118 715.493 614.46 722.844C623.578 728.752 633.016 732.728 642.454 736.475C651.416 740.037 660.48 742.926 669.621 744.356C677.511 745.598 686.064 745.866 694.134 743.012C704.184 739.458 717.164 738.768 723.758 747.144C729.528 754.475 727.808 765.443 718.876 768.136C702.308 773.132 684.992 769.822 668.592 764.395C657.999 760.905 647.422 756.542 637.017 751.508C626.284 746.316 615.988 738.406 605.778 730.511C595.763 722.759 585.763 714.878 575.366 708.999C564.906 703.078 554.15 699.96 543.191 700.446C531.015 700.989 519.042 705.895 506.89 707.011C501.133 707.526 495.385 706.925 489.706 705.152C484.746 703.621 479.855 701.461 474.925 699.716C471.358 698.466 467.645 697.33 463.923 696.857C463.331 696.781 463.152 695.973 463.683 695.7C463.742 695.669 463.805 695.65 463.871 695.64C465.858 695.365 467.835 695.267 469.715 695.182C478.225 694.753 486.758 695.812 495.252 696.799ZM477.351 704.966C482.164 706.754 486.945 708.813 491.805 710.072C497.538 711.574 503.302 711.731 509.074 711.073C521.226 709.671 533.191 704.851 545.398 704.665C556.513 704.508 567.324 708.627 577.846 714.935C598.727 727.464 618.094 747.646 639.544 757.1C660.753 766.454 682.312 775.494 704.261 774.764C714.713 774.421 725.212 771.518 735.032 764.795C735.624 764.384 736.681 764.013 737.109 764.594C738.238 766.129 739.363 767.679 740.476 769.243C740.96 769.921 741.451 770.581 741.949 771.226C745.813 776.231 742.394 786.356 736.194 787.594C724.783 789.883 713.402 793.072 701.897 793.158C689.878 793.244 677.796 788.653 665.994 784.905C653.709 781.001 641.479 776.538 629.303 771.689C622.408 768.943 615.481 766.211 608.602 763.136C603.251 760.419 597.9 757.701 592.534 755.041C582.628 749.348 572.932 742.482 563.159 736.089C553.159 729.553 543.012 723.66 532.536 720.27C527.279 718.568 521.959 717.595 516.624 717.323C511.071 717.037 505.54 718.282 499.987 717.567C492.142 716.555 484.366 712.648 476.587 708.898C472.384 706.871 472.978 703.336 477.351 704.966ZM760.729 790.271C762.53 790.571 764.201 791.38 765.655 792.486C773.129 798.09 770.004 808.132 760.757 806.81C753.581 805.784 746.403 804.764 739.213 804.758C729.876 804.744 720.532 806.374 711.211 807.089C708.338 807.313 705.465 807.464 702.593 807.52C699.911 807.572 697.261 806.979 694.812 805.884C678.743 798.697 662.768 790.818 646.814 782.717C655.41 785.821 664.029 788.696 672.671 791.299C684.223 794.774 695.65 798.121 707.389 797.206C717.716 796.391 727.95 793.473 738.214 791.499C745.659 790.057 753.252 789.025 760.729 790.271ZM538.183 726.721C541.041 727.893 539.302 731.387 536.381 730.382C526.032 726.82 515.618 723.97 505.157 722.174C505.147 722.172 505.148 722.158 505.158 722.158C510.782 722.058 516.297 721.343 521.928 722.101C527.404 722.844 532.825 724.518 538.183 726.721ZM473.373 711.903C477.279 713.713 481.192 715.628 485.129 717.308C486.07 717.709 485.573 720.095 484.551 720.07C484.096 720.058 483.642 720.049 483.187 720.044C478.646 719.987 474.193 718.685 470.478 716.072C466.481 713.261 462.452 710.629 458.303 708.556C457.03 707.916 457.446 706.08 458.833 706.408C463.736 707.568 468.606 709.687 473.373 711.903ZM458.701 713.204C459.17 713.444 459.638 713.691 460.104 713.945C463.798 715.959 462.424 721.449 458.28 722.171C456.806 722.428 455.287 721.966 454.21 720.928C453.83 720.562 453.448 720.199 453.065 719.841C448.316 715.4 449.156 708.79 455.088 711.45C456.338 712.011 457.55 712.615 458.701 713.204ZM444.978 717.975C448.061 719.964 446.842 724.511 443.286 725.42C441.73 725.818 440.084 725.363 438.858 724.325C436.273 722.138 433.584 720.583 430.825 719.689C429.072 719.121 428.281 716.605 429.726 715.459C430.109 715.155 430.493 714.854 430.877 714.555C431.604 713.989 432.727 714.929 433.64 714.806C437.577 714.274 441.347 715.632 444.978 717.975ZM424.831 723.091C430.062 722.989 429.424 729.336 424.453 730.966C424.02 731.108 423.587 731.25 423.154 731.394C422.145 731.729 421.042 731.584 420.135 731.028C419.694 730.757 419.251 730.494 418.808 730.243C417.102 729.28 416.621 726.799 418.041 725.449C418.7 724.821 419.358 724.189 420.015 723.551C420.467 723.112 421.321 723.503 421.94 723.388C422.91 723.209 423.874 723.11 424.831 723.091ZM412.901 732.2C414.369 732.503 414.296 734.395 412.881 734.891C412.623 734.982 412.364 735.072 412.106 735.163C410.46 735.742 409.174 733.485 410.489 732.338C410.611 732.232 410.733 732.125 410.855 732.018C410.901 731.978 410.959 731.97 411.02 731.97C411.655 731.993 412.281 732.073 412.901 732.2ZM478.602 728.873C480.972 728.779 483.359 729.133 485.479 730.196C491.848 733.39 497.842 738.995 503.466 745.3C511.897 754.74 519.658 766.082 527.474 777.139C535.009 787.794 542.614 798.479 550.983 806.875C560.725 816.629 571.645 822.451 582.534 825.955C605.295 833.264 628.57 829.874 651.525 833.078C676.095 836.525 700.369 844.835 724.947 847.967C735.523 849.312 746.03 851.729 756.638 852.201C762.082 852.444 767.566 852.23 772.956 850.714C775.412 850.034 777.978 849 780.289 847.079C782.222 845.471 784.704 844.426 787.152 844.999C794.108 846.628 801.068 848.216 808.028 849.757C808.174 849.789 808.185 849.989 808.04 850.027C803.875 851.286 799.702 852.544 795.497 853.245C789.991 854.175 784.351 853.517 778.829 853.417C772.152 853.288 765.483 853.059 758.806 852.773C731.99 851.657 705.197 849.469 678.388 847.71C664.863 846.809 651.338 846.036 637.805 845.536C624.295 845.035 610.778 845.278 597.268 844.735C570.826 843.676 544.353 838.284 518.769 825.712C509.737 821.278 501.274 814.198 492.741 807.289C483.591 799.895 474.489 792.343 465.331 785.005C447.711 770.888 429.763 756.471 411.02 748.189C409.353 747.467 409.359 744.986 411.076 744.39C433.437 736.63 455.875 729.778 478.602 728.873ZM764.352 847.853C756.225 848.425 748.074 847.352 739.977 846.108C732.559 844.949 725.134 843.848 717.716 842.661C705.119 840.658 692.608 837.183 680.081 834.165C667.773 831.204 655.402 828.916 643 827.829C631.37 826.827 619.724 827.013 608.095 826.184C585.763 824.596 563.658 817.688 544.673 794.874C533.301 781.215 523.044 764.709 511.928 750.392C506.501 743.402 500.736 736.742 494.62 731.745C493.631 730.938 494.255 729.235 495.525 729.367C511.71 731.029 527.775 735.545 543.699 741.62C544.402 741.888 544.799 742.619 545.367 743.112C554.228 750.95 561.178 763.694 568.642 775.122C572.394 780.872 576.341 786.193 580.615 790.555C585.358 795.389 590.592 798.407 595.786 801.111C606.184 806.531 616.956 808.834 627.719 810.036C633.648 810.708 639.505 811.08 645.363 813.068C650.659 814.856 655.854 817.531 661.033 820.205C668.989 824.324 676.891 827.843 685.081 829.931C694.347 832.277 703.676 833.693 712.989 835.08C721.398 836.339 729.759 837.698 738.113 839.815C740.692 840.472 743.518 841.244 746.343 841.449C753.554 841.971 761.323 838.8 768.345 840.521C770.672 841.092 772.999 841.657 775.327 842.217C777.097 842.635 777.588 844.796 775.947 845.581C772.118 847.414 767.834 847.605 764.352 847.853ZM743.019 836.596C738.433 835.853 733.893 834.222 729.307 833.393C716.897 831.133 704.44 829.802 692.046 827.242C686.048 825.998 680.05 824.525 674.153 822.122C668.903 819.962 663.756 817.13 658.576 814.484C653.343 811.824 648.07 809.421 642.696 807.905C637.056 806.317 631.339 806.202 625.652 805.502C617.946 804.572 610.271 802.913 602.721 799.88C594.96 796.777 587.082 792.557 580.194 785.163C579.699 784.631 579.209 784.085 578.725 783.527C570.898 774.503 583.81 759.543 594.46 764.953C623.576 779.758 652.488 795.23 681.74 808.949C682.598 809.351 683.084 810.486 684.02 810.636C685.325 810.836 686.603 811.189 687.801 811.746C689.554 812.562 691.309 813.381 693.068 814.169C709.565 821.592 726.187 829.416 743.004 834.008C743.075 834.027 743.147 834.047 743.219 834.066C745.966 834.814 745.828 837.065 743.019 836.596ZM721.009 816.866C717.594 815.541 718.379 810.443 722.027 810.109C727.498 809.608 732.974 809.155 738.464 809.049C754.573 808.741 770.585 813.975 786.667 813.084C791.757 812.802 796.939 813.625 801.286 816.289C802.81 817.223 804.336 818.151 805.864 819.075C812.585 823.138 811.339 832.28 803.491 831.969C792.785 831.544 782.029 828.335 771.567 825.154C755.533 820.286 739.169 814.469 722.872 817.054C722.244 817.154 721.602 817.096 721.009 816.866ZM667.188 659.945C668.17 662.196 668.433 664.736 667.586 667.041C660.936 685.128 645.79 684.184 635.161 682.138C621.55 679.521 608.477 672.212 595.139 667.005C572.893 658.323 549.977 666.133 527.911 672.798C521.952 674.6 515.985 676.317 509.986 677.633C504.285 678.891 498.567 679.621 492.873 680.922C482.367 683.313 471.932 686.827 461.654 691.488C460.569 691.98 459.441 692.368 458.312 692.748C456.1 693.493 453.921 694.583 451.905 696.299C451.849 696.346 451.791 696.386 451.727 696.421C450.675 696.988 449.962 695.975 450.961 695.32C454.572 692.952 458.294 691.098 461.923 689.375C471.017 685.07 480.3 681.995 489.262 676.76C493.926 674.028 498.31 670.123 502.818 666.648C507.911 662.715 513.099 659.153 518.356 656.006C528.215 650.128 538.378 646.052 548.698 644.092C559.306 642.09 570.007 642.447 580.623 644.163C588.322 645.408 595.95 647.682 603.625 649.313C617.322 652.216 633.203 654.733 645.956 643.048C650.099 639.257 659.233 639.606 661.159 644.881C663.053 650.07 665.067 655.085 667.188 659.945ZM630.832 610.637C636.826 606.969 650.645 608.877 652.313 615.703C652.357 615.884 652.401 616.064 652.446 616.244C652.535 616.61 652.626 616.975 652.717 617.339C653.558 620.699 653.693 624.262 652.455 627.496C645.601 645.407 630.637 647.44 619.53 647.124C603.344 646.667 587.44 640.044 571.279 638.728C550.39 637.026 529.947 643.305 510.369 656.579C505.166 660.111 500.065 664.102 495.01 668.264C490.97 671.582 486.672 673.857 482.413 675.93C478.337 677.924 474.228 679.643 470.121 681.381C469.26 681.746 468.478 680.471 469.177 679.85C477.788 672.255 485.978 663.201 494.176 654.233C510.376 636.511 527.029 619.419 546.108 615.457C553.222 613.984 560.304 614.785 567.418 615.701C574.157 616.559 580.896 617.417 587.651 617.875C601.917 618.833 617.143 619.047 630.832 610.637ZM645.12 583.521C645.271 584.222 644.96 585.009 644.794 585.707C639.521 606.718 623.679 610.866 612.603 612.768C598.181 615.243 583.611 613.498 569.196 611.638C562.488 610.766 555.819 609.822 549.096 610.68C539.658 611.867 530.453 616.273 521.71 622.766C504.394 635.625 489.176 656.021 472.687 671.826C467.352 676.932 461.891 681.58 456.229 685.313C455.853 685.561 455.476 685.809 455.098 686.058C454.784 686.264 454.447 685.847 454.716 685.585C458.6 681.78 462.617 678.448 466.384 674.271C475.409 664.259 483.451 651.172 491.882 639.601C500.868 627.286 510.314 616.859 521.125 610.938C532.661 604.63 544.712 602.098 556.646 599.853C569.204 597.507 581.809 597.264 594.375 595.233C606.738 593.245 620.863 590.356 631.331 576.968C634.264 573.215 642.992 573.618 643.995 578.274C644.371 580.023 644.746 581.772 645.12 583.521ZM637.456 549.865C637.686 550.772 637.781 551.761 637.683 552.69C635.705 571.484 624.801 580.299 615.279 584.863C602.167 591.156 588.392 591.957 574.914 593.073C569.032 593.559 563.206 594.346 557.356 595.433C545.656 597.593 533.925 600.096 522.552 605.746C511.804 611.066 502.303 620.549 493.302 632.406C488.997 638.07 484.847 644.121 480.658 650.071C476.204 656.407 471.579 662.228 467.04 668.35C465.865 669.933 463.98 668.38 465.031 666.712C468.288 661.549 471.481 656.237 474.613 650.786C481.836 638.242 488.989 625.412 497.46 615.686C501.882 610.609 506.749 606.189 511.835 603.958C517.997 601.24 524.268 599.438 530.547 597.936C541.062 595.404 551.67 593.974 562.098 590.37C568.923 588.01 575.678 584.978 582.316 581.202C593.16 575.031 606.525 565.146 615.749 549.693C620.407 541.889 635.217 541.057 637.456 549.865ZM600.308 445.922C600.423 446.224 600.504 446.549 600.543 446.87C608.104 508.533 569.951 550.161 542.598 565.082C530.617 571.633 518.27 575.623 506.11 580.873C503.395 582.031 500.689 583.261 498.006 584.591C509.339 576.925 520.75 569.702 531.928 561.292C544.4 551.909 556.685 540.982 567.301 525.534C577.441 510.773 585.256 491.522 589.344 468.894C590.609 461.876 591.483 454.643 592.045 447.322C592.388 442.855 598.721 441.733 600.308 445.922ZM544.166 524.533C554.829 509.272 564.329 491.407 571.208 469.924C576.393 453.728 579.585 435.857 581.043 417.432C581.346 413.602 586.542 412.542 588.119 416.045C588.898 417.775 589.66 419.52 590.415 421.275C590.905 422.416 590.537 423.928 590.537 425.17C590.498 451.43 586.98 477.047 578.463 498.444C570.74 517.896 559.641 531.885 548.152 542.941C524.136 566.055 497.514 578.026 472.874 598.565C497.358 576.095 522.591 555.442 544.166 524.533ZM451.752 618.976C453.842 616.816 455.948 614.685 458.062 612.597C455.496 615.372 452.968 618.261 450.488 621.322C441.986 631.806 434.662 645.165 427.377 658.266C420.006 671.539 412.58 684.956 403.875 695.311C400.079 699.823 394.685 694.039 397.932 689.117C398.981 687.526 400.019 685.906 401.044 684.255C416.659 659.11 433.679 637.713 451.752 618.976ZM379.305 424.555C379.804 414.772 380.538 405.031 381.411 395.377C383.073 376.954 385.288 358.632 388.338 340.811C389.687 332.887 391.278 325.306 393.407 317.983C395.552 310.617 398.017 303.58 400.35 296.414C402.144 290.922 403.867 285.286 405.318 279.451C403.251 295.341 399.375 310.474 395.701 325.235C391.551 341.926 387.277 358.561 384.359 376.153C381.77 391.772 380.701 408.307 379.305 424.555ZM406.613 257.295C404.64 283.57 392.745 305.611 387.768 330.369C384.367 347.304 382.129 365.126 380.272 382.819C379.851 386.781 379.461 390.757 379.102 394.747C379.812 372.163 381.489 349.578 384.991 328.067C387.955 309.83 393.439 293.425 397.565 276.047C399.02 269.934 400.323 263.689 401.364 257.333C401.912 253.994 406.546 253.912 406.613 257.295ZM400.927 219.707C401.305 221.035 401.513 222.406 401.547 223.786C402.006 242.454 398.87 260.286 394.718 277.319C390.607 294.183 385.467 310.131 382.573 327.909C378.907 350.479 377.277 374.38 376.653 398.137C376.645 397.765 376.638 397.379 376.63 396.993C376.349 380.687 376.427 364.353 376.848 348.048C377.215 333.874 377.761 319.499 379.391 305.597C381.536 287.217 386.848 270.225 390.771 253.033C393.166 242.547 395.318 231.564 396.278 220.361C396.497 217.802 400.218 217.238 400.927 219.707ZM394.004 200.076C394.135 200.4 394.216 200.747 394.24 201.096C395.337 217.368 392.576 233.572 389.242 248.671C385.366 266.249 380.35 283.055 377.566 301.377C375.514 314.822 375.093 329.354 374.649 343.214C374.165 358.189 374.056 373.193 374.188 388.197C373.323 379.243 372.059 370.504 371.045 361.579C369.781 350.465 369.235 339.109 369.001 327.781C368.752 316.338 368.908 304.881 369.181 293.439C369.384 284.986 370.023 277.062 371.404 268.967C374.165 252.833 378.712 237.929 382.347 222.453C383.961 215.597 385.393 208.493 386.351 201.303C386.837 197.657 392.623 196.666 394.004 200.076ZM375.834 165.384C375.823 163.332 379.792 162.768 380.383 164.733C381.221 167.522 382.116 170.273 383.08 172.979C383.411 173.901 383.744 174.813 384.082 175.719C384.802 177.651 385.265 179.676 385.319 181.738C385.95 206.039 377.343 231.137 372.309 252.604C370.593 259.913 369.056 267.379 368.034 275.131C366.88 283.856 366.825 292.824 366.669 301.735C366.279 323.833 366.638 346.189 369.407 367.8C370.39 375.453 371.435 382.976 372.098 390.771C372.777 398.766 373.182 406.833 373.588 414.872C373.962 422.281 374.321 429.675 374.859 437.041C375.156 441.032 375.491 445.022 375.904 448.984C375.958 449.51 376.019 450.041 376.084 450.576C376.278 452.161 376.298 453.762 376.117 455.349C371.613 494.831 365.735 534.979 355.788 570.675C353.979 577.154 352.06 583.547 350.04 589.826C355.383 568.071 360.219 545.887 364.275 523.289C370.632 487.86 374.009 449.785 372.379 412.483C371.482 391.901 369.009 371.691 366.677 351.538C364.08 329.182 361.334 306.884 359.439 284.285C358.651 274.816 358.315 265.577 359.446 256.137C360.343 248.671 362.122 241.705 364.095 235.011C367.925 221.995 372.543 209.394 374.446 194.82C375.702 185.265 375.889 175.167 375.834 165.384ZM357.479 78.6958C357.55 78.8592 357.579 79.0437 357.577 79.2218C357.57 79.8741 357.742 80.5065 358.167 80.896C358.461 81.1357 358.656 81.4774 358.8 81.8282C363.449 93.1466 367.219 105.693 369.976 119.114C370.312 120.759 370.647 122.389 370.975 124.034C371.887 131.643 372.511 139.381 372.933 147.076C373.635 159.949 373.798 173.093 372.94 185.952C372.012 199.826 368.479 212.183 364.743 224.169C360.601 237.457 356.841 250.616 356.358 266.206C356.046 276.304 357.231 286.516 358.159 296.414C359.22 307.699 360.484 318.913 361.779 330.112C364.259 351.566 367.083 372.964 368.892 394.647C370.483 413.642 370.858 432.822 369.961 451.974C368.541 482.339 364.314 511.603 358.588 540.109C353.362 566.141 347.263 591.628 340.594 616.53C340.102 617.803 339.611 619.09 339.112 620.349C334.92 630.941 330.184 642.301 324.431 650.59C323.262 652.276 320.776 651.722 320.29 649.729C320.103 648.963 320.287 648.155 320.766 647.528C327.872 638.231 333.081 624.519 337.38 610.78C343.402 591.543 347.489 570.403 352.356 550.15C357.161 530.226 362.73 510.402 365.546 489.147C368.253 468.78 368.596 447.568 367.675 426.757C366.739 405.703 364.407 384.907 361.591 364.454C360.141 353.898 358.393 343.5 356.966 332.944C355.445 321.688 354.337 310.245 353.62 298.731C352.255 276.79 352.247 254.692 355.32 233.252C358.113 213.757 362.27 194.977 363.011 174.681C363.877 151.138 362.317 126.408 359.4 103.495C358.424 95.8211 357.163 87.4729 355.411 79.4529C355.131 78.1714 356.957 77.4924 357.479 78.6958ZM322.771 629.002C326.094 620.492 329.042 611.467 331.92 602.442C339.088 580 345.734 556.929 351.771 533.401C353.994 524.719 356.186 515.951 357.918 506.897C360.679 492.451 361.693 476.561 361.911 461.328C362.457 423.468 356.35 386.738 351.061 350.565C348.394 332.286 345.913 313.864 344.486 295.098C343.09 276.776 343.066 258.411 344.338 240.074C346.537 208.307 351.28 177.298 352.996 145.403C354.111 124.692 353.745 103.366 349.852 83.6422C347.081 69.5914 342.521 57.4289 336.878 47.0705C336.529 46.4289 337.338 45.831 337.817 46.3828C338.497 47.1866 338.65 48.3395 339.255 49.2014C339.312 49.2832 339.376 49.3595 339.447 49.4294C345.562 55.1649 349.423 66.1067 352.224 77.2202C355.585 90.5649 357.45 105.197 358.776 119.643C360.039 133.445 360.671 147.462 360.788 161.451C360.85 168.559 360.765 175.682 360.226 182.734C359.454 192.789 357.879 202.6 356.264 212.284C354.649 221.981 352.98 231.65 351.834 241.591C350.648 251.917 350.391 262.373 350.43 272.9C350.508 295.327 352.341 317.697 355.445 339.352C358.417 360.148 361.615 380.673 363.596 401.899C365.569 423.067 366.412 444.679 365.289 466.105C364.36 483.912 361.638 500.561 357.785 516.924C353.862 533.63 349.759 550.178 345.835 566.884C342.084 582.889 338.636 598.866 333.683 613.812C330.358 623.862 326.395 633.708 321.409 641.229C320.497 642.604 318.468 642.172 318.097 640.565C317.951 639.934 318.133 639.279 318.503 638.747C320.26 636.215 321.718 631.7 322.771 629.002ZM195.497 78.7597C196.766 69.8008 200.215 69.4192 199.305 78.4216C198.064 90.7794 196.208 102.937 193.993 114.823C191.208 129.755 187.168 143.5 182.636 156.888C179.555 165.999 176.248 174.838 172.925 183.649C169.649 192.345 166.131 200.898 163.206 210.024C157.77 226.973 155.843 246.268 153.425 265.162C152.122 275.303 150.547 285.329 148.269 294.898C146.202 303.58 143.831 312.033 141.304 320.3C136.218 336.906 130.329 352.654 124.269 368.115C112.171 398.981 99.1682 429.032 89.2154 462.358C93.7628 441.189 99.5894 420.908 106.017 401.384C111.227 385.565 116.773 370.146 122.124 354.499C127.654 338.322 133.582 321.773 137.575 304.109C141.881 285.057 143.379 264.347 146.007 244.437C147.372 234.067 149.041 224.227 151.842 214.858C154.455 206.133 157.575 197.966 160.827 190.028C166.248 176.784 172.145 164.211 177.254 150.537C182.363 136.835 186.692 122.003 190.233 106.742C192.31 97.7911 194.133 88.3875 195.497 78.7597ZM190.748 15.3167C193.018 16.7907 194.012 19.5119 194.359 22.1958C199.025 58.2428 191.303 96.9763 181.879 128.368C176.63 145.875 170.078 161.451 163.347 177.098C156.896 192.088 149.751 208.164 146.358 226.472C142.716 246.096 141.327 266.807 138.309 286.731C135.345 306.326 129.69 323.547 123.988 340.796C113.505 372.506 101.773 402.843 92.8736 436.226C88.2014 453.762 84.395 472.041 81.6104 490.878C81.197 493.653 80.8226 496.456 80.4637 499.26C80.8771 478.091 81.002 456.865 84.395 436.455C85.877 427.558 88.0142 418.905 90.0266 410.366C92.1716 401.241 94.4492 392.23 96.8516 383.319C101.695 365.34 107.085 347.805 113.31 331.299C116.328 323.304 119.815 315.952 122.755 307.856C125.883 299.26 128.41 289.992 130.743 280.623C133.075 271.226 135.189 261.658 137.466 252.218C139.822 242.477 142.497 233.023 145.141 223.54C150.484 204.403 156.982 186.452 163.768 168.974C169.407 154.471 175.288 140.54 179.937 124.849C185.288 106.813 189.516 87.361 191.739 67.208C193.631 50.0731 193.891 31.926 190.702 15.3428C190.695 15.3108 190.72 15.2997 190.748 15.3167ZM108.24 122.689C108.448 123.191 108.471 123.772 108.196 124.24C100.336 137.603 92.4995 151.009 85.5572 165.999C78.6713 180.864 74.4039 198.567 70.9634 217.006C69.9562 222.404 65.4778 222.019 66.3848 216.603C68.951 201.184 73.5217 187.11 78.3889 173.794C83.3497 160.206 88.7162 147.105 93.833 133.717C95.939 128.21 97.9592 122.446 98.825 115.824C99.2401 112.614 103.758 111.489 104.971 114.49C106.081 117.234 107.161 119.997 108.24 122.689ZM-50.9662 543.27C-45.787 537.12 -40.6 530.998 -35.5066 524.605C-32.3242 520.614 -29.6411 515.451 -26.8408 510.616C-23.1281 504.223 -19.462 497.743 -15.8896 491.078C-8.92419 478.062 -2.50482 464.103 3.00977 448.913C8.31378 434.281 12.4789 418.476 16.6364 402.7C24.2335 373.893 31.6904 344.315 42.7586 319.327C44.9494 314.382 47.7629 316.54 45.7794 321.572C44.8906 323.827 44.0316 326.14 43.2032 328.51C34.3424 353.884 29.288 383.062 23.8982 411.296C17.744 443.535 10.9814 475.745 0.0067749 503.651C-11.6152 533.201 -27.5272 555.585 -44.9056 572.734C-49.0006 576.782 -53.3842 579.814 -57.6898 582.99C-64.0234 587.681 -70.3804 592.243 -76.7452 596.778C-80.0652 599.14 -84.3435 595.384 -82.4837 591.759C-78.063 583.141 -73.723 574.389 -69.4412 565.536C-69.0339 564.693 -68.5201 563.907 -67.9117 563.197C-62.251 556.585 -56.5981 549.947 -50.9662 543.27ZM-58.462 547.017C-59.1946 547.882 -60.5921 546.978 -60.1095 545.952C-56.137 537.51 -52.1934 529.016 -48.2596 520.514C-35.0308 491.893 -21.8878 463.13 -8.05847 435.468C-3.59961 426.548 1.11658 418.02 5.76379 409.383C7.15393 406.8 12.4347 408.791 11.6756 411.625C7.24518 428.131 2.37799 444.021 -3.65137 458.782C-9.69641 473.586 -16.7398 486.916 -23.9938 499.732C-25.7878 502.907 -27.5974 506.039 -29.4148 509.172C-31.2712 512.375 -33.0964 516.28 -35.1713 518.969C-37.0823 521.458 -39.04 523.832 -40.9978 526.206C-46.7855 533.244 -52.6198 540.138 -58.462 547.017ZM39.2485 303.629C38.493 304.831 36.5444 304.344 36.3802 302.934C36.3437 302.62 36.41 302.316 36.5733 302.046C39.9013 296.543 44.1804 292.3 47.9846 288.519C49.5258 286.986 50.5164 288.282 49.1135 289.942C45.6526 294.038 42.3663 298.67 39.2485 303.629ZM44.4854 301.258C46.5358 298.315 49.134 300.681 47.4061 303.825C45.4283 307.423 43.5447 311.216 41.7432 315.169C40.8767 317.071 36.7393 316.05 36.796 313.962C36.8038 313.675 36.8816 313.389 37.024 313.141C39.4019 308.986 41.8875 304.987 44.4854 301.258ZM47.2513 284.371C44.1118 287.4 40.6743 290.844 37.6392 294.955C36.8612 296.008 35.1001 295.665 34.7488 294.404C34.6131 293.916 34.7355 293.409 35.0774 293.036C41.2875 286.257 47.962 280.911 54.8719 277.062C54.9191 277.033 54.964 277.007 55.0191 277.011C55.0268 277.012 55.0345 277.012 55.0423 277.013C55.3601 277.036 55.4691 277.441 55.2072 277.623C52.4315 279.547 49.7539 281.959 47.2513 284.371ZM36.0328 287.095C34.7632 288.391 32.5144 287.934 31.7106 286.307C31.2666 285.408 31.3856 284.359 32.0787 283.635C36.424 279.096 41.3268 277.2 46.3431 276.415C46.3921 276.408 46.4417 276.406 46.4911 276.409C47.1441 276.451 47.3826 277.313 46.8538 277.699C43.144 280.403 39.5202 283.533 36.0328 287.095ZM31.1132 279.809C30.1895 280.75 28.4701 280.826 27.665 279.782C27.6141 279.716 27.5632 279.651 27.512 279.585C26.4114 278.179 27.2067 275.98 28.9902 275.893C29.1589 275.885 29.3276 275.878 29.4962 275.87C31.4402 275.789 32.4768 278.421 31.1132 279.809ZM67.4901 278.09C67.4494 278.121 67.3939 278.09 67.3967 278.039C67.3986 278.004 67.4268 277.977 67.4614 277.977H67.517C67.5214 277.977 67.5269 277.979 67.5311 277.98C67.5638 277.989 67.5788 278.019 67.5525 278.04C67.5317 278.057 67.5109 278.074 67.4901 278.09ZM68.6658 277.166C68.593 277.221 68.4828 277.142 68.5061 277.053C68.5158 277.016 68.5472 276.988 68.5851 276.985C68.5926 276.984 68.6 276.984 68.6075 276.983C68.7006 276.977 68.7487 277.102 68.6744 277.159C68.6716 277.161 68.6687 277.163 68.6658 277.166ZM-74.959 600.082C-68.641 595.576 -62.3308 591.042 -56.0518 586.379C-51.5044 583.004 -46.9648 579.671 -42.6437 575.366C-25.6006 558.431 -10.2814 536.176 1.34058 507.541C12.4556 480.151 19.3118 447.983 25.466 416.03C30.8636 387.982 35.762 359.233 44.2172 333.645C51.9743 310.165 62.9141 292.056 75.9988 279.622C78.7336 277.023 82.3025 275.543 86.0405 275.032C86.1133 275.022 86.1863 275.012 86.2592 275.002C86.5758 274.962 86.7475 275.398 86.488 275.584C75.4894 283.472 65.7762 296.299 57.7658 312.677C47.0252 334.617 39.5528 361.321 33.4376 388.382C27.2288 415.83 22.5176 444.293 17.6036 472.57C12.2138 503.608 6.79279 535.06 -2.87921 562.679C-7.81659 576.768 -14.0254 589.569 -21.7864 598.58C-30.5458 608.721 -41.4424 613.34 -51.3875 617.76C-62.0812 622.509 -72.8842 626.456 -83.3674 632.678C-94.3186 639.2 -104.591 649.098 -114.513 659.697C-120.698 666.305 -126.759 673.313 -132.843 680.25C-135.331 683.096 -137.757 685.928 -140.417 688.174C-141.032 688.698 -141.649 689.212 -142.268 689.72C-142.911 690.248 -143.745 689.416 -143.232 688.76C-126.139 666.859 -110.229 642.733 -95.3676 615.976C-94.4893 614.394 -93.2609 613.04 -91.7836 611.996C-86.1677 608.048 -80.5594 604.072 -74.959 600.082ZM94.223 93.6257C94.561 94.07 94.8951 94.5292 95.222 94.9979C95.4683 95.3509 95.5744 95.7753 95.6426 96.2003C96.7424 103.08 97.3741 110.003 96.2276 116.997C95.0654 124.091 92.3198 130.313 90.0032 136.234C84.863 149.408 79.5901 162.495 74.7698 176.068C70.082 189.256 65.9869 203.301 63.6392 218.491C61.4039 232.893 61.2121 247.943 62.9605 262.477C63.0264 263.025 63.0119 263.578 62.9131 264.121C62.796 264.764 62.6784 265.408 62.5597 266.05C62.3024 267.443 61.1003 268.456 59.6844 268.446C58.3434 268.436 57.1647 267.531 56.8533 266.227C52.1916 246.696 55.7844 225.453 60.9637 207.106C67.2427 184.879 75.8071 165.198 82.8193 143.786C87.5657 129.318 92.2639 111.597 90.7991 95.1643C90.6299 93.2659 93.0624 92.1139 94.223 93.6257ZM85.8729 84.306C86.1206 84.5541 86.3105 84.8586 86.4183 85.1923C91.3561 100.483 87.6302 118.85 83.2328 133.817C76.8212 155.658 68.2646 175.11 61.4708 196.536C55.0222 216.88 49.6475 241.189 53.8845 263.97C54.2969 266.187 52.5983 268.302 50.348 268.151C48.2053 268.002 46.0566 267.841 43.9072 267.698C43.3876 267.663 43.0077 267.205 42.9146 266.692C39.155 244.694 46.1827 222.181 52.4539 204.217C60.1915 182.047 69.4892 161.68 76.2362 138.351C79.3718 127.481 81.8834 115.781 82.4918 103.438C82.772 97.6865 82.5001 91.9881 81.7367 86.5206C81.4207 84.2573 84.2583 82.6887 85.8729 84.306ZM74.3876 73.0151C75.9263 74.6354 77.1348 76.5556 77.6948 78.7188C79.6283 86.1866 80.4877 94.2858 80.1752 102.808C79.754 114.322 77.2658 125.393 74.4032 135.534C67.7888 158.933 58.4444 179.344 50.66 201.413C44.6833 218.351 38.2775 239.189 39.7311 260.017C39.9999 263.868 36.9378 267.257 33.0777 267.247C30.3441 267.24 27.8233 265.54 27.3445 262.849C25.9063 254.765 26.9598 245.852 28.625 237.857C31.3238 224.927 35.8712 213.228 40.442 202.329C45.2546 190.815 50.5508 179.987 55.8625 169.246C60.8702 159.119 65.9402 149.35 69.7856 137.536C73.5842 125.879 75.7916 112.649 74.7386 99.0323C74.0974 90.7076 72.5529 82.7528 70.6847 75.0377C70.1566 72.8564 72.8381 71.3915 74.3876 73.0151ZM64.4769 62.6111C64.767 62.8837 65.0049 63.2623 65.11 63.6462C68.7759 77.0323 72.6334 91.173 72.6872 106.37C72.7496 123.047 67.3676 138.981 61.6034 151.152C51.869 171.677 41.3702 190.972 33.11 213.685C28.2401 227.06 22.2031 246.53 24.913 263.222C25.2819 265.494 23.7474 267.705 21.4728 268.059C18.9763 268.447 16.6181 266.478 16.888 263.965C18.343 250.426 21.3806 237.447 24.8186 225.271C29.5454 208.536 35.3954 192.874 41.6276 177.928C46.5884 166.013 52.3369 155.186 57.0637 142.957C61.2523 132.087 64.6844 119.886 66.4004 106.899C67.7654 96.5865 67.8278 85.3586 65.4878 75.5038C64.5652 71.6298 63.3286 68.1868 61.8613 65.1344C60.8473 63.0251 62.7715 61.0084 64.4769 62.6111ZM38.141 157.317C49.7992 128.737 65.7864 88.4068 50.9811 56.111C50.96 56.0646 50.9849 56.0135 51.035 56.0049C51.0639 56 51.0944 56.0062 51.1163 56.0256C57.5745 61.7622 62.8856 70.665 64.5362 84.0284C66.0962 96.7009 63.9512 110.274 61.0808 121.774C57.992 134.118 53.6005 144.63 48.8192 154.886C42.6104 168.187 36.7526 182.076 31.433 196.622C23.6438 217.913 16.1094 242.323 14.1298 268.209C14.0564 269.169 13.45 269.977 12.5587 270.343C10.4641 271.202 7.79572 269.28 8.37567 267.091C12.3335 252.156 15.4989 236.506 18.8594 221.094C23.9059 197.966 30.0056 177.256 38.141 157.317ZM-75.856 154.685C-69.3898 154.514 -63.1498 155.915 -56.7928 152.754C-48.9304 148.85 -42.3316 139.209 -35.7172 130.957C-29.5006 123.19 -23.3854 119.242 -16.1314 116.167C-8.94757 113.121 -1.73267 110.289 5.39655 106.813C12.153 103.502 19.3639 99.5207 25.9084 93.5714C27.8076 91.8449 31.374 93.6432 30.7781 96.1398C30.2885 98.191 29.7869 100.229 29.274 102.256C29.171 102.663 28.4561 102.694 28.04 102.637C19.0622 101.392 10.0766 106.384 1.77734 112.191C-7.63721 118.785 -16.6228 127.281 -25.5226 135.92C-29.7191 139.996 -33.9077 144.115 -38.1431 148.077C-42.6514 152.311 -47.1208 156.759 -51.9413 159.691C-57.0659 162.809 -62.3074 163.224 -67.6426 162.423C-72.3694 161.708 -77.0728 160.221 -81.8309 160.392C-83.2196 160.448 -84.2526 158.838 -83.2294 157.898C-81.0798 155.922 -78.6654 154.764 -75.856 154.685ZM-92.3608 173.465C-92.3224 173.369 -92.2839 173.274 -92.2454 173.178C-90.5995 169.101 -87.4163 165.556 -83.0696 164.896C-81.7991 164.703 -80.5117 164.642 -79.2022 164.726C-74.1712 165.041 -69.2026 166.757 -64.1716 167.115C-53.9146 167.858 -45.2332 159.534 -36.3646 151.224C-18.994 134.961 -1.6546 114.623 17.7986 108.043C21.176 106.899 24.6158 106.456 28.04 106.928C28.0518 106.928 28.0604 106.939 28.0574 106.95C27.5056 109.045 26.9417 111.123 26.3657 113.188C25.7499 115.396 23.6862 116.837 21.4078 117.09C1.95557 119.251 -15.4355 142.029 -31.6534 159.749C-40.2023 169.074 -49.5154 177.942 -59.3513 181.532C-70.006 185.408 -80.9182 179.701 -91.5964 183.091C-93.352 183.655 -95.5523 181.964 -94.9288 180.229C-94.1046 177.935 -93.2503 175.676 -92.3608 173.465ZM-104.076 211.869C-102.934 206.943 -101.697 202.082 -100.361 197.324C-99.5109 194.298 -98.0045 191.39 -95.3989 189.631C-86.4842 183.614 -76.3385 187.347 -66.9328 187.196C-56.8552 187.024 -47.8696 179.744 -38.9074 172.064C-34.321 168.13 -29.9999 162.967 -25.6786 158.161C-21.0688 153.026 -16.459 147.877 -11.7556 143.043C-2.43463 133.431 7.47137 124.864 18.1418 121.974C19.4688 121.604 20.8102 121.387 22.1538 121.281C23.0927 121.207 23.7737 122.115 23.5009 123.016C23.3134 123.636 23.1248 124.255 22.9349 124.873C22.7897 125.345 21.9494 125.415 21.488 125.593C0.778992 133.96 -16.5604 156.43 -34.1962 176.841C-43.525 187.625 -53.3608 199.411 -64.0858 204.817C-74.8654 210.267 -86.2378 209.423 -97.1344 213.785C-97.9974 214.129 -98.8528 214.518 -99.7009 214.95C-101.836 216.038 -104.621 214.203 -104.076 211.869ZM-106.853 224.619C-106.793 224.326 -106.528 224.114 -106.307 223.912C-95.9878 215.101 -84.4906 215.187 -73.4224 212.455C-67.7596 211.054 -62.2061 208.879 -56.9176 204.86C-51.8944 201.056 -47.1052 196.007 -42.4096 191.029C-24.1654 171.634 -7.34082 146.933 12.8534 134.404C13.4781 134.018 14.1052 133.647 14.7345 133.29C17.2463 131.867 19.9503 134.303 19.035 137.041C18.4669 138.74 17.8917 140.432 17.3093 142.113C17.1601 142.544 16.463 142.621 16.028 142.757C-5.64819 149.951 -24.5087 173.294 -42.3707 195.649C-51.3328 206.863 -60.1859 218.806 -69.733 228.317C-74.335 232.909 -79.1476 236.656 -84.1474 239.531C-89.3968 242.535 -94.7242 243.993 -100.153 245.352C-104.535 246.44 -110.307 242.705 -109.494 238.263C-108.657 233.688 -107.78 229.137 -106.853 224.619ZM-114.029 265.291C-113.924 264.616 -113.818 263.942 -113.712 263.269C-113.046 259.052 -111.153 254.954 -107.488 252.767C-104.4 250.924 -101.182 249.844 -97.8832 249.1C-92.587 247.884 -87.4234 245.982 -82.3378 242.978C-72.2914 237.042 -63.5242 226.844 -54.7805 216.26C-36.3256 193.876 -18.4871 168.23 2.47156 154.027C7.30713 150.739 12.4675 155.624 10.3681 161.082C10.2761 161.321 10.184 161.56 10.0917 161.799C9.1496 164.24 6.93256 165.908 4.43951 166.702C-1.39716 168.56 -7.04913 172.392 -12.4498 176.741C-21.022 183.635 -29.1262 192.488 -36.8638 202.1C-44.0632 211.054 -50.9818 220.88 -57.4324 231.593C-60.4276 236.584 -63.1888 242.005 -66.1918 246.983C-69.9202 253.133 -73.906 258.726 -78.1492 263.617C-84.0226 270.378 -90.334 275.134 -96.8547 278.819C-105.695 283.816 -115.591 275.325 -114.029 265.291ZM-125.745 324.691C-124.171 317.736 -122.632 310.763 -121.159 303.751C-119.724 296.92 -114.872 291.375 -108.399 288.764C-102.917 286.552 -97.4779 284.016 -92.1814 280.609C-83.851 275.26 -76.2305 267.336 -69.2963 257.367C-62.5571 247.669 -56.824 235.884 -50.233 225.829C-43.0883 214.93 -35.4676 205.061 -27.5272 196.193C-21.334 189.27 -14.8756 182.991 -8.13641 178.028C-7.82056 177.795 -7.50354 177.565 -7.18542 177.338C-1.85651 173.53 3.27075 178.826 0.710388 184.854C-0.308716 187.253 -2.44513 188.929 -4.90967 189.779C-17.0413 193.961 -27.8849 204.761 -37.5034 219.135C-48.478 235.512 -57.6508 255.464 -67.3853 274.159C-75.1151 289.005 -83.2972 303.422 -93.0316 313.778C-102.445 323.827 -112.956 328.457 -123.754 327.531C-125.151 327.412 -126.049 326.06 -125.745 324.691ZM-127.374 331.841C-127.294 331.492 -126.753 331.422 -126.4 331.485C-112.391 333.859 -99.0844 326.779 -87.4702 312.462C-75.9964 298.316 -66.6599 279.15 -57.3076 260.699C-45.4933 237.377 -32.7835 213.36 -16.919 200.898C-11.9564 197 -6.85138 202.225 -9.44574 207.978C-10.5327 210.388 -11.6241 212.793 -12.7181 215.195C-12.8606 215.508 -13.2831 215.602 -13.612 215.702C-32.0512 222.281 -45.8339 245.181 -57.5104 270.84C-63.3448 283.67 -68.7659 297.115 -74.6237 309.916C-79.7639 321.144 -86.152 330.798 -92.626 339.337C-98.9752 347.705 -105.839 355.056 -113.202 360.02C-119.754 364.425 -127.071 366.885 -133.888 363.023C-134.116 362.904 -134.397 362.639 -134.341 362.388C-132.061 352.176 -129.698 342.014 -127.374 331.841ZM-139.379 385.98C-138.118 379.742 -136.795 373.541 -135.442 367.379C-135.372 367.059 -134.795 367.006 -134.512 367.171C-126.938 371.448 -118.842 368.487 -111.603 363.481C-103.226 357.702 -95.512 348.835 -88.4218 338.937C-82.1194 330.155 -76.285 320.357 -71.2463 309.158C-65.4431 296.228 -60.0065 282.769 -54.0862 270.025C-48.0149 256.955 -41.3113 244.867 -33.6476 235.64C-28.3159 229.222 -21.7456 234.867 -25.2231 242.452C-26.2951 244.79 -27.3653 247.13 -28.4325 249.473C-28.5648 249.764 -28.928 249.883 -29.212 250.029C-37.3162 254.263 -44.4142 262.287 -50.4748 272.943C-56.4106 283.384 -61.1842 295.856 -65.9344 308.085C-70.8874 320.829 -75.8872 333.573 -82.0492 344.472C-88.9054 356.615 -97.2592 366.642 -105.395 375.638C-112.787 383.809 -120.931 391.403 -129.454 395.516C-135.474 398.421 -140.702 392.531 -139.379 385.98ZM-150.237 437.056C-148.8 431.25 -147.466 425.374 -146.194 419.457C-144.152 409.965 -135.313 403.221 -126.835 398.489C-122.904 396.295 -119.069 393.453 -115.363 390.299C-106.065 382.375 -97.4074 371.963 -89.2096 360.749C-82.2442 351.238 -76.3084 340.539 -70.9888 327.938C-65.8408 315.766 -61.2778 302.793 -56.044 290.736C-51.0107 279.134 -43.7023 283.917 -48.3936 295.662C-55.7243 314.014 -62.4483 333.083 -68.056 353.469C-68.3563 354.57 -68.9886 355.606 -69.996 356.142C-77.6591 360.22 -84.5713 367.823 -91.5106 375.052C-99.5212 383.391 -107.992 389.541 -116.19 397.15C-127.908 408.004 -139.39 421.471 -149.518 437.362C-149.76 437.741 -150.343 437.493 -150.237 437.056ZM-281.183 479.324C-281.095 479.074 -280.983 478.834 -280.849 478.607C-279.013 475.499 -277.075 472.538 -275.013 469.724C-267.736 459.855 -259.515 452.517 -251.153 446.353C-233.907 433.637 -215.967 424.755 -199.502 408.607C-199.407 408.515 -199.312 408.415 -199.217 408.319C-199.191 408.293 -199.16 408.316 -199.174 408.349C-203.846 420.893 -212.473 427.373 -219.914 432.579C-227.917 438.171 -236.216 442.248 -244.118 448.326C-253.953 455.893 -263.329 465.547 -271.511 478.148C-278.516 488.933 -284.085 502.75 -289.865 515.651C-290.402 516.849 -292.28 516.192 -291.946 514.923C-288.723 502.706 -285.227 490.756 -281.183 479.324ZM-300.878 551.324C-300.712 550.62 -300.291 549.962 -300.106 549.263C-298.663 543.456 -296.526 538.221 -294.451 533.129C-291.674 526.307 -288.702 519.741 -285.731 513.191C-279.6 499.66 -273.758 486.201 -266.004 475.574C-257.721 464.217 -248.244 455.378 -238.541 448.899C-230.382 443.449 -222.012 439.115 -214.025 432.793C-209.375 429.109 -204.616 424.597 -200.833 418.224C-200.435 417.554 -199.319 417.878 -199.378 418.655C-199.382 418.717 -199.395 418.778 -199.416 418.837C-204.249 432.516 -212.63 441.219 -220.367 448.427C-224.719 452.474 -229.181 456.007 -233.393 460.57C-237.659 465.175 -241.668 470.568 -245.467 476.403C-253.384 488.589 -260.045 502.835 -266.699 517.238C-273.945 532.943 -281.55 548.09 -289.545 562.522C-293.985 570.525 -304.336 565.957 -302.23 557.05C-301.779 555.142 -301.329 553.233 -300.878 551.324ZM-314.415 521.656C-314.17 518.993 -310.939 517.855 -308.666 519.264C-307.119 520.223 -306.488 522.097 -307.213 523.767C-309.021 527.929 -310.885 532.018 -312.851 536.004C-313.301 536.906 -314.608 536.655 -314.669 535.649C-314.956 530.993 -314.843 526.286 -314.415 521.656ZM-270.224 531.27C-266.644 523.832 -263.15 516.252 -259.741 508.557C-256.512 501.291 -252.752 494.625 -249.071 488.132C-241.676 475.116 -233.393 464.489 -224.103 456.508C-215.806 449.375 -206.524 440.968 -200.277 427.989C-200.24 427.91 -200.11 427.943 -200.11 428.03C-200.11 428.216 -200.126 428.388 -200.126 428.574C-200.297 430.777 -200.484 432.951 -200.687 435.096C-201.732 442.062 -204.072 448.298 -206.568 453.876C-209.985 461.485 -213.947 468.193 -217.824 474.987C-225.983 489.29 -233.915 504.022 -241.224 519.799C-248.337 535.16 -254.18 552.281 -261.278 567.642C-267.479 581.044 -274.662 592.701 -282.673 602.37C-291.581 613.112 -301.448 620.435 -310.94 629.188C-311.131 629.364 -311.321 629.54 -311.511 629.716C-314.989 632.949 -322.105 628.757 -320.558 624.268C-319.119 620.107 -317.75 615.869 -316.436 611.587C-315.666 609.075 -314.423 606.737 -312.81 604.663C-296.877 584.172 -283.029 557.837 -270.224 531.27ZM-214.605 475.285C-212.855 472.238 -206.842 474.289 -207.668 477.705C-217.496 505.91 -229.805 531.184 -241.98 555.971C-249.297 570.875 -256.691 585.65 -263.727 601.011C-269.717 614.084 -276.823 624.454 -284.927 632.836C-297.759 646.115 -312.187 654.202 -325.747 665.028C-328.774 667.445 -334.523 663.587 -333.172 659.958C-333.074 659.693 -332.941 659.435 -332.78 659.202C-325.49 648.663 -317.501 640.031 -309.185 632.363C-299.693 623.61 -289.911 616.23 -281.004 605.488C-273.157 596.019 -266.145 584.491 -260.006 571.476C-252.838 556.3 -247.05 539.179 -240.007 523.789C-232.308 506.969 -223.83 491.421 -215.172 476.275C-214.985 475.947 -214.796 475.617 -214.605 475.285ZM-316.793 512.844C-316.184 513.422 -315.904 514.247 -316.025 515.078C-317.289 523.729 -317.591 532.884 -316.475 541.635C-316.381 542.373 -316.515 543.137 -316.864 543.794C-318.491 546.852 -322.816 545.83 -322.87 542.366C-322.919 539.196 -322.894 536.026 -322.812 532.886C-322.651 526.936 -322.289 519.423 -320.636 513.681C-320.151 511.996 -318.065 511.637 -316.793 512.844ZM-321.699 507.777C-321.541 507.956 -321.5 508.209 -321.592 508.43C-324.07 514.416 -324.706 523.104 -325.05 530.211C-325.455 538.717 -325.298 547.58 -324.517 556.063C-324.455 556.737 -324.615 557.427 -324.967 558.005C-326.659 560.785 -331.121 559.196 -331.041 555.942C-330.869 549.148 -330.76 542.34 -330.393 535.561C-329.836 525.318 -328.567 510.709 -322.377 507.632C-322.146 507.517 -321.87 507.584 -321.699 507.777ZM-326.08 503.121C-325.878 503.168 -325.647 503.204 -325.515 503.364C-325.427 503.471 -325.338 503.578 -325.249 503.685C-324.881 504.123 -324.942 504.774 -325.341 505.183C-330.055 510.02 -331.718 521.617 -332.445 531.198C-332.999 538.45 -333.147 545.773 -333.311 553.082C-333.443 558.846 -333.428 564.868 -334.231 570.489C-334.245 570.595 -334.256 570.698 -334.263 570.798C-334.317 571.611 -334.406 572.486 -334.876 573.152C-336.46 575.398 -340.24 573.776 -339.979 571.04C-339.917 570.389 -339.858 569.742 -339.8 569.101C-338.927 559.389 -338.583 549.535 -337.983 539.766C-337.203 526.964 -336.126 500.962 -326.08 503.121ZM-473.345 487.218C-473.189 486.601 -472.927 486.017 -472.571 485.488C-459.983 466.848 -447.683 448.334 -431.926 438.858C-424.031 434.106 -415.943 431.777 -407.895 431.654C-406.723 431.637 -406.717 433.1 -407.871 433.308C-415.881 434.753 -423.986 437.442 -431.552 442.591C-439.827 448.212 -447.089 457.595 -453.563 468.465C-457.645 475.322 -461.418 482.756 -465.115 490.328C-467.919 496.073 -474.911 493.416 -473.345 487.218ZM-491.471 537.077C-490.66 534.159 -489.857 531.213 -489.069 528.28C-490.044 531.942 -491.034 535.589 -492.056 539.208C-491.861 538.507 -491.666 537.792 -491.471 537.077ZM-492.406 539.945C-492.361 539.794 -492.236 539.845 -492.277 539.996C-492.32 540.153 -492.458 540.128 -492.414 539.972C-492.411 539.963 -492.408 539.954 -492.406 539.945ZM-486.565 538.502C-486.082 536.733 -485.313 535.029 -484.335 533.477C-472.932 515.372 -463.994 492.596 -453.064 473.485C-446.473 461.957 -438.985 452.203 -430.405 446.367C-422.73 441.146 -414.407 438.658 -406.287 437.327C-403.878 436.933 -402.905 442.598 -404.916 443.982C-413.372 449.798 -421.392 458.816 -428.588 468.608C-436.2 478.978 -443.322 490.334 -449.718 503.193C-455.716 515.265 -461.348 527.951 -467.681 539.465C-469.285 542.383 -470.952 545.225 -472.686 547.92C-480.031 559.346 -490.14 551.606 -486.565 538.502ZM-501.853 571.776C-502.953 575.123 -504.084 578.441 -505.238 581.745C-504.084 578.455 -502.961 575.123 -501.853 571.776ZM-502.454 589.583C-501.839 587.894 -501.233 586.196 -500.636 584.489C-498.183 577.482 -491.846 572.542 -485.893 568.107C-474.014 559.256 -464.6 540.596 -456.161 523.031C-450.365 510.974 -444.718 498.63 -438.065 488.103C-429.843 475.102 -421.131 462.93 -411.451 453.762C-398.768 441.733 -384.377 436.97 -370.852 447.268C-370.798 447.306 -370.745 447.336 -370.694 447.359C-370.467 447.46 -370.2 447.49 -370.015 447.656C-369.355 448.247 -370.271 449.514 -371.096 449.191C-374.023 448.042 -377.02 447.44 -380.072 447.525C-388.199 447.769 -395.874 453.561 -402.528 461.829C-418.323 481.424 -428.299 512.29 -441.208 537.263C-449.905 554.083 -459.866 568.586 -471.168 579.113C-479.335 586.721 -488.08 591.906 -497.033 595.317C-500.562 596.661 -503.744 593.132 -502.454 589.583ZM-510.522 609.829C-508.62 605.457 -504.786 602.265 -500.266 600.751C-485.472 595.794 -471.335 586.33 -458.758 570.632C-451.278 561.306 -444.531 550.092 -438.369 537.978C-431.614 524.719 -425.795 510.015 -419.306 496.327C-411.506 479.908 -402.543 463.416 -391.179 455.735C-380.172 448.291 -368.945 452.63 -358.897 461.993C-358.682 462.195 -358.904 462.554 -359.183 462.458C-363.224 461.056 -367.35 460.527 -371.46 461.07C-378.379 462 -384.947 466.448 -390.719 473.414C-402.879 488.075 -411.084 511.66 -419.547 532.771C-424.095 544.128 -428.798 555.299 -434.235 565.282C-440.865 577.483 -448.922 586.88 -456.933 595.733C-475.614 616.358 -496.416 630.504 -518.303 632.921C-519.901 633.109 -520.961 631.401 -520.205 629.981C-516.801 623.587 -513.576 616.851 -510.522 609.829ZM-500.502 658.215C-501.922 658.777 -503.429 659.078 -504.954 659.173C-509.358 659.446 -513.764 659.652 -518.17 659.806C-526.824 660.109 -532.042 650.11 -527.503 642.736C-525.597 639.64 -522.169 637.574 -518.554 637.185C-499.281 635.116 -480.748 624.281 -463.664 607.662C-454.702 598.952 -445.755 588.94 -437.877 577.154C-432.02 568.386 -427.051 557.773 -422.426 546.86C-413.339 525.463 -405.562 501.419 -394.221 483.612C-388.932 475.288 -382.739 469.152 -375.899 466.506C-372.139 465.061 -368.262 464.889 -364.448 465.433C-359.487 466.148 -354.074 468.05 -349.761 472.756C-349.402 473.157 -349.77 473.74 -350.3 473.652C-356.878 472.557 -363.512 472.777 -369.869 476.174C-376.577 479.736 -381.819 487.717 -385.922 497.858C-388.324 503.794 -390.29 510.33 -392.154 516.881C-394.517 525.22 -397.177 533.172 -400.141 540.838C-406.092 556.271 -413.268 569.988 -421.139 582.131C-427.441 591.857 -434.25 600.282 -441.177 608.406C-448.688 617.217 -456.363 625.527 -464.28 633.05C-475.699 643.905 -487.866 653.211 -500.502 658.215ZM-457.935 650.517C-460.694 652.752 -463.925 654.368 -467.426 654.964C-471.605 655.675 -475.782 656.294 -479.951 656.836C-482.399 657.155 -483.6 653.623 -481.581 652.201C-471.141 644.846 -461.103 635.285 -451.551 625.083C-433.346 605.646 -415.725 583.647 -402.38 553.325C-397.567 542.383 -393.417 530.626 -389.884 518.168C-387.185 508.671 -384.174 499.245 -379.962 491.708C-370.537 474.863 -356.236 475.996 -343.99 479.361C-343.781 479.418 -343.599 479.546 -343.471 479.72C-342.966 480.411 -343.551 481.4 -344.406 481.381C-349.228 481.272 -353.973 483.156 -358.403 487.502C-364.776 493.753 -369.612 504.294 -373.59 515.107C-382.833 540.238 -387.279 571.032 -398.643 593.502C-407.551 611.138 -419.462 622.051 -431.427 631.033C-440.242 637.642 -449.232 643.465 -457.935 650.517ZM-421.319 642.316C-421.661 642.519 -422.028 642.696 -422.399 642.84C-429.941 645.773 -433.815 637.601 -427.445 632.61C-424.352 630.185 -421.291 627.627 -418.284 624.84C-410.726 617.832 -403.643 609.078 -397.707 597.936C-391.577 586.422 -387.521 572.605 -383.683 558.288C-378.746 539.909 -373.995 520.671 -366.523 505.195C-363.091 498.072 -358.949 491.979 -354.082 488.547C-350.101 485.731 -347.678 493.541 -350.176 497.728C-355.329 506.37 -359.355 518.561 -362.28 528.752C-365.47 539.852 -368.067 551.48 -370.548 563.151C-372.256 571.218 -374.003 578.97 -376.499 586.351C-378.948 593.588 -381.944 600.125 -385.274 606.06C-395.229 623.793 -408.24 634.557 -421.319 642.316ZM-377.789 617.704C-378.024 618.063 -378.339 618.393 -378.683 618.651C-382.218 621.297 -387.299 615.258 -385.021 611.475C-382.351 607.04 -379.875 602.178 -377.646 596.835C-374.775 589.955 -372.389 582.517 -370.478 574.594C-369.05 568.658 -367.919 562.465 -366.593 556.429C-363.824 543.828 -360.728 531.413 -356.82 519.842C-352.219 506.196 -345.032 490.221 -335.703 490.975C-335.365 491.002 -335.06 491.185 -334.854 491.455C-334.262 492.231 -334.701 493.386 -335.598 493.77C-348.063 499.098 -351.043 530.446 -353.325 551.036C-354.215 559.046 -355.197 567.042 -356.843 574.665C-358.59 582.775 -361.336 590.041 -364.347 596.72C-365.002 598.165 -366.078 599.352 -366.866 600.568C-368.138 602.556 -369.401 604.558 -370.665 606.561C-373.028 610.295 -375.392 614.043 -377.789 617.704ZM-365.47 604.015C-364.604 602.656 -363.738 601.297 -362.849 599.981C-361.133 597.436 -359.745 592.93 -358.52 589.583C-353.63 576.167 -351.945 560.505 -350.291 544.929C-348.895 531.756 -347.218 517.124 -342.437 506.511C-339.452 499.889 -335.341 496.957 -330.775 497.312C-330.491 497.335 -330.233 497.486 -330.057 497.711C-329.599 498.3 -329.877 499.174 -330.514 499.565C-337.219 503.686 -339.009 521.567 -339.902 533.515C-340.658 543.628 -341.017 553.811 -341.735 563.924C-342.257 571.304 -342.803 580.887 -345.627 586.708C-345.857 587.159 -346.038 587.641 -346.365 588.028C-351.84 594.518 -357.52 600.44 -363.339 605.837C-364.641 607.044 -366.425 605.512 -365.47 604.015ZM-299.529 672.369C-299.867 672.707 -300.155 673.095 -300.499 673.427C-311.559 684.096 -322.889 693.783 -334.496 702.144C-341.252 707.01 -349.577 698.661 -346.051 691.119C-345.831 690.65 -345.551 690.163 -345.243 689.746C-333.14 673.365 -318.516 664.187 -304.607 654.076C-296.331 648.054 -288.117 641.56 -280.497 633.05C-276.722 628.831 -273.141 624.025 -269.803 618.718C-266.176 612.954 -263.142 606.303 -260.037 599.624C-245.561 568.472 -229.415 539.051 -215.78 506.382C-218.721 515.937 -221.817 525.334 -225.031 534.574C-243.782 588.482 -268.095 642.404 -299.529 672.369ZM-232.226 819.41C-233.041 820.382 -234.139 821.086 -235.365 821.412C-240.753 822.848 -244.93 816.944 -241.779 812.344C-215.601 774.137 -186.826 742.328 -158.953 708.348C-158.239 707.478 -157.456 706.666 -156.6 705.937C-154.535 704.178 -152.448 702.488 -150.362 700.818C-146.516 697.743 -142.647 694.782 -138.841 691.549C-133.958 687.416 -129.489 681.466 -124.926 676.274C-114.794 664.746 -104.537 653.589 -93.6713 644.55C-83.4689 636.082 -72.5566 631.191 -61.6835 626.571C-51.2158 622.123 -40.6546 617.975 -30.5927 610.909C-26.1389 607.791 -21.8566 604.101 -17.9644 599.023C-14.3998 594.375 -11.194 588.868 -8.27679 582.889C3.82098 558.088 10.5914 525.706 16.2074 494.54C26.2928 438.586 34.085 378.728 53.1169 330.126C64.1696 301.906 79.5044 280.767 98.2556 273.615C98.5287 273.513 98.7297 273.279 98.8671 272.974C99.012 272.653 99.2421 272.367 99.5786 272.262C100.539 271.963 101.419 273.208 100.772 273.978C89.257 287.678 78.6573 303.858 69.5906 322.875C58.6238 345.86 50.2934 372.478 44.1236 400.755C37.4936 431.106 33.422 463.144 30.4112 495.298C27.1586 530.097 20.396 564.324 7.24518 590.77C0.474792 604.401 -7.80884 614.885 -17.083 621.937C-27.301 629.703 -38.1664 634.252 -48.8368 639.386C-59.6944 644.621 -70.4896 650.6 -80.4814 660.154C-86.0116 665.432 -91.3859 671.382 -96.8458 676.932C-102.228 682.41 -107.618 687.845 -113.015 693.266C-153.263 733.705 -193.733 773.501 -232.226 819.41ZM9.09375 729.138C7.91473 731.688 5.6449 733.628 2.90619 734.254C-0.366699 735.002 -3.63336 735.815 -6.89624 736.704C-25.5851 741.796 -43.7668 751.207 -62.1514 759.031C-96.6653 773.702 -131.468 785.915 -166.239 798.283C-166.248 798.287 -166.253 798.28 -166.251 798.27C-166.25 798.267 -166.249 798.263 -166.247 798.261C-159.813 792.484 -153.449 786.592 -146.875 781.344C-134.247 771.232 -121.283 762.564 -108.6 752.709C-96.6976 743.455 -85.1224 733.228 -74.3818 719.941C-64.3588 707.54 -54.991 693.466 -45.0616 680.822C-40.0462 674.429 -34.8748 668.493 -29.4772 663.244C-24.3682 658.266 -18.9394 654.433 -13.6744 650.071C-3.32379 641.489 6.82397 631.977 16.1528 620.049C25.2866 608.377 33.3907 594.16 39.6776 577.268C42.9848 568.386 45.0128 557.273 46.9004 547.16C48.9362 536.19 50.5273 524.962 52.0172 513.72C54.989 491.221 57.212 468.065 61.6813 446.353C66.0961 424.884 71.096 403.815 76.8134 383.405C82.5776 362.852 89.1218 342.656 97.0778 324.691C104.176 308.657 112.132 293.997 119.581 278.535C126.905 263.345 133.488 247.097 138.402 228.889C140.672 220.479 142.294 211.583 144.58 203.201C146.506 196.135 148.737 189.342 151.046 182.662C161.553 152.24 174.111 124.048 182.535 91.3229C188.938 66.4146 192.122 38.5888 186.538 12.8979C186.437 12.4336 186.905 12.0526 187.334 12.2575C187.516 12.3447 187.634 12.5231 187.672 12.7215C187.684 12.7799 187.697 12.8388 187.714 12.8995C191.427 28.6185 191.372 46.3399 189.804 62.9601C188.143 80.5814 184.695 97.602 180.452 113.65C176.419 128.883 171.357 142.585 165.928 156.216C159.002 173.594 152.286 191.272 146.475 209.995C140.766 228.417 135.969 247.698 131.421 267.164C129.222 276.619 126.928 286.001 124.245 295.012C121.57 303.966 118.286 311.904 114.916 319.971C101.976 351.009 92.4836 387.195 84.5743 423.296C82.4996 432.779 80.9318 442.233 80.0114 452.317C79.0676 462.701 78.6776 473.242 78.3889 483.755C77.8195 504.294 78.0613 525.406 75.2689 545.458C75.172 546.195 75.2325 546.949 75.1442 547.686C71.7277 576.181 66.905 603.651 58.3274 628.487C54.1154 640.674 49.1858 651.973 43.9208 662.686C39.1472 672.383 34.241 681.966 29.249 691.292C24.3895 700.346 19.3975 709.156 14.5615 718.253C12.6818 721.786 10.8253 725.362 9.09375 729.138ZM81.8132 725.448C81.4748 725.973 80.9931 726.473 80.3685 726.487C69.4673 726.73 58.566 727.089 47.6648 727.836C36.8693 728.58 26.0914 729.839 15.3514 731.754C13.2859 732.122 11.728 730.06 12.6584 728.18C15.248 722.959 17.978 717.967 20.7002 712.99C26.3786 702.591 32.2676 692.479 37.5248 681.366C40.9022 674.228 44.6696 667.721 48.0547 660.583C51.1436 654.076 54.0608 647.31 56.7986 640.302C61.6268 627.944 65.7062 614.656 68.912 600.654C75.6122 571.404 78.506 539.837 81.743 508.857C82.2775 503.718 82.9166 498.635 83.6311 493.606C83.6618 493.39 83.7135 493.177 83.771 492.966C99.6752 421.237 132.856 368.53 150.04 298.102C154.462 279.98 156.116 260.571 158.854 241.505C160.266 231.693 162.192 222.196 164.883 213.299C167.676 204.074 171.279 195.535 174.547 186.867C181.185 169.303 187.729 151.539 192.76 132.215C195.327 122.332 197.144 111.69 198.774 101.178C201.489 83.6851 203.579 65.1198 203.025 46.8405C202.748 37.7925 201.535 28.575 198.779 21.5156C198.534 20.8897 199.312 20.2881 199.827 20.7195C199.918 20.7959 199.987 20.8974 200.023 21.0108C206.842 42.4987 207.37 67.6171 204.601 92.1096C201.114 122.918 193.548 151.868 186.232 180.116C179.298 206.906 171.685 233.767 167.449 262.516C166.435 269.453 165.843 276.49 165.141 283.541C164.158 293.396 163.035 303.208 161.763 312.963C159.431 330.798 156.475 348.363 152.848 365.455C149.158 382.876 144.705 399.71 139.853 416.13C134.518 434.166 128.387 451.373 123.699 470.053C115.845 501.319 112.732 534.488 110.767 568.472C110.283 576.896 109.831 585.335 109.339 593.76C108.864 602.084 108.552 610.594 107.6 618.79C106.079 631.992 103.762 644.907 101.259 657.58C98.4818 671.668 95.3228 685.542 91.61 698.901C89.0516 708.127 86.189 718.611 81.8132 725.448ZM104.854 726.02C95.9024 726.191 89.3071 716.166 91.802 707.567C92.515 705.11 93.191 702.659 93.8486 700.289C97.733 686.286 100.978 671.668 103.872 656.908C106.446 643.777 108.801 630.332 110.221 616.602C111.196 607.276 111.477 597.521 112.007 588.067C112.514 579.099 112.998 570.131 113.544 561.177C114.55 544.5 115.868 527.866 118.122 511.589C120.579 493.824 124.269 476.775 128.839 460.498C133.925 442.362 140.009 425.213 145.11 407.062C149.619 391.029 153.604 374.494 156.958 357.531C160.429 340.024 163.12 322.031 165.304 303.837C167.184 288.147 168.214 272.142 170.796 256.766C175.71 227.559 183.681 200.226 190.732 172.636C201.256 131.489 214.689 77.8714 205.683 32.75C205.175 30.2036 208.255 28.3926 210.1 30.2204C210.747 30.8423 211.189 31.6508 211.409 32.5211C215.79 49.8235 217.506 68.3979 216.769 87.4754C216.036 106.556 212.955 125.135 209.733 143.229C206.364 162.109 202.674 180.803 200.124 200.126C197.448 220.393 196.075 241.176 195.147 261.929C193.244 304.281 192.324 348.134 181.131 386.452C172.145 417.232 159.782 444.15 150.695 474.801C146.21 489.92 142.7 505.996 140.781 522.874C138.613 541.954 138.839 561.721 139.221 581.087C140.04 622.208 142.599 664.331 135.251 704.093C134.813 706.453 134.337 708.786 133.825 711.092C131.96 719.489 124.435 725.288 115.841 725.654C112.178 725.809 108.516 725.945 104.854 726.02ZM161.537 725.777C161.054 725.72 160.571 725.666 160.088 725.615C146.666 724.2 136.5 711.682 138.565 698.346C143.049 669.402 143.008 638.653 142.248 608.277C141.733 587.781 141.023 567.27 141.53 546.746C141.982 528.352 144.354 510.473 148.3 493.567C155.749 461.657 167.972 434.553 177.886 405.26C180.452 397.665 182.862 389.899 185.046 381.918C187.737 372.12 189.57 361.235 191.146 350.694C194.149 330.641 195.42 309.902 196.341 289.22C197.284 268.051 197.908 246.825 199.749 225.829C201.52 205.661 204.421 186.152 207.908 166.771C214.296 131.314 222.065 94.7271 218.22 56.7811C217.526 49.9701 216.416 43.3207 215.005 36.9055C214.871 36.299 215.622 35.8937 216.046 36.3466C216.07 36.3719 216.092 36.3994 216.111 36.4284C243.359 77.8429 232.537 150.241 224.319 203.587C219.748 233.252 214.374 262.845 211.925 293.425C210.56 310.445 210.615 327.809 210.318 344.973C209.991 363.939 209.624 382.904 208.516 401.784C207.401 420.679 205.342 439.33 202.214 457.452C200.475 467.521 198.298 477.233 196.075 486.959C193.845 496.728 192.37 507.026 191.481 517.482C188.073 557.673 194.313 598.036 193.018 638.385C192.48 655.077 190.717 671.082 187.261 686.572C185.14 696.087 182.549 705.219 179.84 714.233C177.495 722.038 169.633 726.709 161.537 725.777ZM199.882 733.356C188.378 730.368 181.319 718.511 184.552 707.073C187.275 697.44 189.755 687.597 191.645 677.275C195.233 657.666 195.857 636.24 195.475 615.715C195.1 595.476 193.525 575.395 192.987 555.17C192.425 534.502 193.306 513.92 197.043 494.282C198.961 484.156 201.52 474.472 203.431 464.332C205.17 455.12 206.605 445.723 207.783 436.226C209.998 418.39 211.122 400.168 211.785 381.932C213.033 347.204 211.917 311.99 215.833 277.763C219.382 246.682 225.006 216.517 229.397 185.823C233.562 156.673 237.205 125.908 235.411 95.6281C234.436 79.219 231.463 63.8395 226.471 50.7364C226.117 49.8072 227.382 49.0204 228.031 49.7742C228.119 49.8764 228.179 49.9991 228.223 50.1267C228.321 50.4137 228.47 50.6607 228.687 50.8597C229.21 51.3031 229.717 51.7894 230.208 52.3043C230.832 53.0194 231.448 53.7489 232.072 54.4783C237.423 61.3724 240.808 72.0997 243.094 83.4277C245.988 97.8022 247.29 113.135 248.585 128.21C249.264 136.177 250.114 144.115 250.644 152.125C251.284 161.808 251.362 171.606 251.019 181.346C250.379 199.411 247.953 217.047 245.332 234.439C242.766 251.503 240.052 268.495 238.593 286.03C236.986 305.339 237.314 324.877 238.445 344.243C239.451 361.65 241.323 378.828 242.517 396.192C243.741 413.956 243.889 431.821 242.322 449.542C241.362 460.37 239.553 470.739 238.102 481.352C236.729 491.421 235.894 501.734 235.559 512.089C234.935 531.227 236.472 550.307 238.812 568.915C241.362 589.211 244.771 609.107 247.54 629.303C250.207 648.769 251.003 668.994 249.092 688.846C247.885 701.373 245.611 713.374 242.765 724.935C240.137 735.615 228.986 741.553 218.423 738.491C212.248 736.701 206.069 734.963 199.882 733.356ZM286.197 756.249C286.197 756.254 286.196 756.259 286.195 756.263C286.185 756.303 286.151 756.335 286.11 756.328C281.441 755.459 276.779 754.477 272.133 753.41C267.841 752.429 263.555 751.361 259.276 750.234C248.568 747.412 242.594 736.206 245.186 725.44C247.441 716.074 249.325 706.425 250.621 696.427C252.976 678.219 252.93 659.482 251.307 641.088C249.466 620.149 245.52 599.71 242.602 579.199C239.927 560.319 237.844 541.153 237.766 521.587C237.72 511.088 238.32 500.618 239.412 490.32C240.567 479.364 242.587 468.794 243.843 457.881C245.886 440.174 246.253 422.138 245.34 404.144C244.474 387.052 242.602 370.175 241.37 353.168C239.958 333.688 239.225 313.792 240.356 294.197C242.4 258.711 250.543 225.571 252.906 190.171C254.139 171.692 253.203 153.87 251.572 135.605C250.246 120.644 249.131 105.583 246.877 90.9654C246.239 86.8326 245.484 82.6765 244.58 78.6287C243.987 75.9729 247.713 74.0782 249.207 76.3523C249.313 76.514 249.405 76.6966 249.469 76.8793C253.073 87.234 255.47 99.4577 257.875 110.375C259.762 118.942 261.915 127.367 263.631 136.049C265.472 145.403 266.72 155.114 267.594 164.912C269.395 185.151 269.302 205.876 268.631 226.286C267.952 246.597 266.845 267.064 265.261 287.203C262.001 328.61 258.101 369.932 257.516 411.854C257.22 433.523 258.187 455.135 257.773 476.804C257.407 495.813 256.369 514.764 256.159 533.787C255.94 552.939 256.845 572.033 259.419 590.627C262.173 610.523 266.923 629.446 271.587 648.025C275.823 664.917 280.206 681.766 283.178 699.588C286.259 717.994 287.343 737.086 286.197 756.249ZM324.885 741.042C325.585 751.269 317.452 759.778 307.225 759.082C306.879 759.059 306.534 759.034 306.188 759.008C296.044 758.247 289.025 749.067 288.943 738.894C288.852 727.768 288.053 716.703 286.548 705.752C284.137 688.188 280.058 671.554 275.947 655.163C271.267 636.483 266.377 617.789 263.015 598.136C259.755 579.07 258.475 559.275 258.468 539.351C258.452 520.457 259.482 501.634 259.981 482.782C260.542 461.242 259.692 439.816 259.801 418.29C260.012 375.967 263.857 334.245 267.188 292.481C268.779 272.571 269.918 252.461 270.745 232.408C271.572 212.126 271.767 191.702 270.441 171.477C269.801 161.794 268.771 152.197 267.289 142.814C265.831 133.617 263.639 125.035 261.666 116.196C261.606 115.93 261.547 115.664 261.488 115.398C260.567 111.236 266.057 109.298 267.774 113.2C267.87 113.419 267.947 113.653 267.997 113.887C268.231 114.983 268.438 116.063 268.608 117.097C269.099 120.158 270.246 122.79 271.127 125.564C272.313 129.297 273.389 133.145 274.387 137.05C278.311 152.311 280.69 168.802 282.117 185.423C285.175 221.008 283.669 257.61 281.478 293.21C279.239 329.583 275.893 365.726 274.13 402.199C273.319 418.862 272.89 435.625 273.272 452.346C273.74 472.642 274.005 492.966 274.637 513.234C275.862 552.824 279.762 591.786 290.455 626.714C299.332 655.692 312.373 679.864 320.033 710.158C322.528 720.042 324.158 730.419 324.885 741.042ZM339.171 757.332C333.032 758.371 327.766 753.387 327.553 747.165C327.164 735.762 325.768 724.572 323.418 713.819C320.15 698.83 315.275 685.27 310.189 672.169C304.87 658.452 299.262 645.107 294.465 630.747C288.739 613.612 284.551 594.947 281.766 575.552C276.15 536.376 276.72 495.355 275.69 455.206C274.801 420.564 277.172 386.051 279.668 351.781C282.343 315.18 285.354 278.55 286.009 241.591C286.61 207.564 285.066 172.55 277.851 140.84C277.595 139.722 279.536 139.018 280.05 140.043C282.896 145.716 285.891 151.139 289.145 156.13C289.466 156.651 289.798 157.198 289.821 157.809C289.871 159.118 289.919 160.425 289.956 161.722C291.025 194.062 289.215 226.83 288.568 259.169C287.148 329.654 286.711 400.426 290.736 470.668C296.349 568.647 311.845 666.498 346.403 742.986C349.142 749.046 345.728 756.222 339.171 757.332ZM352.315 741.833C352.195 741.943 352.006 741.906 351.937 741.76C351.898 741.676 351.908 741.577 351.964 741.504C360.134 730.77 369.793 725.184 379.274 719.555C389.032 713.762 398.524 707.254 407.05 696.584C423.952 675.43 436.159 644.164 453.171 623.167C460.503 614.099 468.397 606.718 476.509 600.21C476.423 600.296 476.337 600.382 476.259 600.468C468.334 609.05 461.533 620.635 455.113 632.607C447.859 646.152 440.746 659.925 433.188 672.913C422.322 691.607 410.139 708.556 395.537 715.75C387.815 719.569 380.015 722.573 372.371 726.964C365.475 730.934 358.777 735.909 352.315 741.833ZM354.791 747.72C354.12 746.352 354.438 744.694 355.589 743.696C364.164 736.261 373.107 730.675 382.3 726.191C387.69 723.574 393.197 721.6 398.532 718.654C403.29 716.008 407.853 712.203 412.182 707.755C430.06 689.418 443.764 659.668 458.007 633.336C464.583 621.193 471.618 609.936 479.839 601.669C489.73 591.714 501.009 587.309 511.921 582.818C523.434 578.098 535.157 574.279 546.358 567.385C553.729 562.851 560.881 557.058 567.691 550.207C578.494 539.322 588.727 525.177 595.911 506.597C600.811 493.931 603.528 479.417 603.775 464.457C603.803 462.765 606.377 462.27 606.956 463.86C607.998 466.704 609.031 469.581 610.059 472.471C610.77 474.469 611.162 476.568 611.174 478.688C611.245 492.167 609.816 505.418 606.137 517.281C602.494 529.024 596.871 538.178 590.701 545.33C584.141 552.924 576.887 558.317 569.571 562.894C561.622 567.843 553.487 571.919 545.32 575.466C533.191 580.715 521.062 585.936 509.019 591.814C503.466 594.518 497.967 597.264 492.678 601.426C488.053 605.059 483.693 609.736 479.566 615C471.493 625.298 464.395 637.927 456.861 649.456C447.852 663.244 438.726 676.875 429.42 689.99C418.243 705.752 406.355 721.729 393.033 730.768C382.199 738.095 370.787 741.966 359.927 749.042C358.148 750.2 355.725 749.626 354.791 747.72ZM387.308 738.764C392.495 735.889 397.596 732.442 402.44 727.951C407.627 723.13 412.564 717.238 417.377 711.288C427.072 699.287 436.206 685.828 445.27 672.298C453.631 659.811 461.868 647.167 470.035 634.266C477.733 622.108 485.876 611.052 495.354 603.986C500.891 599.853 506.765 597.321 512.529 594.546C518.582 591.643 524.65 588.911 530.727 586.222C548.245 578.498 566.178 571.805 582.667 558.059C591.231 550.908 599.507 541.167 605.279 527.308C607.424 522.163 609.11 516.625 610.383 510.817C611.63 505.132 621.579 503.791 623.896 509.13C624.208 509.849 624.346 510.599 624.309 511.382C623.202 534.537 612.893 550.964 602.042 561.778C589.32 574.465 574.921 581.631 560.757 586.479C549.946 590.184 538.917 591.543 528.028 594.26C521.889 595.791 515.782 597.736 509.768 600.453C505.049 602.599 500.385 607.348 496.282 611.967C487.951 621.35 480.869 633.965 473.826 646.252C466.197 659.554 458.296 672.326 449.872 683.926C432.887 707.312 413.97 726.701 394.032 740.896C392.604 741.912 391.035 742.709 389.383 743.294C386.796 744.208 384.211 745.113 381.63 746.001C378.382 747.112 377.089 744.034 380.159 742.499C382.551 741.303 384.938 740.079 387.308 738.764ZM777.355 866.046C763.377 864.859 749.407 863.3 735.422 862.513C720.391 861.684 705.361 862.37 690.346 863.915C658.397 867.205 626.604 874.342 594.655 877.646C578.47 879.32 562.246 879.906 546.053 878.719C530.274 877.575 514.666 874.771 499.41 867.033C485.346 859.896 471.915 849.24 458.795 837.683C452.181 831.848 445.636 825.755 439.084 819.705C434.194 815.185 429.217 811.337 424.225 807.232C413.758 798.608 403.485 789.182 392.979 780.714C387.396 776.219 381.719 771.825 375.922 768.129C371.849 765.532 371.938 758.756 376.194 756.469C376.506 756.302 376.839 756.16 377.176 756.054C381.851 754.584 386.534 753.022 391.231 751.379C394.138 750.358 397.045 749.328 399.952 748.296C401.063 747.901 402.032 749.336 403.165 749.663C411.535 752.137 419.686 756.757 427.681 761.834C437.306 767.956 446.744 775.022 456.12 782.345C473.607 796.004 490.775 811.108 508.403 824.167C513.746 828.129 519.417 830.575 525.009 833.064C531.382 835.896 537.817 838.241 544.283 840.258C557.098 844.248 570.054 846.666 583.026 848.01C596.379 849.398 609.741 849.14 623.11 849.412C636.682 849.669 650.254 850.299 663.818 851.085C690.673 852.644 717.521 854.89 744.376 856.363C757.73 857.093 771.084 857.622 784.437 857.793C789.242 857.851 793.976 857.965 798.758 856.892C802.829 855.963 806.878 854.718 810.918 853.474C812.533 852.988 814.202 852.201 815.84 852.115C816.39 852.089 816.924 851.692 817.463 851.808C824.987 853.43 832.511 855.037 840.036 856.578C845.177 857.637 845.639 864.175 840.505 865.27C819.615 869.726 798.17 867.82 777.355 866.046ZM855.402 850.156C838.819 846.408 822.213 842.961 805.614 839.5C804.523 839.267 803.342 840.124 802.253 839.879C790.278 837.186 778.303 834.388 766.349 831.447C759.021 829.635 759.891 825.662 767.078 827.971C786.814 834.313 806.52 841.106 826.292 832.019C826.714 831.808 827.226 831.579 827.636 831.813C837.131 837.221 846.655 842.457 856.208 847.487C857.264 848.043 856.566 850.416 855.402 850.156Z" fill="white" fill-opacity="0.02"/>
</g>
<defs>
<filter id="filter0_b_269_35019" x="-710" y="-22" width="1604" height="1037" filterUnits="userSpaceOnUse" color-interpolation-filters="sRGB">
<feFlood flood-opacity="0" result="BackgroundImageFix"/>
<feGaussianBlur in="BackgroundImage" stdDeviation="11"/>
<feComposite in2="SourceAlpha" operator="in" result="effect1_backgroundBlur_269_35019"/>
<feBlend mode="normal" in="SourceGraphic" in2="effect1_backgroundBlur_269_35019" result="shape"/>
</filter>
</defs>
</svg>
