<svg width="64" height="74" viewBox="0 0 64 74" fill="none" xmlns="http://www.w3.org/2000/svg">
<path fill-rule="evenodd" clip-rule="evenodd" d="M52.2405 63.8076L54.4087 74L45.6562 69.1321L52.2405 63.8076Z" fill="#37383D"/>
<path fill-rule="evenodd" clip-rule="evenodd" d="M45.6224 69.2709L54.0154 66.9584L52.6232 62.9983L44.3672 68.5772L45.6224 69.2709Z" fill="#A6AEE8"/>
<path fill-rule="evenodd" clip-rule="evenodd" d="M11.7594 63.8076L9.59131 74L18.3437 69.1321L11.7594 63.8076Z" fill="#37383D"/>
<path fill-rule="evenodd" clip-rule="evenodd" d="M11.4912 64.7847L16.495 71.092L19.4905 69.005L11.4912 64.7847Z" fill="#A6AEE8"/>
<path fill-rule="evenodd" clip-rule="evenodd" d="M32.0029 7.50977C49.6618 7.50977 64 22.038 64 39.931C64 57.824 49.6618 72.358 32.0029 72.358C14.3382 72.358 0 57.8298 0 39.9368C0 22.038 14.3382 7.50977 32.0029 7.50977Z" fill="#37383D"/>
<path fill-rule="evenodd" clip-rule="evenodd" d="M32.0026 10.6895C47.9327 10.6895 60.8617 23.7898 60.8617 39.931C60.8617 56.0723 47.9327 69.1726 32.0026 69.1726C16.0725 69.1726 3.14356 56.0723 3.14356 39.931C3.13785 23.7955 16.0725 10.6895 32.0026 10.6895Z" fill="#E6E6E6"/>
<path fill-rule="evenodd" clip-rule="evenodd" d="M36.3848 8.77014H27.6152L29.8062 3.06982H34.1938L36.3848 8.77014Z" fill="#37383D"/>
<path fill-rule="evenodd" clip-rule="evenodd" d="M29.0244 4.33583L35.9225 6.23208L34.7871 3.51489L29.0244 4.33583Z" fill="#A6AEE8"/>
<path d="M39.8198 0H24.1807V4.33016H39.8198V0Z" fill="#37383D"/>
<path fill-rule="evenodd" clip-rule="evenodd" d="M33.2811 7.55027H30.7192L31.3583 7.15137H32.642L33.2811 7.55027Z" fill="#37383D"/>
<path fill-rule="evenodd" clip-rule="evenodd" d="M32.0198 17.5171L33.2465 41.0872H30.7988L32.0198 17.5171Z" fill="#37383D"/>
<path fill-rule="evenodd" clip-rule="evenodd" d="M50.0784 39.9889L31.1187 41.2261V38.7517L50.0784 39.9889Z" fill="#37383D"/>
<path d="M32.0543 41.8504C33.0722 41.8504 33.8973 41.0144 33.8973 39.9831C33.8973 38.9518 33.0722 38.1157 32.0543 38.1157C31.0365 38.1157 30.2114 38.9518 30.2114 39.9831C30.2114 41.0144 31.0365 41.8504 32.0543 41.8504Z" fill="#A6AEE8"/>
<path fill-rule="evenodd" clip-rule="evenodd" d="M32.0029 63.166L32.6134 66.7388H31.3867L32.0029 63.166Z" fill="#A6AEE8"/>
<path fill-rule="evenodd" clip-rule="evenodd" d="M32.0029 16.546L31.3867 12.9731H32.6134L32.0029 16.546Z" fill="#A6AEE8"/>
<path fill-rule="evenodd" clip-rule="evenodd" d="M55.0078 39.8558L58.5282 39.2314V40.4802L55.0078 39.8558Z" fill="#A6AEE8"/>
<path fill-rule="evenodd" clip-rule="evenodd" d="M8.99205 39.8558L5.47168 40.4802V39.2314L8.99205 39.8558Z" fill="#A6AEE8"/>
<path fill-rule="evenodd" clip-rule="evenodd" d="M43.5054 19.6679L44.7321 16.2627L45.799 16.8871L43.5054 19.6679Z" fill="#A6AEE8"/>
<path fill-rule="evenodd" clip-rule="evenodd" d="M20.4948 60.0439L19.2681 63.4491L18.2012 62.8247L20.4948 60.0439Z" fill="#A6AEE8"/>
<path fill-rule="evenodd" clip-rule="evenodd" d="M20.4948 19.6679L18.2012 16.8871L19.2681 16.2627L20.4948 19.6679Z" fill="#A6AEE8"/>
<path fill-rule="evenodd" clip-rule="evenodd" d="M43.5054 60.0439L45.799 62.8247L44.7321 63.4491L43.5054 60.0439Z" fill="#A6AEE8"/>
<path fill-rule="evenodd" clip-rule="evenodd" d="M12.0732 28.201L8.71826 26.958L9.33447 25.877L12.0732 28.201Z" fill="#A6AEE8"/>
<path fill-rule="evenodd" clip-rule="evenodd" d="M51.9268 51.511L55.2817 52.7597L54.6712 53.8351L51.9268 51.511Z" fill="#A6AEE8"/>
<path fill-rule="evenodd" clip-rule="evenodd" d="M51.9268 28.201L54.6712 25.877L55.2817 26.958L51.9268 28.201Z" fill="#A6AEE8"/>
<path fill-rule="evenodd" clip-rule="evenodd" d="M12.0732 51.511L9.33447 53.8351L8.71826 52.7597L12.0732 51.511Z" fill="#A6AEE8"/>
</svg>
