<svg width="64" height="64" viewBox="0 0 64 64" fill="none" xmlns="http://www.w3.org/2000/svg">
<g filter="url(#filter0_bii_545_13066)">
<rect width="64" height="64" rx="15" fill="white" fill-opacity="0.1"/>
</g>
<path d="M43.2864 22.0336C46.9682 27.2595 48.7865 33.1542 48.1068 39.9403C48.1039 39.969 48.0885 39.9954 48.064 40.0127C45.2758 41.9891 42.5745 43.1886 39.911 43.984C39.8903 43.9901 39.8681 43.9898 39.8475 43.9831C39.827 43.9764 39.8092 43.9636 39.7965 43.9466C39.1811 43.1201 38.622 42.2487 38.1322 41.3337C38.1041 41.2798 38.1298 41.2149 38.1876 41.1936C39.0756 40.8707 39.92 40.4836 40.7321 40.0252C40.7961 39.9891 40.8002 39.9005 40.7411 39.8581C40.5687 39.7345 40.398 39.6047 40.2346 39.4749C40.204 39.4509 40.1628 39.4462 40.1282 39.4623C34.8555 41.8128 29.0794 41.8128 23.7444 39.4623C23.7097 39.4473 23.6686 39.4525 23.6388 39.4761C23.4758 39.6059 23.3047 39.7345 23.1339 39.8581C23.0748 39.9005 23.0797 39.9891 23.1441 40.0252C23.9563 40.4749 24.8006 40.8707 25.6874 41.1952C25.7448 41.2165 25.7721 41.2798 25.7436 41.3337C25.2644 42.2499 24.7053 43.1213 24.0785 43.9478C24.0512 43.9813 24.0064 43.9966 23.964 43.984C21.3132 43.1886 18.6118 41.9891 15.8236 40.0127C15.8004 39.9954 15.7837 39.9678 15.7812 39.9391C15.2132 34.0692 16.3709 28.1258 20.5972 22.0324C20.6074 22.0163 20.6228 22.0037 20.6408 21.9962C22.7203 21.0749 24.9481 20.3971 27.2766 20.01C27.319 20.0037 27.3614 20.0225 27.3834 20.0587C27.6711 20.5505 28 21.1811 28.2225 21.6965C30.6769 21.3345 33.1696 21.3345 35.6754 21.6965C35.8979 21.1921 36.2153 20.5505 36.5018 20.0587C36.512 20.0408 36.5278 20.0264 36.547 20.0176C36.5662 20.0089 36.5877 20.0062 36.6086 20.01C38.9383 20.3982 41.1661 21.0761 43.244 21.9962C43.2623 22.0037 43.2774 22.0163 43.2864 22.0336ZM29.4702 33.1943C29.4959 31.459 28.1854 30.0231 26.5403 30.0231C24.9086 30.0231 23.6107 31.4464 23.6107 33.1943C23.6107 34.9418 24.9343 36.3651 26.5403 36.3651C28.1723 36.3651 29.4702 34.9418 29.4702 33.1943ZM40.3026 33.1943C40.3283 31.459 39.0177 30.0231 37.373 30.0231C35.741 30.0231 34.4431 31.4464 34.4431 33.1943C34.4431 34.9418 35.7666 36.3651 37.373 36.3651C39.0177 36.3651 40.3026 34.9418 40.3026 33.1943Z" fill="#7289D9"/>
<defs>
<filter id="filter0_bii_545_13066" x="-20.3093" y="-20.3093" width="104.619" height="104.619" filterUnits="userSpaceOnUse" color-interpolation-filters="sRGB">
<feFlood flood-opacity="0" result="BackgroundImageFix"/>
<feGaussianBlur in="BackgroundImage" stdDeviation="10.1547"/>
<feComposite in2="SourceAlpha" operator="in" result="effect1_backgroundBlur_545_13066"/>
<feBlend mode="normal" in="SourceGraphic" in2="effect1_backgroundBlur_545_13066" result="shape"/>
<feColorMatrix in="SourceAlpha" type="matrix" values="0 0 0 0 0 0 0 0 0 0 0 0 0 0 0 0 0 0 127 0" result="hardAlpha"/>
<feOffset dx="-0.853333" dy="0.853333"/>
<feGaussianBlur stdDeviation="0.426667"/>
<feComposite in2="hardAlpha" operator="arithmetic" k2="-1" k3="1"/>
<feColorMatrix type="matrix" values="0 0 0 0 0.294118 0 0 0 0 0.380392 0 0 0 0 0.439216 0 0 0 1 0"/>
<feBlend mode="normal" in2="shape" result="effect2_innerShadow_545_13066"/>
<feColorMatrix in="SourceAlpha" type="matrix" values="0 0 0 0 0 0 0 0 0 0 0 0 0 0 0 0 0 0 127 0" result="hardAlpha"/>
<feOffset dx="0.853333" dy="-0.853333"/>
<feGaussianBlur stdDeviation="0.426667"/>
<feComposite in2="hardAlpha" operator="arithmetic" k2="-1" k3="1"/>
<feColorMatrix type="matrix" values="0 0 0 0 0.290196 0 0 0 0 0.372549 0 0 0 0 0.435294 0 0 0 1 0"/>
<feBlend mode="normal" in2="effect2_innerShadow_545_13066" result="effect3_innerShadow_545_13066"/>
</filter>
</defs>
</svg>
