<svg width="24" height="24" viewBox="0 0 24 24" fill="none" xmlns="http://www.w3.org/2000/svg">
<path d="M20.5871 5.89455C17.7932 3.80415 15.1167 3.86271 15.1167 3.86271L14.8431 4.17519C18.1645 5.17167 19.7079 6.63687 19.7079 6.63687C14.9562 4.02063 8.90339 4.03935 3.96083 6.63687C3.96083 6.63687 5.56283 5.09343 9.07955 4.09695L8.88419 3.86247C8.88419 3.86247 6.22715 3.80391 3.41387 5.89431C3.41387 5.89431 0.600586 10.9545 0.600586 17.1868C0.600586 17.1868 2.24171 20.0001 6.55955 20.1369C6.55955 20.1369 7.28243 19.2772 7.86851 18.5349C5.38715 17.7926 4.44947 16.2491 4.44947 16.2491C6.00827 17.2245 7.58459 17.835 9.54875 18.2224C12.7446 18.8802 16.7197 18.2039 19.6885 16.2491C19.6885 16.2491 18.7117 17.8317 16.1523 18.5546C16.7384 19.2774 17.4419 20.1174 17.4419 20.1174C21.7592 19.9809 23.4003 17.1676 23.4003 17.187C23.4003 10.9547 20.5871 5.89455 20.5871 5.89455ZM8.35667 15.3702C7.26251 15.3702 6.36395 14.4129 6.36395 13.221C6.44387 10.367 10.2896 10.3758 10.3496 13.221C10.3494 14.4129 9.47027 15.3702 8.35667 15.3702ZM15.4878 15.3702C14.3936 15.3702 13.4951 14.4129 13.4951 13.221C13.5829 10.3725 17.3807 10.3713 17.4807 13.221C17.4805 14.4129 16.6014 15.3702 15.4878 15.3702Z" fill="white"/>
</svg>
