<svg width="64" height="64" viewBox="0 0 64 64" fill="none" xmlns="http://www.w3.org/2000/svg">
<g filter="url(#filter0_bii_545_13070)">
<rect width="64" height="64" rx="15" fill="white" fill-opacity="0.1"/>
</g>
<path d="M25.2976 45.5037C23.68 45.4301 22.8013 45.1609 22.2168 44.933C21.4424 44.6314 20.8902 44.2725 20.309 43.6921C19.7278 43.1117 19.368 42.5595 19.0681 41.7851C18.8402 41.2006 18.571 40.3219 18.4974 38.7043C18.4166 36.9558 18.4004 36.4311 18.4004 32.0011C18.4004 27.5711 18.4182 27.0473 18.4966 25.2971C18.5702 23.6795 18.841 22.8024 19.0673 22.2163C19.3688 21.4419 19.7286 20.8898 20.3082 20.3077C20.8886 19.7273 21.4408 19.3667 22.216 19.0668C22.8005 18.8389 23.6792 18.5697 25.2968 18.4961C27.0462 18.4161 27.5716 18.3999 32 18.3999C36.43 18.3999 36.9538 18.4177 38.704 18.4961C40.3216 18.5697 41.1987 18.8405 41.7848 19.0668C42.5592 19.3667 43.1113 19.7273 43.6926 20.3077C44.2738 20.8881 44.6319 21.4411 44.9335 22.2155C45.1614 22.8 45.4306 23.6787 45.5042 25.2963C45.5842 27.0465 45.6004 27.5703 45.6004 32.0003C45.6004 36.4287 45.5842 36.9541 45.5042 38.7043C45.4306 40.3219 45.1598 41.2006 44.9335 41.7851C44.6319 42.5595 44.273 43.1117 43.6926 43.6921C43.1122 44.2725 42.5592 44.6314 41.7848 44.933C41.2003 45.1609 40.3216 45.4301 38.704 45.5037C36.9554 45.5837 36.43 45.5999 32 45.5999C27.5716 45.5999 27.0462 45.5845 25.2976 45.5037Z" fill="url(#paint0_radial_545_13070)"/>
<path d="M25.2976 45.5037C23.68 45.4301 22.8013 45.1609 22.2168 44.933C21.4424 44.6314 20.8902 44.2725 20.309 43.6921C19.7278 43.1117 19.368 42.5595 19.0681 41.7851C18.8402 41.2006 18.571 40.3219 18.4974 38.7043C18.4166 36.9558 18.4004 36.4311 18.4004 32.0011C18.4004 27.5711 18.4182 27.0473 18.4966 25.2971C18.5702 23.6795 18.841 22.8024 19.0673 22.2163C19.3688 21.4419 19.7286 20.8898 20.3082 20.3077C20.8886 19.7273 21.4408 19.3667 22.216 19.0668C22.8005 18.8389 23.6792 18.5697 25.2968 18.4961C27.0462 18.4161 27.5716 18.3999 32 18.3999C36.43 18.3999 36.9538 18.4177 38.704 18.4961C40.3216 18.5697 41.1987 18.8405 41.7848 19.0668C42.5592 19.3667 43.1113 19.7273 43.6926 20.3077C44.2738 20.8881 44.6319 21.4411 44.9335 22.2155C45.1614 22.8 45.4306 23.6787 45.5042 25.2963C45.5842 27.0465 45.6004 27.5703 45.6004 32.0003C45.6004 36.4287 45.5842 36.9541 45.5042 38.7043C45.4306 40.3219 45.1598 41.2006 44.9335 41.7851C44.6319 42.5595 44.273 43.1117 43.6926 43.6921C43.1122 44.2725 42.5592 44.6314 41.7848 44.933C41.2003 45.1609 40.3216 45.4301 38.704 45.5037C36.9554 45.5837 36.43 45.5999 32 45.5999C27.5716 45.5999 27.0462 45.5845 25.2976 45.5037Z" fill="url(#paint1_radial_545_13070)"/>
<path d="M28.661 32.058C28.661 30.1978 30.1685 28.6895 32.0287 28.6895C33.8889 28.6895 35.3973 30.1978 35.3973 32.058C35.3973 33.9182 33.8889 35.4266 32.0287 35.4266C30.1685 35.4266 28.661 33.9182 28.661 32.058ZM26.84 32.058C26.84 34.9238 29.163 37.2468 32.0287 37.2468C34.8945 37.2468 37.2175 34.9238 37.2175 32.058C37.2175 29.1923 34.8945 26.8693 32.0287 26.8693C29.163 26.8693 26.8401 29.1921 26.8401 32.058H26.84ZM36.2104 26.6636C36.2103 26.9034 36.2813 27.1378 36.4145 27.3373C36.5476 27.5368 36.737 27.6923 36.9585 27.7841C37.18 27.876 37.4238 27.9001 37.6591 27.8534C37.8943 27.8067 38.1104 27.6913 38.2801 27.5218C38.4497 27.3523 38.5653 27.1363 38.6122 26.9011C38.6591 26.6659 38.6351 26.4221 38.5435 26.2004C38.4518 25.9788 38.2964 25.7894 38.0971 25.6561C37.8977 25.5228 37.6633 25.4515 37.4235 25.4514H37.423C37.1015 25.4516 36.7933 25.5793 36.5659 25.8066C36.3385 26.0339 36.2107 26.3421 36.2104 26.6636ZM27.9464 40.2833C26.9612 40.2384 26.4257 40.0743 26.0698 39.9357C25.5981 39.752 25.2614 39.5332 24.9075 39.1798C24.5536 38.8264 24.3345 38.4901 24.1517 38.0183C24.013 37.6626 23.8489 37.127 23.8041 36.1418C23.7551 35.0767 23.7453 34.7567 23.7453 32.0582C23.7453 29.3597 23.7559 29.0406 23.8041 27.9746C23.8489 26.9894 24.0143 26.4548 24.1517 26.0981C24.3353 25.6263 24.5541 25.2897 24.9075 24.9358C25.261 24.5819 25.5972 24.3628 26.0698 24.1799C26.4255 24.0412 26.9612 23.8771 27.9464 23.8323C29.0115 23.7833 29.3315 23.7735 32.0287 23.7735C34.726 23.7735 35.0463 23.784 36.1123 23.8325C37.0975 23.8773 37.6321 24.0427 37.9889 24.1801C38.4606 24.3629 38.7973 24.5825 39.1512 24.9359C39.5051 25.2894 39.7233 25.6265 39.907 26.0982C40.0457 26.4539 40.2098 26.9896 40.2546 27.9748C40.3036 29.0408 40.3134 29.3599 40.3134 32.0584C40.3134 34.7569 40.3036 35.0759 40.2546 36.142C40.2098 37.1271 40.0448 37.6626 39.907 38.0185C39.7233 38.4903 39.5046 38.8269 39.1512 39.18C38.7977 39.5331 38.4606 39.7522 37.9889 39.9358C37.6332 40.0745 37.0975 40.2387 36.1123 40.2834C35.0472 40.3324 34.7272 40.3422 32.0287 40.3422C29.3302 40.3422 29.0112 40.3324 27.9464 40.2834V40.2833ZM27.8627 22.0143C26.787 22.0633 26.0519 22.2339 25.4099 22.4837C24.7455 22.7416 24.1823 23.0877 23.6199 23.6492C23.0575 24.2107 22.7123 24.774 22.4544 25.4392C22.2046 26.0816 22.034 26.8163 21.985 27.892C21.9352 28.9694 21.9238 29.3139 21.9238 32.058C21.9238 34.8022 21.9352 35.1467 21.985 36.2241C22.034 37.2999 22.2046 38.0345 22.4544 38.6768C22.7123 39.3413 23.0576 39.9056 23.6199 40.4669C24.1822 41.0281 24.7447 41.3737 25.4099 41.6324C26.0531 41.8822 26.787 42.0528 27.8627 42.1018C28.9407 42.1507 29.2846 42.163 32.0287 42.163C34.7729 42.163 35.1174 42.1516 36.1948 42.1018C37.2706 42.0528 38.0052 41.8822 38.6475 41.6324C39.312 41.3737 39.8752 41.0284 40.4376 40.4669C41 39.9054 41.3444 39.3413 41.6031 38.6768C41.8529 38.0345 42.0243 37.2998 42.0725 36.2241C42.1214 35.1459 42.1328 34.8022 42.1328 32.058C42.1328 29.3139 42.1214 28.9694 42.0725 27.892C42.0235 26.8162 41.8529 26.0812 41.6031 25.4392C41.3444 24.7748 40.9991 24.2116 40.4376 23.6492C39.8761 23.0868 39.312 22.7416 38.6483 22.4837C38.0052 22.2339 37.2705 22.0625 36.1956 22.0143C35.118 21.9651 34.7737 21.9531 32.03 21.9531C29.2862 21.9531 28.9411 21.9645 27.8631 22.0143" fill="white"/>
<defs>
<filter id="filter0_bii_545_13070" x="-20.3093" y="-20.3093" width="104.619" height="104.619" filterUnits="userSpaceOnUse" color-interpolation-filters="sRGB">
<feFlood flood-opacity="0" result="BackgroundImageFix"/>
<feGaussianBlur in="BackgroundImage" stdDeviation="10.1547"/>
<feComposite in2="SourceAlpha" operator="in" result="effect1_backgroundBlur_545_13070"/>
<feBlend mode="normal" in="SourceGraphic" in2="effect1_backgroundBlur_545_13070" result="shape"/>
<feColorMatrix in="SourceAlpha" type="matrix" values="0 0 0 0 0 0 0 0 0 0 0 0 0 0 0 0 0 0 127 0" result="hardAlpha"/>
<feOffset dx="-0.853333" dy="0.853333"/>
<feGaussianBlur stdDeviation="0.426667"/>
<feComposite in2="hardAlpha" operator="arithmetic" k2="-1" k3="1"/>
<feColorMatrix type="matrix" values="0 0 0 0 0.294118 0 0 0 0 0.380392 0 0 0 0 0.439216 0 0 0 1 0"/>
<feBlend mode="normal" in2="shape" result="effect2_innerShadow_545_13070"/>
<feColorMatrix in="SourceAlpha" type="matrix" values="0 0 0 0 0 0 0 0 0 0 0 0 0 0 0 0 0 0 127 0" result="hardAlpha"/>
<feOffset dx="0.853333" dy="-0.853333"/>
<feGaussianBlur stdDeviation="0.426667"/>
<feComposite in2="hardAlpha" operator="arithmetic" k2="-1" k3="1"/>
<feColorMatrix type="matrix" values="0 0 0 0 0.290196 0 0 0 0 0.372549 0 0 0 0 0.435294 0 0 0 1 0"/>
<feBlend mode="normal" in2="effect2_innerShadow_545_13070" result="effect3_innerShadow_545_13070"/>
</filter>
<radialGradient id="paint0_radial_545_13070" cx="0" cy="0" r="1" gradientUnits="userSpaceOnUse" gradientTransform="translate(20.1607 45.004) scale(34.5339)">
<stop offset="0.09" stop-color="#FA8F21"/>
<stop offset="0.78" stop-color="#D82D7E"/>
</radialGradient>
<radialGradient id="paint1_radial_545_13070" cx="0" cy="0" r="1" gradientUnits="userSpaceOnUse" gradientTransform="translate(37.2409 44.1306) scale(30.3902)">
<stop offset="0.64" stop-color="#8C3AAA" stop-opacity="0"/>
<stop offset="1" stop-color="#8C3AAA"/>
</radialGradient>
</defs>
</svg>
