<svg width="64" height="64" viewBox="0 0 64 64" fill="none" xmlns="http://www.w3.org/2000/svg">
<g filter="url(#filter0_bii_545_13077)">
<rect width="64" height="64" rx="15" fill="white" fill-opacity="0.1"/>
</g>
<g clip-path="url(#clip0_545_13077)">
<path d="M37.0299 42.1239C35.7602 43.6376 33.7156 43.9294 31.9988 43.9294C30.2838 43.9294 28.2374 43.6376 26.9696 42.1239H37.0299ZM40.912 18.1622L34.4829 16.3567L31.9867 25.4491L34.4835 16.3567L40.912 18.1622ZM46.0695 18.7829C46.0695 19.585 45.8025 20.3542 45.3272 20.9214C44.8519 21.4885 44.2073 21.8071 43.5352 21.8071C42.8631 21.8071 42.2184 21.4885 41.7432 20.9214C41.2679 20.3542 41.0009 19.585 41.0009 18.7829C41.0157 17.9926 41.2892 17.2406 41.7629 16.6879C42.2366 16.1352 42.8727 15.8257 43.5352 15.8257C44.1977 15.8257 44.8338 16.1352 45.3075 16.6879C45.7811 17.2406 46.0546 17.9926 46.0695 18.7829ZM46.4893 36.9024C46.4893 43.1646 39.9707 48.2421 31.9302 48.2421C23.8891 48.2421 17.371 43.1653 17.371 36.9024C17.371 30.6403 23.8891 25.5628 31.9302 25.5628C39.9707 25.5628 46.4893 30.6395 46.4893 36.9024ZM17.5603 35.1402C16.9885 34.8407 16.5021 34.3489 16.1606 33.7248C15.8192 33.1008 15.6375 32.3716 15.6377 31.6264C15.6373 30.8392 15.8399 30.071 16.2179 29.426C16.596 28.7809 17.1312 28.2903 17.7509 28.0207C18.3706 27.7512 19.0449 27.7157 19.6821 27.9191C20.3193 28.1225 20.8887 28.5549 21.3128 29.1577L17.5603 35.1402ZM42.6339 29.2358C43.0494 28.614 43.6166 28.1616 44.257 27.9414C44.8974 27.7211 45.5794 27.7439 46.2085 28.0064C46.8376 28.269 47.3827 28.7584 47.7685 29.4069C48.1543 30.0555 48.3616 30.831 48.3618 31.6264C48.3617 32.3999 48.1658 33.1554 47.7997 33.7938C47.4336 34.4322 46.9144 34.9237 46.3102 35.2039" fill="white"/>
<path d="M31.9299 49.001C23.5515 49.001 16.7356 43.5741 16.7356 36.9034C16.7356 36.4426 16.768 35.9863 16.8316 35.5383C16.2726 35.1264 15.8111 34.5508 15.4911 33.8661C15.171 33.1815 15.003 32.4105 15.0029 31.6266C15.0041 30.4087 15.41 29.2412 16.1316 28.38C16.8531 27.5188 17.8315 27.0342 18.852 27.0326C19.8003 27.0326 20.7041 27.4465 21.4034 28.1862C24.0387 26.1678 27.5835 24.8975 31.4942 24.8096L34.0615 15.4595L34.6217 15.6172L34.6351 15.621L40.6189 17.3021C40.8631 16.6201 41.2695 16.0385 41.788 15.6294C42.3064 15.2204 42.9141 15.0019 43.5356 15.001C44.376 15.0022 45.1816 15.4011 45.7758 16.1103C46.37 16.8195 46.7042 17.781 46.705 18.7839C46.704 19.7866 46.3698 20.7479 45.7756 21.457C45.1814 22.166 44.3759 22.5648 43.5356 22.5661C42.6959 22.565 41.8908 22.1669 41.2967 21.4588C40.7026 20.7507 40.368 19.7904 40.3661 18.7884L34.9063 17.2544L32.8274 24.8262C36.5958 25.0013 39.999 26.2754 42.5397 28.2499C43.2494 27.4656 44.1816 27.031 45.1489 27.0334C46.1695 27.0348 47.148 27.5192 47.8697 28.3805C48.5914 29.2417 48.9974 30.4094 48.9986 31.6273C49.0017 32.4421 48.8219 33.2429 48.4779 33.9467C48.1338 34.6505 47.6381 35.2314 47.0423 35.6293C47.0976 36.0484 47.1261 36.4729 47.1261 36.9034C47.1249 43.5741 40.3083 49.001 31.9299 49.001ZM18.133 35.4693C18.0485 35.9407 18.006 36.4214 18.006 36.9034C18.006 42.7388 24.2521 47.4851 31.9299 47.4851C39.6078 47.4851 45.8539 42.7381 45.8539 36.9034C45.8539 36.4395 45.8145 35.9825 45.7377 35.5338C45.6962 35.4309 45.6748 35.3182 45.6748 35.2041C45.2499 33.2129 44.0907 31.4052 42.4164 29.9485C42.3099 29.9023 42.2158 29.8227 42.1439 29.718C39.5989 27.6299 35.9626 26.3209 31.9299 26.3209C27.938 26.3209 24.3328 27.6041 21.7915 29.6566C21.7222 29.7507 21.6348 29.8232 21.5368 29.8681C19.8263 31.3256 18.6373 33.1455 18.1959 35.154C18.1945 35.2543 18.1764 35.3533 18.1425 35.4451C18.1393 35.4534 18.1368 35.4618 18.133 35.4693ZM43.601 29.164C45.0739 30.57 46.155 32.2443 46.7076 34.0815C47.0258 33.7952 47.2837 33.4242 47.4607 32.998C47.6377 32.5718 47.7289 32.1022 47.727 31.6266C47.7263 30.8105 47.4544 30.028 46.9708 29.4509C46.4872 28.8739 45.8315 28.5493 45.1476 28.5485C44.5897 28.5476 44.0468 28.7637 43.601 29.164ZM18.852 28.5485C18.1682 28.5495 17.5127 28.8742 17.0293 29.4512C16.5458 30.0283 16.2739 30.8106 16.2732 31.6266C16.2732 32.5459 16.6162 33.4001 17.1853 33.9762C17.7563 32.1533 18.8482 30.4927 20.3268 29.1003C19.894 28.741 19.3793 28.5485 18.852 28.5485ZM43.5349 16.5161C42.4882 16.5161 41.6358 17.5333 41.6358 18.7831C41.6358 20.033 42.4882 21.0494 43.5349 21.0494C44.5817 21.0494 45.4341 20.033 45.4341 18.7831C45.4341 17.5333 44.5823 16.5161 43.5349 16.5161ZM31.9992 44.6867C29.4554 44.6867 27.6629 44.0235 26.5203 42.6592C26.4012 42.517 26.3343 42.3242 26.3344 42.1231C26.3344 41.922 26.4014 41.7292 26.5206 41.5871C26.6398 41.445 26.8014 41.3652 26.9699 41.3653C27.1384 41.3653 27.2999 41.4453 27.419 41.5875C28.3114 42.6524 29.8091 43.1708 31.9992 43.1708C34.1886 43.1708 35.6875 42.6524 36.5812 41.5875C36.6402 41.5172 36.7102 41.4614 36.7872 41.4234C36.8643 41.3853 36.9468 41.3658 37.0302 41.3658C37.1136 41.3658 37.1961 41.3855 37.2731 41.4236C37.3501 41.4617 37.4201 41.5175 37.479 41.5879C37.5379 41.6582 37.5847 41.7418 37.6166 41.8337C37.6484 41.9256 37.6648 42.0242 37.6648 42.1236C37.6648 42.2231 37.6483 42.3216 37.6164 42.4135C37.5845 42.5054 37.5377 42.5889 37.4787 42.6592C36.3348 44.0235 34.543 44.6867 31.9992 44.6867Z" fill="black"/>
<path d="M37.1494 31.8613C35.8549 31.8613 34.7682 33.1551 34.7682 34.6998C34.7682 36.2438 35.8549 37.4952 37.1494 37.4952C38.4439 37.4952 39.4919 36.2438 39.4919 34.6998C39.4919 33.1551 38.4432 31.8613 37.1494 31.8613ZM26.8865 31.8613C25.5933 31.8613 24.5078 33.1567 24.5078 34.6998C24.5078 36.243 25.5927 37.4952 26.8865 37.4952C28.1803 37.4952 29.229 36.243 29.229 34.6998C29.229 33.1567 28.1797 31.8613 26.8865 31.8613Z" fill="#FF4500"/>
</g>
<defs>
<filter id="filter0_bii_545_13077" x="-20.3093" y="-20.3093" width="104.619" height="104.619" filterUnits="userSpaceOnUse" color-interpolation-filters="sRGB">
<feFlood flood-opacity="0" result="BackgroundImageFix"/>
<feGaussianBlur in="BackgroundImage" stdDeviation="10.1547"/>
<feComposite in2="SourceAlpha" operator="in" result="effect1_backgroundBlur_545_13077"/>
<feBlend mode="normal" in="SourceGraphic" in2="effect1_backgroundBlur_545_13077" result="shape"/>
<feColorMatrix in="SourceAlpha" type="matrix" values="0 0 0 0 0 0 0 0 0 0 0 0 0 0 0 0 0 0 127 0" result="hardAlpha"/>
<feOffset dx="-0.853333" dy="0.853333"/>
<feGaussianBlur stdDeviation="0.426667"/>
<feComposite in2="hardAlpha" operator="arithmetic" k2="-1" k3="1"/>
<feColorMatrix type="matrix" values="0 0 0 0 0.294118 0 0 0 0 0.380392 0 0 0 0 0.439216 0 0 0 1 0"/>
<feBlend mode="normal" in2="shape" result="effect2_innerShadow_545_13077"/>
<feColorMatrix in="SourceAlpha" type="matrix" values="0 0 0 0 0 0 0 0 0 0 0 0 0 0 0 0 0 0 127 0" result="hardAlpha"/>
<feOffset dx="0.853333" dy="-0.853333"/>
<feGaussianBlur stdDeviation="0.426667"/>
<feComposite in2="hardAlpha" operator="arithmetic" k2="-1" k3="1"/>
<feColorMatrix type="matrix" values="0 0 0 0 0.290196 0 0 0 0 0.372549 0 0 0 0 0.435294 0 0 0 1 0"/>
<feBlend mode="normal" in2="effect2_innerShadow_545_13077" result="effect3_innerShadow_545_13077"/>
</filter>
<clipPath id="clip0_545_13077">
<rect width="34" height="34" fill="white" transform="translate(15 15)"/>
</clipPath>
</defs>
</svg>
