<svg width="64" height="64" viewBox="0 0 64 64" fill="none" xmlns="http://www.w3.org/2000/svg">
<g filter="url(#filter0_bii_545_13062)">
<rect width="64" height="64" rx="15" fill="white" fill-opacity="0.1"/>
</g>
<path d="M27.9912 44.0001C37.5066 44.0001 42.7102 35.7362 42.7102 28.57C42.7102 28.3353 42.7057 28.1017 42.6956 27.869C43.7081 27.101 44.5819 26.1501 45.2761 25.0608C44.3491 25.4928 43.3517 25.7836 42.3053 25.9147C43.3733 25.2433 44.1933 24.1812 44.5802 22.9151C43.5646 23.5466 42.4537 23.9918 41.2952 24.2315C40.3512 23.1774 39.0072 22.5181 37.5191 22.5181C34.6622 22.5181 32.3456 24.9467 32.3456 27.9404C32.3456 28.366 32.391 28.7799 32.4798 29.177C28.1802 28.9502 24.3677 26.7922 21.8162 23.5109C21.3566 24.3385 21.1149 25.2791 21.1157 26.2366C21.1157 28.1181 22.029 29.7791 23.4178 30.7508C22.5963 30.7245 21.7928 30.4919 21.0749 30.0725C21.0742 30.0953 21.0742 30.1175 21.0742 30.1418C21.0742 32.7681 22.8573 34.961 25.2244 35.4578C24.7798 35.5848 24.3211 35.6489 23.8603 35.6487C23.5275 35.6487 23.2032 35.6143 22.8881 35.5509C23.5467 37.7057 25.4564 39.2737 27.7206 39.3175C25.95 40.7724 23.7196 41.6389 21.2955 41.6389C20.8831 41.6393 20.4711 41.6142 20.0615 41.5638C22.351 43.1021 25.0696 43.9998 27.9915 43.9998" fill="#1DA1F2"/>
<defs>
<filter id="filter0_bii_545_13062" x="-20.3093" y="-20.3093" width="104.619" height="104.619" filterUnits="userSpaceOnUse" color-interpolation-filters="sRGB">
<feFlood flood-opacity="0" result="BackgroundImageFix"/>
<feGaussianBlur in="BackgroundImage" stdDeviation="10.1547"/>
<feComposite in2="SourceAlpha" operator="in" result="effect1_backgroundBlur_545_13062"/>
<feBlend mode="normal" in="SourceGraphic" in2="effect1_backgroundBlur_545_13062" result="shape"/>
<feColorMatrix in="SourceAlpha" type="matrix" values="0 0 0 0 0 0 0 0 0 0 0 0 0 0 0 0 0 0 127 0" result="hardAlpha"/>
<feOffset dx="-0.853333" dy="0.853333"/>
<feGaussianBlur stdDeviation="0.426667"/>
<feComposite in2="hardAlpha" operator="arithmetic" k2="-1" k3="1"/>
<feColorMatrix type="matrix" values="0 0 0 0 0.294118 0 0 0 0 0.380392 0 0 0 0 0.439216 0 0 0 1 0"/>
<feBlend mode="normal" in2="shape" result="effect2_innerShadow_545_13062"/>
<feColorMatrix in="SourceAlpha" type="matrix" values="0 0 0 0 0 0 0 0 0 0 0 0 0 0 0 0 0 0 127 0" result="hardAlpha"/>
<feOffset dx="0.853333" dy="-0.853333"/>
<feGaussianBlur stdDeviation="0.426667"/>
<feComposite in2="hardAlpha" operator="arithmetic" k2="-1" k3="1"/>
<feColorMatrix type="matrix" values="0 0 0 0 0.290196 0 0 0 0 0.372549 0 0 0 0 0.435294 0 0 0 1 0"/>
<feBlend mode="normal" in2="effect2_innerShadow_545_13062" result="effect3_innerShadow_545_13062"/>
</filter>
</defs>
</svg>
